G04 #@! TF.GenerationSoftware,KiCad,Pcbnew,(5.1.5)-3*
G04 #@! TF.CreationDate,2020-06-10T08:11:37+03:00*
G04 #@! TF.ProjectId,noname,6e6f6e61-6d65-42e6-9b69-6361645f7063,rev?*
G04 #@! TF.SameCoordinates,Original*
G04 #@! TF.FileFunction,Legend,Bot*
G04 #@! TF.FilePolarity,Positive*
%FSLAX46Y46*%
G04 Gerber Fmt 4.6, Leading zero omitted, Abs format (unit mm)*
G04 Created by KiCad (PCBNEW (5.1.5)-3) date 2020-06-10 08:11:37*
%MOMM*%
%LPD*%
G04 APERTURE LIST*
%ADD10C,0.120000*%
%ADD11C,0.150000*%
G04 APERTURE END LIST*
D10*
X146850000Y-116400000D02*
X150050000Y-116400000D01*
X150050000Y-118400000D02*
X146850000Y-118400000D01*
X150050000Y-118400000D02*
X150050000Y-116400000D01*
X108150000Y-116400000D02*
X111350000Y-116400000D01*
X111350000Y-118400000D02*
X108150000Y-118400000D01*
X111350000Y-118400000D02*
X111350000Y-116400000D01*
X133950000Y-116400000D02*
X137150000Y-116400000D01*
X137150000Y-118400000D02*
X133950000Y-118400000D01*
X137150000Y-118400000D02*
X137150000Y-116400000D01*
X172650000Y-116400000D02*
X175850000Y-116400000D01*
X175850000Y-118400000D02*
X172650000Y-118400000D01*
X175850000Y-118400000D02*
X175850000Y-116400000D01*
X159750000Y-116400000D02*
X162950000Y-116400000D01*
X162950000Y-118400000D02*
X159750000Y-118400000D01*
X162950000Y-118400000D02*
X162950000Y-116400000D01*
X121050000Y-116400000D02*
X124250000Y-116400000D01*
X124250000Y-118400000D02*
X121050000Y-118400000D01*
X124250000Y-118400000D02*
X124250000Y-116400000D01*
X133350000Y-106200000D02*
X136550000Y-106200000D01*
X136550000Y-109800000D02*
X136550000Y-106200000D01*
X133350000Y-109800000D02*
X133350000Y-106200000D01*
X120450000Y-106200000D02*
X123650000Y-106200000D01*
X123650000Y-109800000D02*
X123650000Y-106200000D01*
X120450000Y-109800000D02*
X120450000Y-106200000D01*
X107550000Y-106200000D02*
X110750000Y-106200000D01*
X110750000Y-109800000D02*
X110750000Y-106200000D01*
X107550000Y-109800000D02*
X107550000Y-106200000D01*
X172050000Y-106200000D02*
X175250000Y-106200000D01*
X175250000Y-109800000D02*
X175250000Y-106200000D01*
X172050000Y-109800000D02*
X172050000Y-106200000D01*
X146250000Y-106200000D02*
X149450000Y-106200000D01*
X149450000Y-109800000D02*
X149450000Y-106200000D01*
X146250000Y-109800000D02*
X146250000Y-106200000D01*
X159150000Y-106200000D02*
X162350000Y-106200000D01*
X162350000Y-109800000D02*
X162350000Y-106200000D01*
X159150000Y-109800000D02*
X159150000Y-106200000D01*
X94650000Y-109800000D02*
X94650000Y-106200000D01*
X97850000Y-109800000D02*
X97850000Y-106200000D01*
X94650000Y-106200000D02*
X97850000Y-106200000D01*
X98450000Y-118400000D02*
X98450000Y-116400000D01*
X98450000Y-118400000D02*
X95250000Y-118400000D01*
X95250000Y-116400000D02*
X98450000Y-116400000D01*
X111350000Y-91400000D02*
X111350000Y-89400000D01*
X111350000Y-91400000D02*
X108150000Y-91400000D01*
X108150000Y-89400000D02*
X111350000Y-89400000D01*
X150050000Y-91400000D02*
X150050000Y-89400000D01*
X150050000Y-91400000D02*
X146850000Y-91400000D01*
X146850000Y-89400000D02*
X150050000Y-89400000D01*
X137150000Y-91400000D02*
X137150000Y-89400000D01*
X137150000Y-91400000D02*
X133950000Y-91400000D01*
X133950000Y-89400000D02*
X137150000Y-89400000D01*
X175850000Y-91400000D02*
X175850000Y-89400000D01*
X175850000Y-91400000D02*
X172650000Y-91400000D01*
X172650000Y-89400000D02*
X175850000Y-89400000D01*
X162950000Y-91400000D02*
X162950000Y-89400000D01*
X162950000Y-91400000D02*
X159750000Y-91400000D01*
X159750000Y-89400000D02*
X162950000Y-89400000D01*
X124250000Y-91400000D02*
X124250000Y-89400000D01*
X124250000Y-91400000D02*
X121050000Y-91400000D01*
X121050000Y-89400000D02*
X124250000Y-89400000D01*
X120450000Y-82800000D02*
X120450000Y-79200000D01*
X123650000Y-82800000D02*
X123650000Y-79200000D01*
X120450000Y-79200000D02*
X123650000Y-79200000D01*
X107550000Y-82800000D02*
X107550000Y-79200000D01*
X110750000Y-82800000D02*
X110750000Y-79200000D01*
X107550000Y-79200000D02*
X110750000Y-79200000D01*
X172050000Y-82800000D02*
X172050000Y-79200000D01*
X175250000Y-82800000D02*
X175250000Y-79200000D01*
X172050000Y-79200000D02*
X175250000Y-79200000D01*
X159150000Y-82800000D02*
X159150000Y-79200000D01*
X162350000Y-82800000D02*
X162350000Y-79200000D01*
X159150000Y-79200000D02*
X162350000Y-79200000D01*
X146250000Y-82800000D02*
X146250000Y-79200000D01*
X149450000Y-82800000D02*
X149450000Y-79200000D01*
X146250000Y-79200000D02*
X149450000Y-79200000D01*
X133350000Y-82800000D02*
X133350000Y-79200000D01*
X136550000Y-82800000D02*
X136550000Y-79200000D01*
X133350000Y-79200000D02*
X136550000Y-79200000D01*
X95250000Y-89400000D02*
X98450000Y-89400000D01*
X98450000Y-91400000D02*
X95250000Y-91400000D01*
X98450000Y-91400000D02*
X98450000Y-89400000D01*
X94650000Y-79200000D02*
X97850000Y-79200000D01*
X97850000Y-82800000D02*
X97850000Y-79200000D01*
X94650000Y-82800000D02*
X94650000Y-79200000D01*
X172650000Y-62400000D02*
X175850000Y-62400000D01*
X175850000Y-64400000D02*
X172650000Y-64400000D01*
X175850000Y-64400000D02*
X175850000Y-62400000D01*
X159750000Y-62400000D02*
X162950000Y-62400000D01*
X162950000Y-64400000D02*
X159750000Y-64400000D01*
X162950000Y-64400000D02*
X162950000Y-62400000D01*
X146850000Y-62400000D02*
X150050000Y-62400000D01*
X150050000Y-64400000D02*
X146850000Y-64400000D01*
X150050000Y-64400000D02*
X150050000Y-62400000D01*
X133950000Y-62400000D02*
X137150000Y-62400000D01*
X137150000Y-64400000D02*
X133950000Y-64400000D01*
X137150000Y-64400000D02*
X137150000Y-62400000D01*
X121050000Y-62400000D02*
X124250000Y-62400000D01*
X124250000Y-64400000D02*
X121050000Y-64400000D01*
X124250000Y-64400000D02*
X124250000Y-62400000D01*
X108150000Y-62400000D02*
X111350000Y-62400000D01*
X111350000Y-64400000D02*
X108150000Y-64400000D01*
X111350000Y-64400000D02*
X111350000Y-62400000D01*
X172050000Y-52200000D02*
X175250000Y-52200000D01*
X175250000Y-55800000D02*
X175250000Y-52200000D01*
X172050000Y-55800000D02*
X172050000Y-52200000D01*
X159150000Y-52200000D02*
X162350000Y-52200000D01*
X162350000Y-55800000D02*
X162350000Y-52200000D01*
X159150000Y-55800000D02*
X159150000Y-52200000D01*
X146250000Y-52200000D02*
X149450000Y-52200000D01*
X149450000Y-55800000D02*
X149450000Y-52200000D01*
X146250000Y-55800000D02*
X146250000Y-52200000D01*
X133350000Y-52200000D02*
X136550000Y-52200000D01*
X136550000Y-55800000D02*
X136550000Y-52200000D01*
X133350000Y-55800000D02*
X133350000Y-52200000D01*
X120450000Y-52200000D02*
X123650000Y-52200000D01*
X123650000Y-55800000D02*
X123650000Y-52200000D01*
X120450000Y-55800000D02*
X120450000Y-52200000D01*
X107550000Y-52200000D02*
X110750000Y-52200000D01*
X110750000Y-55800000D02*
X110750000Y-52200000D01*
X107550000Y-55800000D02*
X107550000Y-52200000D01*
X94650000Y-55800000D02*
X94650000Y-52200000D01*
X97850000Y-55800000D02*
X97850000Y-52200000D01*
X94650000Y-52200000D02*
X97850000Y-52200000D01*
X98450000Y-64400000D02*
X98450000Y-62400000D01*
X98450000Y-64400000D02*
X95250000Y-64400000D01*
X95250000Y-62400000D02*
X98450000Y-62400000D01*
D11*
X148611904Y-114852380D02*
X148611904Y-115661904D01*
X148564285Y-115757142D01*
X148516666Y-115804761D01*
X148421428Y-115852380D01*
X148230952Y-115852380D01*
X148135714Y-115804761D01*
X148088095Y-115757142D01*
X148040476Y-115661904D01*
X148040476Y-114852380D01*
X147040476Y-115852380D02*
X147611904Y-115852380D01*
X147326190Y-115852380D02*
X147326190Y-114852380D01*
X147421428Y-114995238D01*
X147516666Y-115090476D01*
X147611904Y-115138095D01*
X109911904Y-114852380D02*
X109911904Y-115661904D01*
X109864285Y-115757142D01*
X109816666Y-115804761D01*
X109721428Y-115852380D01*
X109530952Y-115852380D01*
X109435714Y-115804761D01*
X109388095Y-115757142D01*
X109340476Y-115661904D01*
X109340476Y-114852380D01*
X108340476Y-115852380D02*
X108911904Y-115852380D01*
X108626190Y-115852380D02*
X108626190Y-114852380D01*
X108721428Y-114995238D01*
X108816666Y-115090476D01*
X108911904Y-115138095D01*
X135711904Y-114852380D02*
X135711904Y-115661904D01*
X135664285Y-115757142D01*
X135616666Y-115804761D01*
X135521428Y-115852380D01*
X135330952Y-115852380D01*
X135235714Y-115804761D01*
X135188095Y-115757142D01*
X135140476Y-115661904D01*
X135140476Y-114852380D01*
X134140476Y-115852380D02*
X134711904Y-115852380D01*
X134426190Y-115852380D02*
X134426190Y-114852380D01*
X134521428Y-114995238D01*
X134616666Y-115090476D01*
X134711904Y-115138095D01*
X174411904Y-114852380D02*
X174411904Y-115661904D01*
X174364285Y-115757142D01*
X174316666Y-115804761D01*
X174221428Y-115852380D01*
X174030952Y-115852380D01*
X173935714Y-115804761D01*
X173888095Y-115757142D01*
X173840476Y-115661904D01*
X173840476Y-114852380D01*
X172840476Y-115852380D02*
X173411904Y-115852380D01*
X173126190Y-115852380D02*
X173126190Y-114852380D01*
X173221428Y-114995238D01*
X173316666Y-115090476D01*
X173411904Y-115138095D01*
X161511904Y-114852380D02*
X161511904Y-115661904D01*
X161464285Y-115757142D01*
X161416666Y-115804761D01*
X161321428Y-115852380D01*
X161130952Y-115852380D01*
X161035714Y-115804761D01*
X160988095Y-115757142D01*
X160940476Y-115661904D01*
X160940476Y-114852380D01*
X159940476Y-115852380D02*
X160511904Y-115852380D01*
X160226190Y-115852380D02*
X160226190Y-114852380D01*
X160321428Y-114995238D01*
X160416666Y-115090476D01*
X160511904Y-115138095D01*
X122811904Y-114852380D02*
X122811904Y-115661904D01*
X122764285Y-115757142D01*
X122716666Y-115804761D01*
X122621428Y-115852380D01*
X122430952Y-115852380D01*
X122335714Y-115804761D01*
X122288095Y-115757142D01*
X122240476Y-115661904D01*
X122240476Y-114852380D01*
X121240476Y-115852380D02*
X121811904Y-115852380D01*
X121526190Y-115852380D02*
X121526190Y-114852380D01*
X121621428Y-114995238D01*
X121716666Y-115090476D01*
X121811904Y-115138095D01*
X133002380Y-107661904D02*
X132002380Y-107661904D01*
X132002380Y-107900000D01*
X132050000Y-108042857D01*
X132145238Y-108138095D01*
X132240476Y-108185714D01*
X132430952Y-108233333D01*
X132573809Y-108233333D01*
X132764285Y-108185714D01*
X132859523Y-108138095D01*
X132954761Y-108042857D01*
X133002380Y-107900000D01*
X133002380Y-107661904D01*
X132097619Y-108614285D02*
X132050000Y-108661904D01*
X132002380Y-108757142D01*
X132002380Y-108995238D01*
X132050000Y-109090476D01*
X132097619Y-109138095D01*
X132192857Y-109185714D01*
X132288095Y-109185714D01*
X132430952Y-109138095D01*
X133002380Y-108566666D01*
X133002380Y-109185714D01*
X120102380Y-107661904D02*
X119102380Y-107661904D01*
X119102380Y-107900000D01*
X119150000Y-108042857D01*
X119245238Y-108138095D01*
X119340476Y-108185714D01*
X119530952Y-108233333D01*
X119673809Y-108233333D01*
X119864285Y-108185714D01*
X119959523Y-108138095D01*
X120054761Y-108042857D01*
X120102380Y-107900000D01*
X120102380Y-107661904D01*
X119197619Y-108614285D02*
X119150000Y-108661904D01*
X119102380Y-108757142D01*
X119102380Y-108995238D01*
X119150000Y-109090476D01*
X119197619Y-109138095D01*
X119292857Y-109185714D01*
X119388095Y-109185714D01*
X119530952Y-109138095D01*
X120102380Y-108566666D01*
X120102380Y-109185714D01*
X107202380Y-107661904D02*
X106202380Y-107661904D01*
X106202380Y-107900000D01*
X106250000Y-108042857D01*
X106345238Y-108138095D01*
X106440476Y-108185714D01*
X106630952Y-108233333D01*
X106773809Y-108233333D01*
X106964285Y-108185714D01*
X107059523Y-108138095D01*
X107154761Y-108042857D01*
X107202380Y-107900000D01*
X107202380Y-107661904D01*
X106297619Y-108614285D02*
X106250000Y-108661904D01*
X106202380Y-108757142D01*
X106202380Y-108995238D01*
X106250000Y-109090476D01*
X106297619Y-109138095D01*
X106392857Y-109185714D01*
X106488095Y-109185714D01*
X106630952Y-109138095D01*
X107202380Y-108566666D01*
X107202380Y-109185714D01*
X171702380Y-107661904D02*
X170702380Y-107661904D01*
X170702380Y-107900000D01*
X170750000Y-108042857D01*
X170845238Y-108138095D01*
X170940476Y-108185714D01*
X171130952Y-108233333D01*
X171273809Y-108233333D01*
X171464285Y-108185714D01*
X171559523Y-108138095D01*
X171654761Y-108042857D01*
X171702380Y-107900000D01*
X171702380Y-107661904D01*
X170797619Y-108614285D02*
X170750000Y-108661904D01*
X170702380Y-108757142D01*
X170702380Y-108995238D01*
X170750000Y-109090476D01*
X170797619Y-109138095D01*
X170892857Y-109185714D01*
X170988095Y-109185714D01*
X171130952Y-109138095D01*
X171702380Y-108566666D01*
X171702380Y-109185714D01*
X145902380Y-107661904D02*
X144902380Y-107661904D01*
X144902380Y-107900000D01*
X144950000Y-108042857D01*
X145045238Y-108138095D01*
X145140476Y-108185714D01*
X145330952Y-108233333D01*
X145473809Y-108233333D01*
X145664285Y-108185714D01*
X145759523Y-108138095D01*
X145854761Y-108042857D01*
X145902380Y-107900000D01*
X145902380Y-107661904D01*
X144997619Y-108614285D02*
X144950000Y-108661904D01*
X144902380Y-108757142D01*
X144902380Y-108995238D01*
X144950000Y-109090476D01*
X144997619Y-109138095D01*
X145092857Y-109185714D01*
X145188095Y-109185714D01*
X145330952Y-109138095D01*
X145902380Y-108566666D01*
X145902380Y-109185714D01*
X158802380Y-107661904D02*
X157802380Y-107661904D01*
X157802380Y-107900000D01*
X157850000Y-108042857D01*
X157945238Y-108138095D01*
X158040476Y-108185714D01*
X158230952Y-108233333D01*
X158373809Y-108233333D01*
X158564285Y-108185714D01*
X158659523Y-108138095D01*
X158754761Y-108042857D01*
X158802380Y-107900000D01*
X158802380Y-107661904D01*
X157897619Y-108614285D02*
X157850000Y-108661904D01*
X157802380Y-108757142D01*
X157802380Y-108995238D01*
X157850000Y-109090476D01*
X157897619Y-109138095D01*
X157992857Y-109185714D01*
X158088095Y-109185714D01*
X158230952Y-109138095D01*
X158802380Y-108566666D01*
X158802380Y-109185714D01*
X94302380Y-107661904D02*
X93302380Y-107661904D01*
X93302380Y-107900000D01*
X93350000Y-108042857D01*
X93445238Y-108138095D01*
X93540476Y-108185714D01*
X93730952Y-108233333D01*
X93873809Y-108233333D01*
X94064285Y-108185714D01*
X94159523Y-108138095D01*
X94254761Y-108042857D01*
X94302380Y-107900000D01*
X94302380Y-107661904D01*
X93397619Y-108614285D02*
X93350000Y-108661904D01*
X93302380Y-108757142D01*
X93302380Y-108995238D01*
X93350000Y-109090476D01*
X93397619Y-109138095D01*
X93492857Y-109185714D01*
X93588095Y-109185714D01*
X93730952Y-109138095D01*
X94302380Y-108566666D01*
X94302380Y-109185714D01*
X97011904Y-114852380D02*
X97011904Y-115661904D01*
X96964285Y-115757142D01*
X96916666Y-115804761D01*
X96821428Y-115852380D01*
X96630952Y-115852380D01*
X96535714Y-115804761D01*
X96488095Y-115757142D01*
X96440476Y-115661904D01*
X96440476Y-114852380D01*
X95440476Y-115852380D02*
X96011904Y-115852380D01*
X95726190Y-115852380D02*
X95726190Y-114852380D01*
X95821428Y-114995238D01*
X95916666Y-115090476D01*
X96011904Y-115138095D01*
X109911904Y-87852380D02*
X109911904Y-88661904D01*
X109864285Y-88757142D01*
X109816666Y-88804761D01*
X109721428Y-88852380D01*
X109530952Y-88852380D01*
X109435714Y-88804761D01*
X109388095Y-88757142D01*
X109340476Y-88661904D01*
X109340476Y-87852380D01*
X108340476Y-88852380D02*
X108911904Y-88852380D01*
X108626190Y-88852380D02*
X108626190Y-87852380D01*
X108721428Y-87995238D01*
X108816666Y-88090476D01*
X108911904Y-88138095D01*
X148611904Y-87852380D02*
X148611904Y-88661904D01*
X148564285Y-88757142D01*
X148516666Y-88804761D01*
X148421428Y-88852380D01*
X148230952Y-88852380D01*
X148135714Y-88804761D01*
X148088095Y-88757142D01*
X148040476Y-88661904D01*
X148040476Y-87852380D01*
X147040476Y-88852380D02*
X147611904Y-88852380D01*
X147326190Y-88852380D02*
X147326190Y-87852380D01*
X147421428Y-87995238D01*
X147516666Y-88090476D01*
X147611904Y-88138095D01*
X135711904Y-87852380D02*
X135711904Y-88661904D01*
X135664285Y-88757142D01*
X135616666Y-88804761D01*
X135521428Y-88852380D01*
X135330952Y-88852380D01*
X135235714Y-88804761D01*
X135188095Y-88757142D01*
X135140476Y-88661904D01*
X135140476Y-87852380D01*
X134140476Y-88852380D02*
X134711904Y-88852380D01*
X134426190Y-88852380D02*
X134426190Y-87852380D01*
X134521428Y-87995238D01*
X134616666Y-88090476D01*
X134711904Y-88138095D01*
X174411904Y-87852380D02*
X174411904Y-88661904D01*
X174364285Y-88757142D01*
X174316666Y-88804761D01*
X174221428Y-88852380D01*
X174030952Y-88852380D01*
X173935714Y-88804761D01*
X173888095Y-88757142D01*
X173840476Y-88661904D01*
X173840476Y-87852380D01*
X172840476Y-88852380D02*
X173411904Y-88852380D01*
X173126190Y-88852380D02*
X173126190Y-87852380D01*
X173221428Y-87995238D01*
X173316666Y-88090476D01*
X173411904Y-88138095D01*
X161511904Y-87852380D02*
X161511904Y-88661904D01*
X161464285Y-88757142D01*
X161416666Y-88804761D01*
X161321428Y-88852380D01*
X161130952Y-88852380D01*
X161035714Y-88804761D01*
X160988095Y-88757142D01*
X160940476Y-88661904D01*
X160940476Y-87852380D01*
X159940476Y-88852380D02*
X160511904Y-88852380D01*
X160226190Y-88852380D02*
X160226190Y-87852380D01*
X160321428Y-87995238D01*
X160416666Y-88090476D01*
X160511904Y-88138095D01*
X122811904Y-87852380D02*
X122811904Y-88661904D01*
X122764285Y-88757142D01*
X122716666Y-88804761D01*
X122621428Y-88852380D01*
X122430952Y-88852380D01*
X122335714Y-88804761D01*
X122288095Y-88757142D01*
X122240476Y-88661904D01*
X122240476Y-87852380D01*
X121240476Y-88852380D02*
X121811904Y-88852380D01*
X121526190Y-88852380D02*
X121526190Y-87852380D01*
X121621428Y-87995238D01*
X121716666Y-88090476D01*
X121811904Y-88138095D01*
X120102380Y-80661904D02*
X119102380Y-80661904D01*
X119102380Y-80900000D01*
X119150000Y-81042857D01*
X119245238Y-81138095D01*
X119340476Y-81185714D01*
X119530952Y-81233333D01*
X119673809Y-81233333D01*
X119864285Y-81185714D01*
X119959523Y-81138095D01*
X120054761Y-81042857D01*
X120102380Y-80900000D01*
X120102380Y-80661904D01*
X119197619Y-81614285D02*
X119150000Y-81661904D01*
X119102380Y-81757142D01*
X119102380Y-81995238D01*
X119150000Y-82090476D01*
X119197619Y-82138095D01*
X119292857Y-82185714D01*
X119388095Y-82185714D01*
X119530952Y-82138095D01*
X120102380Y-81566666D01*
X120102380Y-82185714D01*
X107202380Y-80661904D02*
X106202380Y-80661904D01*
X106202380Y-80900000D01*
X106250000Y-81042857D01*
X106345238Y-81138095D01*
X106440476Y-81185714D01*
X106630952Y-81233333D01*
X106773809Y-81233333D01*
X106964285Y-81185714D01*
X107059523Y-81138095D01*
X107154761Y-81042857D01*
X107202380Y-80900000D01*
X107202380Y-80661904D01*
X106297619Y-81614285D02*
X106250000Y-81661904D01*
X106202380Y-81757142D01*
X106202380Y-81995238D01*
X106250000Y-82090476D01*
X106297619Y-82138095D01*
X106392857Y-82185714D01*
X106488095Y-82185714D01*
X106630952Y-82138095D01*
X107202380Y-81566666D01*
X107202380Y-82185714D01*
X171702380Y-80661904D02*
X170702380Y-80661904D01*
X170702380Y-80900000D01*
X170750000Y-81042857D01*
X170845238Y-81138095D01*
X170940476Y-81185714D01*
X171130952Y-81233333D01*
X171273809Y-81233333D01*
X171464285Y-81185714D01*
X171559523Y-81138095D01*
X171654761Y-81042857D01*
X171702380Y-80900000D01*
X171702380Y-80661904D01*
X170797619Y-81614285D02*
X170750000Y-81661904D01*
X170702380Y-81757142D01*
X170702380Y-81995238D01*
X170750000Y-82090476D01*
X170797619Y-82138095D01*
X170892857Y-82185714D01*
X170988095Y-82185714D01*
X171130952Y-82138095D01*
X171702380Y-81566666D01*
X171702380Y-82185714D01*
X158802380Y-80661904D02*
X157802380Y-80661904D01*
X157802380Y-80900000D01*
X157850000Y-81042857D01*
X157945238Y-81138095D01*
X158040476Y-81185714D01*
X158230952Y-81233333D01*
X158373809Y-81233333D01*
X158564285Y-81185714D01*
X158659523Y-81138095D01*
X158754761Y-81042857D01*
X158802380Y-80900000D01*
X158802380Y-80661904D01*
X157897619Y-81614285D02*
X157850000Y-81661904D01*
X157802380Y-81757142D01*
X157802380Y-81995238D01*
X157850000Y-82090476D01*
X157897619Y-82138095D01*
X157992857Y-82185714D01*
X158088095Y-82185714D01*
X158230952Y-82138095D01*
X158802380Y-81566666D01*
X158802380Y-82185714D01*
X145902380Y-80661904D02*
X144902380Y-80661904D01*
X144902380Y-80900000D01*
X144950000Y-81042857D01*
X145045238Y-81138095D01*
X145140476Y-81185714D01*
X145330952Y-81233333D01*
X145473809Y-81233333D01*
X145664285Y-81185714D01*
X145759523Y-81138095D01*
X145854761Y-81042857D01*
X145902380Y-80900000D01*
X145902380Y-80661904D01*
X144997619Y-81614285D02*
X144950000Y-81661904D01*
X144902380Y-81757142D01*
X144902380Y-81995238D01*
X144950000Y-82090476D01*
X144997619Y-82138095D01*
X145092857Y-82185714D01*
X145188095Y-82185714D01*
X145330952Y-82138095D01*
X145902380Y-81566666D01*
X145902380Y-82185714D01*
X133002380Y-80661904D02*
X132002380Y-80661904D01*
X132002380Y-80900000D01*
X132050000Y-81042857D01*
X132145238Y-81138095D01*
X132240476Y-81185714D01*
X132430952Y-81233333D01*
X132573809Y-81233333D01*
X132764285Y-81185714D01*
X132859523Y-81138095D01*
X132954761Y-81042857D01*
X133002380Y-80900000D01*
X133002380Y-80661904D01*
X132097619Y-81614285D02*
X132050000Y-81661904D01*
X132002380Y-81757142D01*
X132002380Y-81995238D01*
X132050000Y-82090476D01*
X132097619Y-82138095D01*
X132192857Y-82185714D01*
X132288095Y-82185714D01*
X132430952Y-82138095D01*
X133002380Y-81566666D01*
X133002380Y-82185714D01*
X97011904Y-87852380D02*
X97011904Y-88661904D01*
X96964285Y-88757142D01*
X96916666Y-88804761D01*
X96821428Y-88852380D01*
X96630952Y-88852380D01*
X96535714Y-88804761D01*
X96488095Y-88757142D01*
X96440476Y-88661904D01*
X96440476Y-87852380D01*
X95440476Y-88852380D02*
X96011904Y-88852380D01*
X95726190Y-88852380D02*
X95726190Y-87852380D01*
X95821428Y-87995238D01*
X95916666Y-88090476D01*
X96011904Y-88138095D01*
X94302380Y-80661904D02*
X93302380Y-80661904D01*
X93302380Y-80900000D01*
X93350000Y-81042857D01*
X93445238Y-81138095D01*
X93540476Y-81185714D01*
X93730952Y-81233333D01*
X93873809Y-81233333D01*
X94064285Y-81185714D01*
X94159523Y-81138095D01*
X94254761Y-81042857D01*
X94302380Y-80900000D01*
X94302380Y-80661904D01*
X93397619Y-81614285D02*
X93350000Y-81661904D01*
X93302380Y-81757142D01*
X93302380Y-81995238D01*
X93350000Y-82090476D01*
X93397619Y-82138095D01*
X93492857Y-82185714D01*
X93588095Y-82185714D01*
X93730952Y-82138095D01*
X94302380Y-81566666D01*
X94302380Y-82185714D01*
X174411904Y-60852380D02*
X174411904Y-61661904D01*
X174364285Y-61757142D01*
X174316666Y-61804761D01*
X174221428Y-61852380D01*
X174030952Y-61852380D01*
X173935714Y-61804761D01*
X173888095Y-61757142D01*
X173840476Y-61661904D01*
X173840476Y-60852380D01*
X172840476Y-61852380D02*
X173411904Y-61852380D01*
X173126190Y-61852380D02*
X173126190Y-60852380D01*
X173221428Y-60995238D01*
X173316666Y-61090476D01*
X173411904Y-61138095D01*
X161511904Y-60852380D02*
X161511904Y-61661904D01*
X161464285Y-61757142D01*
X161416666Y-61804761D01*
X161321428Y-61852380D01*
X161130952Y-61852380D01*
X161035714Y-61804761D01*
X160988095Y-61757142D01*
X160940476Y-61661904D01*
X160940476Y-60852380D01*
X159940476Y-61852380D02*
X160511904Y-61852380D01*
X160226190Y-61852380D02*
X160226190Y-60852380D01*
X160321428Y-60995238D01*
X160416666Y-61090476D01*
X160511904Y-61138095D01*
X148611904Y-60852380D02*
X148611904Y-61661904D01*
X148564285Y-61757142D01*
X148516666Y-61804761D01*
X148421428Y-61852380D01*
X148230952Y-61852380D01*
X148135714Y-61804761D01*
X148088095Y-61757142D01*
X148040476Y-61661904D01*
X148040476Y-60852380D01*
X147040476Y-61852380D02*
X147611904Y-61852380D01*
X147326190Y-61852380D02*
X147326190Y-60852380D01*
X147421428Y-60995238D01*
X147516666Y-61090476D01*
X147611904Y-61138095D01*
X135711904Y-60852380D02*
X135711904Y-61661904D01*
X135664285Y-61757142D01*
X135616666Y-61804761D01*
X135521428Y-61852380D01*
X135330952Y-61852380D01*
X135235714Y-61804761D01*
X135188095Y-61757142D01*
X135140476Y-61661904D01*
X135140476Y-60852380D01*
X134140476Y-61852380D02*
X134711904Y-61852380D01*
X134426190Y-61852380D02*
X134426190Y-60852380D01*
X134521428Y-60995238D01*
X134616666Y-61090476D01*
X134711904Y-61138095D01*
X122811904Y-60852380D02*
X122811904Y-61661904D01*
X122764285Y-61757142D01*
X122716666Y-61804761D01*
X122621428Y-61852380D01*
X122430952Y-61852380D01*
X122335714Y-61804761D01*
X122288095Y-61757142D01*
X122240476Y-61661904D01*
X122240476Y-60852380D01*
X121240476Y-61852380D02*
X121811904Y-61852380D01*
X121526190Y-61852380D02*
X121526190Y-60852380D01*
X121621428Y-60995238D01*
X121716666Y-61090476D01*
X121811904Y-61138095D01*
X109911904Y-60852380D02*
X109911904Y-61661904D01*
X109864285Y-61757142D01*
X109816666Y-61804761D01*
X109721428Y-61852380D01*
X109530952Y-61852380D01*
X109435714Y-61804761D01*
X109388095Y-61757142D01*
X109340476Y-61661904D01*
X109340476Y-60852380D01*
X108340476Y-61852380D02*
X108911904Y-61852380D01*
X108626190Y-61852380D02*
X108626190Y-60852380D01*
X108721428Y-60995238D01*
X108816666Y-61090476D01*
X108911904Y-61138095D01*
X171702380Y-53661904D02*
X170702380Y-53661904D01*
X170702380Y-53900000D01*
X170750000Y-54042857D01*
X170845238Y-54138095D01*
X170940476Y-54185714D01*
X171130952Y-54233333D01*
X171273809Y-54233333D01*
X171464285Y-54185714D01*
X171559523Y-54138095D01*
X171654761Y-54042857D01*
X171702380Y-53900000D01*
X171702380Y-53661904D01*
X170797619Y-54614285D02*
X170750000Y-54661904D01*
X170702380Y-54757142D01*
X170702380Y-54995238D01*
X170750000Y-55090476D01*
X170797619Y-55138095D01*
X170892857Y-55185714D01*
X170988095Y-55185714D01*
X171130952Y-55138095D01*
X171702380Y-54566666D01*
X171702380Y-55185714D01*
X158802380Y-53661904D02*
X157802380Y-53661904D01*
X157802380Y-53900000D01*
X157850000Y-54042857D01*
X157945238Y-54138095D01*
X158040476Y-54185714D01*
X158230952Y-54233333D01*
X158373809Y-54233333D01*
X158564285Y-54185714D01*
X158659523Y-54138095D01*
X158754761Y-54042857D01*
X158802380Y-53900000D01*
X158802380Y-53661904D01*
X157897619Y-54614285D02*
X157850000Y-54661904D01*
X157802380Y-54757142D01*
X157802380Y-54995238D01*
X157850000Y-55090476D01*
X157897619Y-55138095D01*
X157992857Y-55185714D01*
X158088095Y-55185714D01*
X158230952Y-55138095D01*
X158802380Y-54566666D01*
X158802380Y-55185714D01*
X145902380Y-53661904D02*
X144902380Y-53661904D01*
X144902380Y-53900000D01*
X144950000Y-54042857D01*
X145045238Y-54138095D01*
X145140476Y-54185714D01*
X145330952Y-54233333D01*
X145473809Y-54233333D01*
X145664285Y-54185714D01*
X145759523Y-54138095D01*
X145854761Y-54042857D01*
X145902380Y-53900000D01*
X145902380Y-53661904D01*
X144997619Y-54614285D02*
X144950000Y-54661904D01*
X144902380Y-54757142D01*
X144902380Y-54995238D01*
X144950000Y-55090476D01*
X144997619Y-55138095D01*
X145092857Y-55185714D01*
X145188095Y-55185714D01*
X145330952Y-55138095D01*
X145902380Y-54566666D01*
X145902380Y-55185714D01*
X133002380Y-53661904D02*
X132002380Y-53661904D01*
X132002380Y-53900000D01*
X132050000Y-54042857D01*
X132145238Y-54138095D01*
X132240476Y-54185714D01*
X132430952Y-54233333D01*
X132573809Y-54233333D01*
X132764285Y-54185714D01*
X132859523Y-54138095D01*
X132954761Y-54042857D01*
X133002380Y-53900000D01*
X133002380Y-53661904D01*
X132097619Y-54614285D02*
X132050000Y-54661904D01*
X132002380Y-54757142D01*
X132002380Y-54995238D01*
X132050000Y-55090476D01*
X132097619Y-55138095D01*
X132192857Y-55185714D01*
X132288095Y-55185714D01*
X132430952Y-55138095D01*
X133002380Y-54566666D01*
X133002380Y-55185714D01*
X120102380Y-53661904D02*
X119102380Y-53661904D01*
X119102380Y-53900000D01*
X119150000Y-54042857D01*
X119245238Y-54138095D01*
X119340476Y-54185714D01*
X119530952Y-54233333D01*
X119673809Y-54233333D01*
X119864285Y-54185714D01*
X119959523Y-54138095D01*
X120054761Y-54042857D01*
X120102380Y-53900000D01*
X120102380Y-53661904D01*
X119197619Y-54614285D02*
X119150000Y-54661904D01*
X119102380Y-54757142D01*
X119102380Y-54995238D01*
X119150000Y-55090476D01*
X119197619Y-55138095D01*
X119292857Y-55185714D01*
X119388095Y-55185714D01*
X119530952Y-55138095D01*
X120102380Y-54566666D01*
X120102380Y-55185714D01*
X107202380Y-53661904D02*
X106202380Y-53661904D01*
X106202380Y-53900000D01*
X106250000Y-54042857D01*
X106345238Y-54138095D01*
X106440476Y-54185714D01*
X106630952Y-54233333D01*
X106773809Y-54233333D01*
X106964285Y-54185714D01*
X107059523Y-54138095D01*
X107154761Y-54042857D01*
X107202380Y-53900000D01*
X107202380Y-53661904D01*
X106297619Y-54614285D02*
X106250000Y-54661904D01*
X106202380Y-54757142D01*
X106202380Y-54995238D01*
X106250000Y-55090476D01*
X106297619Y-55138095D01*
X106392857Y-55185714D01*
X106488095Y-55185714D01*
X106630952Y-55138095D01*
X107202380Y-54566666D01*
X107202380Y-55185714D01*
X94302380Y-53661904D02*
X93302380Y-53661904D01*
X93302380Y-53900000D01*
X93350000Y-54042857D01*
X93445238Y-54138095D01*
X93540476Y-54185714D01*
X93730952Y-54233333D01*
X93873809Y-54233333D01*
X94064285Y-54185714D01*
X94159523Y-54138095D01*
X94254761Y-54042857D01*
X94302380Y-53900000D01*
X94302380Y-53661904D01*
X93397619Y-54614285D02*
X93350000Y-54661904D01*
X93302380Y-54757142D01*
X93302380Y-54995238D01*
X93350000Y-55090476D01*
X93397619Y-55138095D01*
X93492857Y-55185714D01*
X93588095Y-55185714D01*
X93730952Y-55138095D01*
X94302380Y-54566666D01*
X94302380Y-55185714D01*
X97011904Y-60852380D02*
X97011904Y-61661904D01*
X96964285Y-61757142D01*
X96916666Y-61804761D01*
X96821428Y-61852380D01*
X96630952Y-61852380D01*
X96535714Y-61804761D01*
X96488095Y-61757142D01*
X96440476Y-61661904D01*
X96440476Y-60852380D01*
X95440476Y-61852380D02*
X96011904Y-61852380D01*
X95726190Y-61852380D02*
X95726190Y-60852380D01*
X95821428Y-60995238D01*
X95916666Y-61090476D01*
X96011904Y-61138095D01*
M02*
