G04 #@! TF.GenerationSoftware,KiCad,Pcbnew,(5.1.5)-3*
G04 #@! TF.CreationDate,2020-06-10T08:11:37+03:00*
G04 #@! TF.ProjectId,noname,6e6f6e61-6d65-42e6-9b69-6361645f7063,rev?*
G04 #@! TF.SameCoordinates,Original*
G04 #@! TF.FileFunction,Profile,NP*
%FSLAX46Y46*%
G04 Gerber Fmt 4.6, Leading zero omitted, Abs format (unit mm)*
G04 Created by KiCad (PCBNEW (5.1.5)-3) date 2020-06-10 08:11:37*
%MOMM*%
%LPD*%
G04 APERTURE LIST*
%ADD10C,0.100000*%
G04 APERTURE END LIST*
D10*
X142900000Y-105400000D02*
G75*
G02X144900000Y-103400000I2000000J0D01*
G01*
X104200000Y-105400000D02*
G75*
G02X106200000Y-103400000I2000000J0D01*
G01*
X88800000Y-114200000D02*
G75*
G02X88300000Y-113700000I0J500000D01*
G01*
X88300000Y-116900000D02*
G75*
G02X88800000Y-116400000I500000J0D01*
G01*
X168700000Y-116900000D02*
X168700000Y-127400000D01*
X117100000Y-116900000D02*
X117100000Y-127400000D01*
X142900000Y-116900000D02*
X142900000Y-127400000D01*
X112100000Y-103400000D02*
X106200000Y-103400000D01*
X150800000Y-103400000D02*
G75*
G02X152800000Y-105400000I0J-2000000D01*
G01*
X101200000Y-113700000D02*
X101200000Y-105400000D01*
X163700000Y-103400000D02*
G75*
G02X165700000Y-105400000I0J-2000000D01*
G01*
X101200000Y-116900000D02*
X101200000Y-127400000D01*
X90800000Y-116400000D02*
G75*
G02X91300000Y-116900000I0J-500000D01*
G01*
X153300000Y-114200000D02*
X155300000Y-114200000D01*
X163700000Y-103400000D02*
X157800000Y-103400000D01*
X176600000Y-103400000D02*
G75*
G02X178600000Y-105400000I0J-2000000D01*
G01*
X125000000Y-103400000D02*
G75*
G02X127000000Y-105400000I0J-2000000D01*
G01*
X137900000Y-103400000D02*
X132000000Y-103400000D01*
X137900000Y-103400000D02*
G75*
G02X139900000Y-105400000I0J-2000000D01*
G01*
X91300000Y-105400000D02*
G75*
G02X93300000Y-103400000I2000000J0D01*
G01*
X179100000Y-116400000D02*
X181100000Y-116400000D01*
X101200000Y-116900000D02*
G75*
G02X101700000Y-116400000I500000J0D01*
G01*
X91300000Y-127400000D02*
X101200000Y-127400000D01*
X112100000Y-103400000D02*
G75*
G02X114100000Y-105400000I0J-2000000D01*
G01*
X99200000Y-103400000D02*
G75*
G02X101200000Y-105400000I0J-2000000D01*
G01*
X140400000Y-114200000D02*
X142400000Y-114200000D01*
X125000000Y-103400000D02*
X119100000Y-103400000D01*
X99200000Y-103400000D02*
X93300000Y-103400000D01*
X114600000Y-116400000D02*
X116600000Y-116400000D01*
X179100000Y-114200000D02*
X181100000Y-114200000D01*
X101700000Y-114200000D02*
X103700000Y-114200000D01*
X166200000Y-114200000D02*
X168200000Y-114200000D01*
X127500000Y-114200000D02*
X129500000Y-114200000D01*
X116600000Y-116400000D02*
G75*
G02X117100000Y-116900000I0J-500000D01*
G01*
X142900000Y-113700000D02*
G75*
G02X142400000Y-114200000I-500000J0D01*
G01*
X176600000Y-103400000D02*
X170700000Y-103400000D01*
X127500000Y-116400000D02*
X129500000Y-116400000D01*
X117100000Y-113700000D02*
G75*
G02X116600000Y-114200000I-500000J0D01*
G01*
X91300000Y-113700000D02*
X91300000Y-105400000D01*
X166200000Y-116400000D02*
X168200000Y-116400000D01*
X91300000Y-113700000D02*
G75*
G02X90800000Y-114200000I-500000J0D01*
G01*
X150800000Y-103400000D02*
X144900000Y-103400000D01*
X91300000Y-116900000D02*
X91300000Y-127400000D01*
X88800000Y-116400000D02*
X90800000Y-116400000D01*
X155800000Y-113700000D02*
X155800000Y-105400000D01*
X101700000Y-116400000D02*
X103700000Y-116400000D01*
X168700000Y-113700000D02*
X168700000Y-105400000D01*
X114600000Y-114200000D02*
X116600000Y-114200000D01*
X104200000Y-113700000D02*
G75*
G02X103700000Y-114200000I-500000J0D01*
G01*
X88800000Y-114200000D02*
X90800000Y-114200000D01*
X101700000Y-114200000D02*
G75*
G02X101200000Y-113700000I0J500000D01*
G01*
X153300000Y-116400000D02*
X155300000Y-116400000D01*
X130000000Y-113700000D02*
G75*
G02X129500000Y-114200000I-500000J0D01*
G01*
X140400000Y-116400000D02*
X142400000Y-116400000D01*
X103700000Y-116400000D02*
G75*
G02X104200000Y-116900000I0J-500000D01*
G01*
X127000000Y-116900000D02*
X127000000Y-127400000D01*
X152800000Y-113700000D02*
X152800000Y-105400000D01*
X139900000Y-116900000D02*
X139900000Y-127400000D01*
X114100000Y-113700000D02*
X114100000Y-105400000D01*
X165700000Y-116900000D02*
X165700000Y-127400000D01*
X165700000Y-113700000D02*
X165700000Y-105400000D01*
X178600000Y-116900000D02*
G75*
G02X179100000Y-116400000I500000J0D01*
G01*
X168700000Y-113700000D02*
G75*
G02X168200000Y-114200000I-500000J0D01*
G01*
X139900000Y-113700000D02*
X139900000Y-105400000D01*
X114100000Y-116900000D02*
X114100000Y-127400000D01*
X165700000Y-116900000D02*
G75*
G02X166200000Y-116400000I500000J0D01*
G01*
X152800000Y-116900000D02*
X152800000Y-127400000D01*
X127000000Y-116900000D02*
G75*
G02X127500000Y-116400000I500000J0D01*
G01*
X130000000Y-105400000D02*
G75*
G02X132000000Y-103400000I2000000J0D01*
G01*
X155800000Y-105400000D02*
G75*
G02X157800000Y-103400000I2000000J0D01*
G01*
X178600000Y-116900000D02*
X178600000Y-127400000D01*
X178600000Y-113700000D02*
X178600000Y-105400000D01*
X152800000Y-116900000D02*
G75*
G02X153300000Y-116400000I500000J0D01*
G01*
X117100000Y-105400000D02*
G75*
G02X119100000Y-103400000I2000000J0D01*
G01*
X168700000Y-105400000D02*
G75*
G02X170700000Y-103400000I2000000J0D01*
G01*
X155800000Y-113700000D02*
G75*
G02X155300000Y-114200000I-500000J0D01*
G01*
X114100000Y-116900000D02*
G75*
G02X114600000Y-116400000I500000J0D01*
G01*
X127000000Y-113700000D02*
X127000000Y-105400000D01*
X129500000Y-116400000D02*
G75*
G02X130000000Y-116900000I0J-500000D01*
G01*
X117100000Y-127400000D02*
X127000000Y-127400000D01*
X168200000Y-116400000D02*
G75*
G02X168700000Y-116900000I0J-500000D01*
G01*
X130000000Y-113700000D02*
X130000000Y-105400000D01*
X142900000Y-113700000D02*
X142900000Y-105400000D01*
X155800000Y-127400000D02*
X165700000Y-127400000D01*
X142900000Y-127400000D02*
X152800000Y-127400000D01*
X117100000Y-113700000D02*
X117100000Y-105400000D01*
X142400000Y-116400000D02*
G75*
G02X142900000Y-116900000I0J-500000D01*
G01*
X168700000Y-127400000D02*
X178600000Y-127400000D01*
X104200000Y-113700000D02*
X104200000Y-105400000D01*
X155300000Y-116400000D02*
G75*
G02X155800000Y-116900000I0J-500000D01*
G01*
X104200000Y-127400000D02*
X114100000Y-127400000D01*
X130000000Y-127400000D02*
X139900000Y-127400000D01*
X114600000Y-114200000D02*
G75*
G02X114100000Y-113700000I0J500000D01*
G01*
X166200000Y-114200000D02*
G75*
G02X165700000Y-113700000I0J500000D01*
G01*
X139900000Y-116900000D02*
G75*
G02X140400000Y-116400000I500000J0D01*
G01*
X153300000Y-114200000D02*
G75*
G02X152800000Y-113700000I0J500000D01*
G01*
X179100000Y-114200000D02*
G75*
G02X178600000Y-113700000I0J500000D01*
G01*
X140400000Y-114200000D02*
G75*
G02X139900000Y-113700000I0J500000D01*
G01*
X127500000Y-114200000D02*
G75*
G02X127000000Y-113700000I0J500000D01*
G01*
X104200000Y-116900000D02*
X104200000Y-127400000D01*
X155800000Y-116900000D02*
X155800000Y-127400000D01*
X130000000Y-116900000D02*
X130000000Y-127400000D01*
X88800000Y-87200000D02*
G75*
G02X88300000Y-86700000I0J500000D01*
G01*
X88300000Y-89900000D02*
G75*
G02X88800000Y-89400000I500000J0D01*
G01*
X168200000Y-89400000D02*
G75*
G02X168700000Y-89900000I0J-500000D01*
G01*
X142900000Y-86700000D02*
X142900000Y-78400000D01*
X130000000Y-86700000D02*
X130000000Y-78400000D01*
X117100000Y-86700000D02*
X117100000Y-78400000D01*
X155300000Y-89400000D02*
G75*
G02X155800000Y-89900000I0J-500000D01*
G01*
X142400000Y-89400000D02*
G75*
G02X142900000Y-89900000I0J-500000D01*
G01*
X129500000Y-89400000D02*
G75*
G02X130000000Y-89900000I0J-500000D01*
G01*
X104200000Y-86700000D02*
X104200000Y-78400000D01*
X117100000Y-100400000D02*
X127000000Y-100400000D01*
X155800000Y-100400000D02*
X165700000Y-100400000D01*
X104200000Y-100400000D02*
X114100000Y-100400000D01*
X130000000Y-100400000D02*
X139900000Y-100400000D01*
X142900000Y-100400000D02*
X152800000Y-100400000D01*
X168700000Y-100400000D02*
X178600000Y-100400000D01*
X104200000Y-78400000D02*
G75*
G02X106200000Y-76400000I2000000J0D01*
G01*
X142900000Y-78400000D02*
G75*
G02X144900000Y-76400000I2000000J0D01*
G01*
X130000000Y-78400000D02*
G75*
G02X132000000Y-76400000I2000000J0D01*
G01*
X155800000Y-78400000D02*
G75*
G02X157800000Y-76400000I2000000J0D01*
G01*
X117100000Y-78400000D02*
G75*
G02X119100000Y-76400000I2000000J0D01*
G01*
X168700000Y-78400000D02*
G75*
G02X170700000Y-76400000I2000000J0D01*
G01*
X155800000Y-86700000D02*
G75*
G02X155300000Y-87200000I-500000J0D01*
G01*
X168700000Y-86700000D02*
G75*
G02X168200000Y-87200000I-500000J0D01*
G01*
X127000000Y-89900000D02*
X127000000Y-100400000D01*
X114100000Y-89900000D02*
X114100000Y-100400000D01*
X178600000Y-89900000D02*
X178600000Y-100400000D01*
X165700000Y-89900000D02*
X165700000Y-100400000D01*
X152800000Y-89900000D02*
X152800000Y-100400000D01*
X139900000Y-89900000D02*
X139900000Y-100400000D01*
X114100000Y-86700000D02*
X114100000Y-78400000D01*
X178600000Y-86700000D02*
X178600000Y-78400000D01*
X127000000Y-86700000D02*
X127000000Y-78400000D01*
X165700000Y-86700000D02*
X165700000Y-78400000D01*
X139900000Y-86700000D02*
X139900000Y-78400000D01*
X152800000Y-86700000D02*
X152800000Y-78400000D01*
X152800000Y-89900000D02*
G75*
G02X153300000Y-89400000I500000J0D01*
G01*
X114100000Y-89900000D02*
G75*
G02X114600000Y-89400000I500000J0D01*
G01*
X178600000Y-89900000D02*
G75*
G02X179100000Y-89400000I500000J0D01*
G01*
X127000000Y-89900000D02*
G75*
G02X127500000Y-89400000I500000J0D01*
G01*
X165700000Y-89900000D02*
G75*
G02X166200000Y-89400000I500000J0D01*
G01*
X139900000Y-89900000D02*
G75*
G02X140400000Y-89400000I500000J0D01*
G01*
X153300000Y-87200000D02*
G75*
G02X152800000Y-86700000I0J500000D01*
G01*
X140400000Y-87200000D02*
G75*
G02X139900000Y-86700000I0J500000D01*
G01*
X114600000Y-87200000D02*
G75*
G02X114100000Y-86700000I0J500000D01*
G01*
X166200000Y-87200000D02*
G75*
G02X165700000Y-86700000I0J500000D01*
G01*
X179100000Y-87200000D02*
G75*
G02X178600000Y-86700000I0J500000D01*
G01*
X127500000Y-87200000D02*
G75*
G02X127000000Y-86700000I0J500000D01*
G01*
X104200000Y-89900000D02*
X104200000Y-100400000D01*
X155800000Y-89900000D02*
X155800000Y-100400000D01*
X130000000Y-89900000D02*
X130000000Y-100400000D01*
X117100000Y-89900000D02*
X117100000Y-100400000D01*
X142900000Y-89900000D02*
X142900000Y-100400000D01*
X168700000Y-89900000D02*
X168700000Y-100400000D01*
X155800000Y-86700000D02*
X155800000Y-78400000D01*
X168700000Y-86700000D02*
X168700000Y-78400000D01*
X101700000Y-87200000D02*
X103700000Y-87200000D01*
X166200000Y-87200000D02*
X168200000Y-87200000D01*
X153300000Y-87200000D02*
X155300000Y-87200000D01*
X140400000Y-87200000D02*
X142400000Y-87200000D01*
X127500000Y-87200000D02*
X129500000Y-87200000D01*
X114600000Y-87200000D02*
X116600000Y-87200000D01*
X176600000Y-76400000D02*
G75*
G02X178600000Y-78400000I0J-2000000D01*
G01*
X137900000Y-76400000D02*
X132000000Y-76400000D01*
X116600000Y-89400000D02*
G75*
G02X117100000Y-89900000I0J-500000D01*
G01*
X103700000Y-89400000D02*
G75*
G02X104200000Y-89900000I0J-500000D01*
G01*
X112100000Y-76400000D02*
X106200000Y-76400000D01*
X125000000Y-76400000D02*
X119100000Y-76400000D01*
X163700000Y-76400000D02*
X157800000Y-76400000D01*
X176600000Y-76400000D02*
X170700000Y-76400000D01*
X150800000Y-76400000D02*
X144900000Y-76400000D01*
X153300000Y-89400000D02*
X155300000Y-89400000D01*
X127500000Y-89400000D02*
X129500000Y-89400000D01*
X114600000Y-89400000D02*
X116600000Y-89400000D01*
X101700000Y-89400000D02*
X103700000Y-89400000D01*
X140400000Y-89400000D02*
X142400000Y-89400000D01*
X166200000Y-89400000D02*
X168200000Y-89400000D01*
X142900000Y-86700000D02*
G75*
G02X142400000Y-87200000I-500000J0D01*
G01*
X130000000Y-86700000D02*
G75*
G02X129500000Y-87200000I-500000J0D01*
G01*
X104200000Y-86700000D02*
G75*
G02X103700000Y-87200000I-500000J0D01*
G01*
X117100000Y-86700000D02*
G75*
G02X116600000Y-87200000I-500000J0D01*
G01*
X163700000Y-76400000D02*
G75*
G02X165700000Y-78400000I0J-2000000D01*
G01*
X137900000Y-76400000D02*
G75*
G02X139900000Y-78400000I0J-2000000D01*
G01*
X150800000Y-76400000D02*
G75*
G02X152800000Y-78400000I0J-2000000D01*
G01*
X125000000Y-76400000D02*
G75*
G02X127000000Y-78400000I0J-2000000D01*
G01*
X112100000Y-76400000D02*
G75*
G02X114100000Y-78400000I0J-2000000D01*
G01*
X101700000Y-87200000D02*
G75*
G02X101200000Y-86700000I0J500000D01*
G01*
X91300000Y-89900000D02*
X91300000Y-100400000D01*
X101200000Y-89900000D02*
X101200000Y-100400000D01*
X91300000Y-100400000D02*
X101200000Y-100400000D01*
X88800000Y-87200000D02*
X90800000Y-87200000D01*
X91300000Y-86700000D02*
X91300000Y-78400000D01*
X90800000Y-89400000D02*
G75*
G02X91300000Y-89900000I0J-500000D01*
G01*
X99200000Y-76400000D02*
X93300000Y-76400000D01*
X101200000Y-86700000D02*
X101200000Y-78400000D01*
X88800000Y-89400000D02*
X90800000Y-89400000D01*
X101200000Y-89900000D02*
G75*
G02X101700000Y-89400000I500000J0D01*
G01*
X91300000Y-78400000D02*
G75*
G02X93300000Y-76400000I2000000J0D01*
G01*
X99200000Y-76400000D02*
G75*
G02X101200000Y-78400000I0J-2000000D01*
G01*
X91300000Y-86700000D02*
G75*
G02X90800000Y-87200000I-500000J0D01*
G01*
X179100000Y-87200000D02*
X181100000Y-87200000D01*
X179100000Y-89400000D02*
X181100000Y-89400000D01*
X179100000Y-60200000D02*
G75*
G02X178600000Y-59700000I0J500000D01*
G01*
X166200000Y-60200000D02*
G75*
G02X165700000Y-59700000I0J500000D01*
G01*
X153300000Y-60200000D02*
G75*
G02X152800000Y-59700000I0J500000D01*
G01*
X140400000Y-60200000D02*
G75*
G02X139900000Y-59700000I0J500000D01*
G01*
X127500000Y-60200000D02*
G75*
G02X127000000Y-59700000I0J500000D01*
G01*
X114600000Y-60200000D02*
G75*
G02X114100000Y-59700000I0J500000D01*
G01*
X168700000Y-62900000D02*
X168700000Y-73400000D01*
X155800000Y-62900000D02*
X155800000Y-73400000D01*
X142900000Y-62900000D02*
X142900000Y-73400000D01*
X130000000Y-62900000D02*
X130000000Y-73400000D01*
X117100000Y-62900000D02*
X117100000Y-73400000D01*
X104200000Y-62900000D02*
X104200000Y-73400000D01*
X178600000Y-62900000D02*
X178600000Y-73400000D01*
X165700000Y-62900000D02*
X165700000Y-73400000D01*
X152800000Y-62900000D02*
X152800000Y-73400000D01*
X139900000Y-62900000D02*
X139900000Y-73400000D01*
X127000000Y-62900000D02*
X127000000Y-73400000D01*
X114100000Y-62900000D02*
X114100000Y-73400000D01*
X168700000Y-73400000D02*
X178600000Y-73400000D01*
X155800000Y-73400000D02*
X165700000Y-73400000D01*
X142900000Y-73400000D02*
X152800000Y-73400000D01*
X130000000Y-73400000D02*
X139900000Y-73400000D01*
X117100000Y-73400000D02*
X127000000Y-73400000D01*
X104200000Y-73400000D02*
X114100000Y-73400000D01*
X166200000Y-60200000D02*
X168200000Y-60200000D01*
X153300000Y-60200000D02*
X155300000Y-60200000D01*
X140400000Y-60200000D02*
X142400000Y-60200000D01*
X127500000Y-60200000D02*
X129500000Y-60200000D01*
X114600000Y-60200000D02*
X116600000Y-60200000D01*
X101700000Y-60200000D02*
X103700000Y-60200000D01*
X168700000Y-59700000D02*
X168700000Y-51400000D01*
X155800000Y-59700000D02*
X155800000Y-51400000D01*
X142900000Y-59700000D02*
X142900000Y-51400000D01*
X130000000Y-59700000D02*
X130000000Y-51400000D01*
X117100000Y-59700000D02*
X117100000Y-51400000D01*
X104200000Y-59700000D02*
X104200000Y-51400000D01*
X168200000Y-62400000D02*
G75*
G02X168700000Y-62900000I0J-500000D01*
G01*
X155300000Y-62400000D02*
G75*
G02X155800000Y-62900000I0J-500000D01*
G01*
X142400000Y-62400000D02*
G75*
G02X142900000Y-62900000I0J-500000D01*
G01*
X129500000Y-62400000D02*
G75*
G02X130000000Y-62900000I0J-500000D01*
G01*
X116600000Y-62400000D02*
G75*
G02X117100000Y-62900000I0J-500000D01*
G01*
X103700000Y-62400000D02*
G75*
G02X104200000Y-62900000I0J-500000D01*
G01*
X176600000Y-49400000D02*
X170700000Y-49400000D01*
X163700000Y-49400000D02*
X157800000Y-49400000D01*
X150800000Y-49400000D02*
X144900000Y-49400000D01*
X137900000Y-49400000D02*
X132000000Y-49400000D01*
X125000000Y-49400000D02*
X119100000Y-49400000D01*
X112100000Y-49400000D02*
X106200000Y-49400000D01*
X178600000Y-59700000D02*
X178600000Y-51400000D01*
X165700000Y-59700000D02*
X165700000Y-51400000D01*
X152800000Y-59700000D02*
X152800000Y-51400000D01*
X139900000Y-59700000D02*
X139900000Y-51400000D01*
X127000000Y-59700000D02*
X127000000Y-51400000D01*
X114100000Y-59700000D02*
X114100000Y-51400000D01*
X166200000Y-62400000D02*
X168200000Y-62400000D01*
X153300000Y-62400000D02*
X155300000Y-62400000D01*
X140400000Y-62400000D02*
X142400000Y-62400000D01*
X127500000Y-62400000D02*
X129500000Y-62400000D01*
X114600000Y-62400000D02*
X116600000Y-62400000D01*
X101700000Y-62400000D02*
X103700000Y-62400000D01*
X178600000Y-62900000D02*
G75*
G02X179100000Y-62400000I500000J0D01*
G01*
X165700000Y-62900000D02*
G75*
G02X166200000Y-62400000I500000J0D01*
G01*
X152800000Y-62900000D02*
G75*
G02X153300000Y-62400000I500000J0D01*
G01*
X139900000Y-62900000D02*
G75*
G02X140400000Y-62400000I500000J0D01*
G01*
X127000000Y-62900000D02*
G75*
G02X127500000Y-62400000I500000J0D01*
G01*
X114100000Y-62900000D02*
G75*
G02X114600000Y-62400000I500000J0D01*
G01*
X168700000Y-51400000D02*
G75*
G02X170700000Y-49400000I2000000J0D01*
G01*
X155800000Y-51400000D02*
G75*
G02X157800000Y-49400000I2000000J0D01*
G01*
X142900000Y-51400000D02*
G75*
G02X144900000Y-49400000I2000000J0D01*
G01*
X130000000Y-51400000D02*
G75*
G02X132000000Y-49400000I2000000J0D01*
G01*
X117100000Y-51400000D02*
G75*
G02X119100000Y-49400000I2000000J0D01*
G01*
X104200000Y-51400000D02*
G75*
G02X106200000Y-49400000I2000000J0D01*
G01*
X176600000Y-49400000D02*
G75*
G02X178600000Y-51400000I0J-2000000D01*
G01*
X163700000Y-49400000D02*
G75*
G02X165700000Y-51400000I0J-2000000D01*
G01*
X150800000Y-49400000D02*
G75*
G02X152800000Y-51400000I0J-2000000D01*
G01*
X137900000Y-49400000D02*
G75*
G02X139900000Y-51400000I0J-2000000D01*
G01*
X125000000Y-49400000D02*
G75*
G02X127000000Y-51400000I0J-2000000D01*
G01*
X112100000Y-49400000D02*
G75*
G02X114100000Y-51400000I0J-2000000D01*
G01*
X168700000Y-59700000D02*
G75*
G02X168200000Y-60200000I-500000J0D01*
G01*
X155800000Y-59700000D02*
G75*
G02X155300000Y-60200000I-500000J0D01*
G01*
X142900000Y-59700000D02*
G75*
G02X142400000Y-60200000I-500000J0D01*
G01*
X130000000Y-59700000D02*
G75*
G02X129500000Y-60200000I-500000J0D01*
G01*
X117100000Y-59700000D02*
G75*
G02X116600000Y-60200000I-500000J0D01*
G01*
X104200000Y-59700000D02*
G75*
G02X103700000Y-60200000I-500000J0D01*
G01*
X91300000Y-130400000D02*
X88300000Y-130400000D01*
X181600000Y-116900000D02*
X181600000Y-127400000D01*
X181600000Y-127400000D02*
X181600000Y-130400000D01*
X181100000Y-116400000D02*
G75*
G02X181600000Y-116900000I0J-500000D01*
G01*
X181600000Y-130400000D02*
X91300000Y-130400000D01*
X88300000Y-130400000D02*
X88300000Y-116900000D01*
X179100000Y-62400000D02*
X181100000Y-62400000D01*
X181100000Y-89400000D02*
G75*
G02X181600000Y-89900000I0J-500000D01*
G01*
X181600000Y-89900000D02*
X181600000Y-113700000D01*
X101200000Y-62900000D02*
G75*
G02X101700000Y-62400000I500000J0D01*
G01*
X181600000Y-62900000D02*
X181600000Y-86700000D01*
X88300000Y-62900000D02*
G75*
G02X88800000Y-62400000I500000J0D01*
G01*
X181600000Y-86700000D02*
G75*
G02X181100000Y-87200000I-500000J0D01*
G01*
X181600000Y-113700000D02*
G75*
G02X181100000Y-114200000I-500000J0D01*
G01*
X88800000Y-62400000D02*
X90800000Y-62400000D01*
X181100000Y-62400000D02*
G75*
G02X181600000Y-62900000I0J-500000D01*
G01*
X88300000Y-113700000D02*
X88300000Y-89900000D01*
X90800000Y-62400000D02*
G75*
G02X91300000Y-62900000I0J-500000D01*
G01*
X88300000Y-86700000D02*
X88300000Y-62900000D01*
X91300000Y-73400000D02*
X101200000Y-73400000D01*
X101200000Y-62900000D02*
X101200000Y-73400000D01*
X91300000Y-62900000D02*
X91300000Y-73400000D01*
X179100000Y-60200000D02*
X181100000Y-60200000D01*
X88300000Y-49400000D02*
X88300000Y-46400000D01*
X181600000Y-46400000D02*
X181600000Y-59700000D01*
X91300000Y-59700000D02*
G75*
G02X90800000Y-60200000I-500000J0D01*
G01*
X99200000Y-49400000D02*
G75*
G02X101200000Y-51400000I0J-2000000D01*
G01*
X91300000Y-51400000D02*
G75*
G02X93300000Y-49400000I2000000J0D01*
G01*
X88800000Y-60200000D02*
G75*
G02X88300000Y-59700000I0J500000D01*
G01*
X181600000Y-59700000D02*
G75*
G02X181100000Y-60200000I-500000J0D01*
G01*
X178200000Y-46400000D02*
X181600000Y-46400000D01*
X101200000Y-59700000D02*
X101200000Y-51400000D01*
X99200000Y-49400000D02*
X93300000Y-49400000D01*
X91300000Y-59700000D02*
X91300000Y-51400000D01*
X88300000Y-50100000D02*
X88300000Y-49400000D01*
X88300000Y-59700000D02*
X88300000Y-50100000D01*
X88800000Y-60200000D02*
X90800000Y-60200000D01*
X88300000Y-46400000D02*
X178200000Y-46400000D01*
X101700000Y-60200000D02*
G75*
G02X101200000Y-59700000I0J500000D01*
G01*
X85000000Y-38400000D02*
X85000000Y-138400000D01*
X185000000Y-38400000D02*
X85000000Y-38400000D01*
X185000000Y-138400000D02*
X185000000Y-38400000D01*
X85000000Y-138400000D02*
X185000000Y-138400000D01*
M02*
