M48
; DRILL file {KiCad (5.1.5)-3} date 10-Jun-20 8:11:41 AM
; FORMAT={-:-/ absolute / inch / decimal}
; #@! TF.CreationDate,2020-06-10T08:11:41+03:00
; #@! TF.GenerationSoftware,Kicad,Pcbnew,(5.1.5)-3
; #@! TF.FileFunction,NonPlated,1,2,NPTH
FMAT,2
INCH
T1C0.0197
T2C0.0984
%
G90
G05
T1
X5.5157Y-2.3819
X5.5157Y-2.4134
X5.5157Y-2.4449
X5.6181Y-2.3819
X5.6181Y-2.4134
X5.6181Y-2.4449
X7.0394Y-2.3819
X7.0394Y-2.4134
X7.0394Y-2.4449
X7.1417Y-2.3819
X7.1417Y-2.4134
X7.1417Y-2.4449
X6.0236Y-2.3819
X6.0236Y-2.4134
X6.0236Y-2.4449
X6.126Y-2.3819
X6.126Y-2.4134
X6.126Y-2.4449
X3.4843Y-2.3819
X3.4843Y-2.4134
X3.4843Y-2.4449
X3.5866Y-2.3819
X3.5866Y-2.4134
X3.5866Y-2.4449
X7.0394Y-3.4449
X7.0394Y-3.4764
X7.0394Y-3.5079
X7.1417Y-3.4449
X7.1417Y-3.4764
X7.1417Y-3.5079
X4.5Y-3.4449
X4.5Y-3.4764
X4.5Y-3.5079
X4.6024Y-3.4449
X4.6024Y-3.4764
X4.6024Y-3.5079
X5.5157Y-4.5079
X5.5157Y-4.5394
X5.5157Y-4.5709
X5.6181Y-4.5079
X5.6181Y-4.5394
X5.6181Y-4.5709
X6.5315Y-3.4449
X6.5315Y-3.4764
X6.5315Y-3.5079
X6.6339Y-3.4449
X6.6339Y-3.4764
X6.6339Y-3.5079
X5.0079Y-2.3819
X5.0079Y-2.4134
X5.0079Y-2.4449
X5.1102Y-2.3819
X5.1102Y-2.4134
X5.1102Y-2.4449
X5.0079Y-4.5079
X5.0079Y-4.5394
X5.0079Y-4.5709
X5.1102Y-4.5079
X5.1102Y-4.5394
X5.1102Y-4.5709
X5.0079Y-3.4449
X5.0079Y-3.4764
X5.0079Y-3.5079
X5.1102Y-3.4449
X5.1102Y-3.4764
X5.1102Y-3.5079
X6.5315Y-2.3819
X6.5315Y-2.4134
X6.5315Y-2.4449
X6.6339Y-2.3819
X6.6339Y-2.4134
X6.6339Y-2.4449
X7.0394Y-4.5079
X7.0394Y-4.5394
X7.0394Y-4.5709
X7.1417Y-4.5079
X7.1417Y-4.5394
X7.1417Y-4.5709
X6.0236Y-4.5079
X6.0236Y-4.5394
X6.0236Y-4.5709
X6.126Y-4.5079
X6.126Y-4.5394
X6.126Y-4.5709
X3.9921Y-3.4449
X3.9921Y-3.4764
X3.9921Y-3.5079
X4.0945Y-3.4449
X4.0945Y-3.4764
X4.0945Y-3.5079
X3.4843Y-3.4449
X3.4843Y-3.4764
X3.4843Y-3.5079
X3.5866Y-3.4449
X3.5866Y-3.4764
X3.5866Y-3.5079
X3.9921Y-2.3819
X3.9921Y-2.4134
X3.9921Y-2.4449
X4.0945Y-2.3819
X4.0945Y-2.4134
X4.0945Y-2.4449
X3.9921Y-4.5079
X3.9921Y-4.5394
X3.9921Y-4.5709
X4.0945Y-4.5079
X4.0945Y-4.5394
X4.0945Y-4.5709
X5.5157Y-3.4449
X5.5157Y-3.4764
X5.5157Y-3.5079
X5.6181Y-3.4449
X5.6181Y-3.4764
X5.6181Y-3.5079
X4.5Y-2.3819
X4.5Y-2.4134
X4.5Y-2.4449
X4.6024Y-2.3819
X4.6024Y-2.4134
X4.6024Y-2.4449
X3.4843Y-4.5079
X3.4843Y-4.5394
X3.4843Y-4.5709
X3.5866Y-4.5079
X3.5866Y-4.5394
X3.5866Y-4.5709
X4.5Y-4.5079
X4.5Y-4.5394
X4.5Y-4.5709
X4.6024Y-4.5079
X4.6024Y-4.5394
X4.6024Y-4.5709
X6.5315Y-4.5079
X6.5315Y-4.5394
X6.5315Y-4.5709
X6.6339Y-4.5079
X6.6339Y-4.5394
X6.6339Y-4.5709
X6.0236Y-3.4449
X6.0236Y-3.4764
X6.0236Y-3.5079
X6.126Y-3.4449
X6.126Y-3.4764
X6.126Y-3.5079
T2
X3.5039Y-1.6693
X7.126Y-1.6693
X7.126Y-5.2913
X3.5039Y-5.2913
T0
M30
