M48
; DRILL file {KiCad (5.1.5)-3} date 10-Jun-20 8:11:41 AM
; FORMAT={-:-/ absolute / inch / decimal}
; #@! TF.CreationDate,2020-06-10T08:11:41+03:00
; #@! TF.GenerationSoftware,Kicad,Pcbnew,(5.1.5)-3
; #@! TF.FileFunction,Plated,1,2,PTH
FMAT,2
INCH
T1C0.0157
%
G90
G05
T1
X3.6654Y-2.6142
X3.6654Y-2.6535
X3.6654Y-2.6929
X3.6654Y-2.7323
X3.6654Y-2.7717
X3.6654Y-2.811
X3.6654Y-2.8504
X3.6654Y-3.6772
X3.6654Y-3.7165
X3.6654Y-3.7559
X3.6654Y-3.7953
X3.6654Y-3.8346
X3.6654Y-3.874
X3.6654Y-3.9134
X3.6654Y-4.7402
X3.6654Y-4.7795
X3.6654Y-4.8189
X3.6654Y-4.8583
X3.6654Y-4.8976
X3.6654Y-4.937
X3.6654Y-4.9764
X3.874Y-2.1024
X3.874Y-2.1417
X3.874Y-2.1811
X3.874Y-3.1654
X3.874Y-3.2047
X3.874Y-3.2441
X3.874Y-4.2283
X3.874Y-4.2677
X3.874Y-4.3071
X3.9134Y-2.1024
X3.9134Y-2.1417
X3.9134Y-2.1811
X3.9134Y-2.4567
X3.9134Y-2.4961
X3.9134Y-2.5315
X3.9134Y-2.6142
X3.9134Y-2.6535
X3.9134Y-2.6929
X3.9134Y-2.7323
X3.9134Y-2.7717
X3.9134Y-2.811
X3.9134Y-2.8504
X3.9134Y-3.1654
X3.9134Y-3.2047
X3.9134Y-3.2441
X3.9134Y-3.5197
X3.9134Y-3.5591
X3.9134Y-3.5945
X3.9134Y-3.6772
X3.9134Y-3.7165
X3.9134Y-3.7559
X3.9134Y-3.7953
X3.9134Y-3.8346
X3.9134Y-3.874
X3.9134Y-3.9134
X3.9134Y-4.2283
X3.9134Y-4.2677
X3.9134Y-4.3071
X3.9134Y-4.5827
X3.9134Y-4.622
X3.9134Y-4.6575
X3.9134Y-4.7402
X3.9134Y-4.7795
X3.9134Y-4.8189
X3.9134Y-4.8583
X3.9134Y-4.8976
X3.9134Y-4.937
X3.9134Y-4.9764
X3.9528Y-2.1024
X3.9528Y-2.1417
X3.9528Y-2.1811
X3.9528Y-3.1654
X3.9528Y-3.2047
X3.9528Y-3.2441
X3.9528Y-4.2283
X3.9528Y-4.2677
X3.9528Y-4.3071
X4.1732Y-2.6142
X4.1732Y-2.6535
X4.1732Y-2.6929
X4.1732Y-2.7323
X4.1732Y-2.7717
X4.1732Y-2.811
X4.1732Y-2.8504
X4.1732Y-3.6772
X4.1732Y-3.7165
X4.1732Y-3.7559
X4.1732Y-3.7953
X4.1732Y-3.8346
X4.1732Y-3.874
X4.1732Y-3.9134
X4.1732Y-4.7402
X4.1732Y-4.7795
X4.1732Y-4.8189
X4.1732Y-4.8583
X4.1732Y-4.8976
X4.1732Y-4.937
X4.1732Y-4.9764
X4.3819Y-2.1024
X4.3819Y-2.1417
X4.3819Y-2.1811
X4.3819Y-3.1654
X4.3819Y-3.2047
X4.3819Y-3.2441
X4.3819Y-4.2283
X4.3819Y-4.2677
X4.3819Y-4.3071
X4.4213Y-2.1024
X4.4213Y-2.1417
X4.4213Y-2.1811
X4.4213Y-2.4567
X4.4213Y-2.4961
X4.4213Y-2.5315
X4.4213Y-2.6142
X4.4213Y-2.6535
X4.4213Y-2.6929
X4.4213Y-2.7323
X4.4213Y-2.7717
X4.4213Y-2.811
X4.4213Y-2.8504
X4.4213Y-3.1654
X4.4213Y-3.2047
X4.4213Y-3.2441
X4.4213Y-3.5197
X4.4213Y-3.5591
X4.4213Y-3.5945
X4.4213Y-3.6772
X4.4213Y-3.7165
X4.4213Y-3.7559
X4.4213Y-3.7953
X4.4213Y-3.8346
X4.4213Y-3.874
X4.4213Y-3.9134
X4.4213Y-4.2283
X4.4213Y-4.2677
X4.4213Y-4.3071
X4.4213Y-4.5827
X4.4213Y-4.622
X4.4213Y-4.6575
X4.4213Y-4.7402
X4.4213Y-4.7795
X4.4213Y-4.8189
X4.4213Y-4.8583
X4.4213Y-4.8976
X4.4213Y-4.937
X4.4213Y-4.9764
X4.4606Y-2.1024
X4.4606Y-2.1417
X4.4606Y-2.1811
X4.4606Y-3.1654
X4.4606Y-3.2047
X4.4606Y-3.2441
X4.4606Y-4.2283
X4.4606Y-4.2677
X4.4606Y-4.3071
X4.6811Y-2.6142
X4.6811Y-2.6535
X4.6811Y-2.6929
X4.6811Y-2.7323
X4.6811Y-2.7717
X4.6811Y-2.811
X4.6811Y-2.8504
X4.6811Y-3.6772
X4.6811Y-3.7165
X4.6811Y-3.7559
X4.6811Y-3.7953
X4.6811Y-3.8346
X4.6811Y-3.874
X4.6811Y-3.9134
X4.6811Y-4.7402
X4.6811Y-4.7795
X4.6811Y-4.8189
X4.6811Y-4.8583
X4.6811Y-4.8976
X4.6811Y-4.937
X4.6811Y-4.9764
X4.8898Y-2.1024
X4.8898Y-2.1417
X4.8898Y-2.1811
X4.8898Y-3.1654
X4.8898Y-3.2047
X4.8898Y-3.2441
X4.8898Y-4.2283
X4.8898Y-4.2677
X4.8898Y-4.3071
X4.9291Y-2.1024
X4.9291Y-2.1417
X4.9291Y-2.1811
X4.9291Y-2.4567
X4.9291Y-2.4961
X4.9291Y-2.5315
X4.9291Y-2.6142
X4.9291Y-2.6535
X4.9291Y-2.6929
X4.9291Y-2.7323
X4.9291Y-2.7717
X4.9291Y-2.811
X4.9291Y-2.8504
X4.9291Y-3.1654
X4.9291Y-3.2047
X4.9291Y-3.2441
X4.9291Y-3.5197
X4.9291Y-3.5591
X4.9291Y-3.5945
X4.9291Y-3.6772
X4.9291Y-3.7165
X4.9291Y-3.7559
X4.9291Y-3.7953
X4.9291Y-3.8346
X4.9291Y-3.874
X4.9291Y-3.9134
X4.9291Y-4.2283
X4.9291Y-4.2677
X4.9291Y-4.3071
X4.9291Y-4.5827
X4.9291Y-4.622
X4.9291Y-4.6575
X4.9291Y-4.7402
X4.9291Y-4.7795
X4.9291Y-4.8189
X4.9291Y-4.8583
X4.9291Y-4.8976
X4.9291Y-4.937
X4.9291Y-4.9764
X4.9685Y-2.1024
X4.9685Y-2.1417
X4.9685Y-2.1811
X4.9685Y-3.1654
X4.9685Y-3.2047
X4.9685Y-3.2441
X4.9685Y-4.2283
X4.9685Y-4.2677
X4.9685Y-4.3071
X5.189Y-2.6142
X5.189Y-2.6535
X5.189Y-2.6929
X5.189Y-2.7323
X5.189Y-2.7717
X5.189Y-2.811
X5.189Y-2.8504
X5.189Y-3.6772
X5.189Y-3.7165
X5.189Y-3.7559
X5.189Y-3.7953
X5.189Y-3.8346
X5.189Y-3.874
X5.189Y-3.9134
X5.189Y-4.7402
X5.189Y-4.7795
X5.189Y-4.8189
X5.189Y-4.8583
X5.189Y-4.8976
X5.189Y-4.937
X5.189Y-4.9764
X5.3976Y-2.1024
X5.3976Y-2.1417
X5.3976Y-2.1811
X5.3976Y-3.1654
X5.3976Y-3.2047
X5.3976Y-3.2441
X5.3976Y-4.2283
X5.3976Y-4.2677
X5.3976Y-4.3071
X5.437Y-2.1024
X5.437Y-2.1417
X5.437Y-2.1811
X5.437Y-2.4567
X5.437Y-2.4961
X5.437Y-2.5315
X5.437Y-2.6142
X5.437Y-2.6535
X5.437Y-2.6929
X5.437Y-2.7323
X5.437Y-2.7717
X5.437Y-2.811
X5.437Y-2.8504
X5.437Y-3.1654
X5.437Y-3.2047
X5.437Y-3.2441
X5.437Y-3.5197
X5.437Y-3.5591
X5.437Y-3.5945
X5.437Y-3.6772
X5.437Y-3.7165
X5.437Y-3.7559
X5.437Y-3.7953
X5.437Y-3.8346
X5.437Y-3.874
X5.437Y-3.9134
X5.437Y-4.2283
X5.437Y-4.2677
X5.437Y-4.3071
X5.437Y-4.5827
X5.437Y-4.622
X5.437Y-4.6575
X5.437Y-4.7402
X5.437Y-4.7795
X5.437Y-4.8189
X5.437Y-4.8583
X5.437Y-4.8976
X5.437Y-4.937
X5.437Y-4.9764
X5.4764Y-2.1024
X5.4764Y-2.1417
X5.4764Y-2.1811
X5.4764Y-3.1654
X5.4764Y-3.2047
X5.4764Y-3.2441
X5.4764Y-4.2283
X5.4764Y-4.2677
X5.4764Y-4.3071
X5.6969Y-2.6142
X5.6969Y-2.6535
X5.6969Y-2.6929
X5.6969Y-2.7323
X5.6969Y-2.7717
X5.6969Y-2.811
X5.6969Y-2.8504
X5.6969Y-3.6772
X5.6969Y-3.7165
X5.6969Y-3.7559
X5.6969Y-3.7953
X5.6969Y-3.8346
X5.6969Y-3.874
X5.6969Y-3.9134
X5.6969Y-4.7402
X5.6969Y-4.7795
X5.6969Y-4.8189
X5.6969Y-4.8583
X5.6969Y-4.8976
X5.6969Y-4.937
X5.6969Y-4.9764
X5.9055Y-2.1024
X5.9055Y-2.1417
X5.9055Y-2.1811
X5.9055Y-3.1654
X5.9055Y-3.2047
X5.9055Y-3.2441
X5.9055Y-4.2283
X5.9055Y-4.2677
X5.9055Y-4.3071
X5.9449Y-2.1024
X5.9449Y-2.1417
X5.9449Y-2.1811
X5.9449Y-2.4567
X5.9449Y-2.4961
X5.9449Y-2.5315
X5.9449Y-2.6142
X5.9449Y-2.6535
X5.9449Y-2.6929
X5.9449Y-2.7323
X5.9449Y-2.7717
X5.9449Y-2.811
X5.9449Y-2.8504
X5.9449Y-3.1654
X5.9449Y-3.2047
X5.9449Y-3.2441
X5.9449Y-3.5197
X5.9449Y-3.5591
X5.9449Y-3.5945
X5.9449Y-3.6772
X5.9449Y-3.7165
X5.9449Y-3.7559
X5.9449Y-3.7953
X5.9449Y-3.8346
X5.9449Y-3.874
X5.9449Y-3.9134
X5.9449Y-4.2283
X5.9449Y-4.2677
X5.9449Y-4.3071
X5.9449Y-4.5827
X5.9449Y-4.622
X5.9449Y-4.6575
X5.9449Y-4.7402
X5.9449Y-4.7795
X5.9449Y-4.8189
X5.9449Y-4.8583
X5.9449Y-4.8976
X5.9449Y-4.937
X5.9449Y-4.9764
X5.9843Y-2.1024
X5.9843Y-2.1417
X5.9843Y-2.1811
X5.9843Y-3.1654
X5.9843Y-3.2047
X5.9843Y-3.2441
X5.9843Y-4.2283
X5.9843Y-4.2677
X5.9843Y-4.3071
X6.2047Y-2.6142
X6.2047Y-2.6535
X6.2047Y-2.6929
X6.2047Y-2.7323
X6.2047Y-2.7717
X6.2047Y-2.811
X6.2047Y-2.8504
X6.2047Y-3.6772
X6.2047Y-3.7165
X6.2047Y-3.7559
X6.2047Y-3.7953
X6.2047Y-3.8346
X6.2047Y-3.874
X6.2047Y-3.9134
X6.2047Y-4.7402
X6.2047Y-4.7795
X6.2047Y-4.8189
X6.2047Y-4.8583
X6.2047Y-4.8976
X6.2047Y-4.937
X6.2047Y-4.9764
X6.4134Y-2.1024
X6.4134Y-2.1417
X6.4134Y-2.1811
X6.4134Y-3.1654
X6.4134Y-3.2047
X6.4134Y-3.2441
X6.4134Y-4.2283
X6.4134Y-4.2677
X6.4134Y-4.3071
X6.4528Y-2.1024
X6.4528Y-2.1417
X6.4528Y-2.1811
X6.4528Y-2.4567
X6.4528Y-2.4961
X6.4528Y-2.5315
X6.4528Y-2.6142
X6.4528Y-2.6535
X6.4528Y-2.6929
X6.4528Y-2.7323
X6.4528Y-2.7717
X6.4528Y-2.811
X6.4528Y-2.8504
X6.4528Y-3.1654
X6.4528Y-3.2047
X6.4528Y-3.2441
X6.4528Y-3.5197
X6.4528Y-3.5591
X6.4528Y-3.5945
X6.4528Y-3.6772
X6.4528Y-3.7165
X6.4528Y-3.7559
X6.4528Y-3.7953
X6.4528Y-3.8346
X6.4528Y-3.874
X6.4528Y-3.9134
X6.4528Y-4.2283
X6.4528Y-4.2677
X6.4528Y-4.3071
X6.4528Y-4.5827
X6.4528Y-4.622
X6.4528Y-4.6575
X6.4528Y-4.7402
X6.4528Y-4.7795
X6.4528Y-4.8189
X6.4528Y-4.8583
X6.4528Y-4.8976
X6.4528Y-4.937
X6.4528Y-4.9764
X6.4921Y-2.1024
X6.4921Y-2.1417
X6.4921Y-2.1811
X6.4921Y-3.1654
X6.4921Y-3.2047
X6.4921Y-3.2441
X6.4921Y-4.2283
X6.4921Y-4.2677
X6.4921Y-4.3071
X6.7126Y-2.6142
X6.7126Y-2.6535
X6.7126Y-2.6929
X6.7126Y-2.7323
X6.7126Y-2.7717
X6.7126Y-2.811
X6.7126Y-2.8504
X6.7126Y-3.6772
X6.7126Y-3.7165
X6.7126Y-3.7559
X6.7126Y-3.7953
X6.7126Y-3.8346
X6.7126Y-3.874
X6.7126Y-3.9134
X6.7126Y-4.7402
X6.7126Y-4.7795
X6.7126Y-4.8189
X6.7126Y-4.8583
X6.7126Y-4.8976
X6.7126Y-4.937
X6.7126Y-4.9764
X6.9213Y-2.1024
X6.9213Y-2.1417
X6.9213Y-2.1811
X6.9213Y-3.1654
X6.9213Y-3.2047
X6.9213Y-3.2441
X6.9213Y-4.2283
X6.9213Y-4.2677
X6.9213Y-4.3071
X6.9606Y-2.1024
X6.9606Y-2.1417
X6.9606Y-2.1811
X6.9606Y-2.4567
X6.9606Y-2.4961
X6.9606Y-2.5315
X6.9606Y-2.6142
X6.9606Y-2.6535
X6.9606Y-2.6929
X6.9606Y-2.7323
X6.9606Y-2.7717
X6.9606Y-2.811
X6.9606Y-2.8504
X6.9606Y-3.1654
X6.9606Y-3.2047
X6.9606Y-3.2441
X6.9606Y-3.5197
X6.9606Y-3.5591
X6.9606Y-3.5945
X6.9606Y-3.6772
X6.9606Y-3.7165
X6.9606Y-3.7559
X6.9606Y-3.7953
X6.9606Y-3.8346
X6.9606Y-3.874
X6.9606Y-3.9134
X6.9606Y-4.2283
X6.9606Y-4.2677
X6.9606Y-4.3071
X6.9606Y-4.5827
X6.9606Y-4.622
X6.9606Y-4.6575
X6.9606Y-4.7402
X6.9606Y-4.7795
X6.9606Y-4.8189
X6.9606Y-4.8583
X6.9606Y-4.8976
X6.9606Y-4.937
X6.9606Y-4.9764
X7.0Y-2.1024
X7.0Y-2.1417
X7.0Y-2.1811
X7.0Y-3.1654
X7.0Y-3.2047
X7.0Y-3.2441
X7.0Y-4.2283
X7.0Y-4.2677
X7.0Y-4.3071
T0
M30
