G04 #@! TF.GenerationSoftware,KiCad,Pcbnew,(5.1.5)-3*
G04 #@! TF.CreationDate,2020-06-10T08:11:37+03:00*
G04 #@! TF.ProjectId,noname,6e6f6e61-6d65-42e6-9b69-6361645f7063,rev?*
G04 #@! TF.SameCoordinates,Original*
G04 #@! TF.FileFunction,Legend,Top*
G04 #@! TF.FilePolarity,Positive*
%FSLAX46Y46*%
G04 Gerber Fmt 4.6, Leading zero omitted, Abs format (unit mm)*
G04 Created by KiCad (PCBNEW (5.1.5)-3) date 2020-06-10 08:11:37*
%MOMM*%
%LPD*%
G04 APERTURE LIST*
%ADD10C,0.150000*%
%ADD11C,0.120000*%
G04 APERTURE END LIST*
D10*
X86592857Y-119685714D02*
X86592857Y-120185714D01*
X87378571Y-120185714D02*
X85878571Y-120185714D01*
X85878571Y-119471428D01*
X87378571Y-118042857D02*
X86664285Y-118542857D01*
X87378571Y-118900000D02*
X85878571Y-118900000D01*
X85878571Y-118328571D01*
X85950000Y-118185714D01*
X86021428Y-118114285D01*
X86164285Y-118042857D01*
X86378571Y-118042857D01*
X86521428Y-118114285D01*
X86592857Y-118185714D01*
X86664285Y-118328571D01*
X86664285Y-118900000D01*
X86378571Y-116757142D02*
X87378571Y-116757142D01*
X85807142Y-117114285D02*
X86878571Y-117471428D01*
X86878571Y-116542857D01*
X87307142Y-115900000D02*
X87378571Y-115900000D01*
X87521428Y-115971428D01*
X87592857Y-116042857D01*
X86021428Y-114185714D02*
X85950000Y-114114285D01*
X85878571Y-113971428D01*
X85878571Y-113614285D01*
X85950000Y-113471428D01*
X86021428Y-113400000D01*
X86164285Y-113328571D01*
X86307142Y-113328571D01*
X86521428Y-113400000D01*
X87378571Y-114257142D01*
X87378571Y-113328571D01*
X87235714Y-112685714D02*
X87307142Y-112614285D01*
X87378571Y-112685714D01*
X87307142Y-112757142D01*
X87235714Y-112685714D01*
X87378571Y-112685714D01*
X85878571Y-111685714D02*
X85878571Y-111542857D01*
X85950000Y-111400000D01*
X86021428Y-111328571D01*
X86164285Y-111257142D01*
X86450000Y-111185714D01*
X86807142Y-111185714D01*
X87092857Y-111257142D01*
X87235714Y-111328571D01*
X87307142Y-111400000D01*
X87378571Y-111542857D01*
X87378571Y-111685714D01*
X87307142Y-111828571D01*
X87235714Y-111900000D01*
X87092857Y-111971428D01*
X86807142Y-112042857D01*
X86450000Y-112042857D01*
X86164285Y-111971428D01*
X86021428Y-111900000D01*
X85950000Y-111828571D01*
X85878571Y-111685714D01*
X87378571Y-110542857D02*
X86378571Y-110542857D01*
X86521428Y-110542857D02*
X86450000Y-110471428D01*
X86378571Y-110328571D01*
X86378571Y-110114285D01*
X86450000Y-109971428D01*
X86592857Y-109900000D01*
X87378571Y-109900000D01*
X86592857Y-109900000D02*
X86450000Y-109828571D01*
X86378571Y-109685714D01*
X86378571Y-109471428D01*
X86450000Y-109328571D01*
X86592857Y-109257142D01*
X87378571Y-109257142D01*
X87378571Y-108542857D02*
X86378571Y-108542857D01*
X86521428Y-108542857D02*
X86450000Y-108471428D01*
X86378571Y-108328571D01*
X86378571Y-108114285D01*
X86450000Y-107971428D01*
X86592857Y-107900000D01*
X87378571Y-107900000D01*
X86592857Y-107900000D02*
X86450000Y-107828571D01*
X86378571Y-107685714D01*
X86378571Y-107471428D01*
X86450000Y-107328571D01*
X86592857Y-107257142D01*
X87378571Y-107257142D01*
X86378571Y-105614285D02*
X86378571Y-105042857D01*
X85878571Y-105400000D02*
X87164285Y-105400000D01*
X87307142Y-105328571D01*
X87378571Y-105185714D01*
X87378571Y-105042857D01*
X87378571Y-104542857D02*
X85878571Y-104542857D01*
X87378571Y-103900000D02*
X86592857Y-103900000D01*
X86450000Y-103971428D01*
X86378571Y-104114285D01*
X86378571Y-104328571D01*
X86450000Y-104471428D01*
X86521428Y-104542857D01*
X87378571Y-103185714D02*
X86378571Y-103185714D01*
X85878571Y-103185714D02*
X85950000Y-103257142D01*
X86021428Y-103185714D01*
X85950000Y-103114285D01*
X85878571Y-103185714D01*
X86021428Y-103185714D01*
X87307142Y-101828571D02*
X87378571Y-101971428D01*
X87378571Y-102257142D01*
X87307142Y-102400000D01*
X87235714Y-102471428D01*
X87092857Y-102542857D01*
X86664285Y-102542857D01*
X86521428Y-102471428D01*
X86450000Y-102400000D01*
X86378571Y-102257142D01*
X86378571Y-101971428D01*
X86450000Y-101828571D01*
X87378571Y-101185714D02*
X85878571Y-101185714D01*
X86807142Y-101042857D02*
X87378571Y-100614285D01*
X86378571Y-100614285D02*
X86950000Y-101185714D01*
X87307142Y-99900000D02*
X87378571Y-99900000D01*
X87521428Y-99971428D01*
X87592857Y-100042857D01*
X86021428Y-98185714D02*
X85950000Y-98114285D01*
X85878571Y-97971428D01*
X85878571Y-97614285D01*
X85950000Y-97471428D01*
X86021428Y-97400000D01*
X86164285Y-97328571D01*
X86307142Y-97328571D01*
X86521428Y-97400000D01*
X87378571Y-98257142D01*
X87378571Y-97328571D01*
X87378571Y-96471428D02*
X87307142Y-96614285D01*
X87235714Y-96685714D01*
X87092857Y-96757142D01*
X86664285Y-96757142D01*
X86521428Y-96685714D01*
X86450000Y-96614285D01*
X86378571Y-96471428D01*
X86378571Y-96257142D01*
X86450000Y-96114285D01*
X86521428Y-96042857D01*
X86664285Y-95971428D01*
X87092857Y-95971428D01*
X87235714Y-96042857D01*
X87307142Y-96114285D01*
X87378571Y-96257142D01*
X87378571Y-96471428D01*
X86378571Y-95471428D02*
X86378571Y-94685714D01*
X87378571Y-95471428D01*
X87378571Y-94685714D01*
X87307142Y-92328571D02*
X87378571Y-92471428D01*
X87378571Y-92757142D01*
X87307142Y-92900000D01*
X87235714Y-92971428D01*
X87092857Y-93042857D01*
X86664285Y-93042857D01*
X86521428Y-92971428D01*
X86450000Y-92900000D01*
X86378571Y-92757142D01*
X86378571Y-92471428D01*
X86450000Y-92328571D01*
X87378571Y-91471428D02*
X87307142Y-91614285D01*
X87235714Y-91685714D01*
X87092857Y-91757142D01*
X86664285Y-91757142D01*
X86521428Y-91685714D01*
X86450000Y-91614285D01*
X86378571Y-91471428D01*
X86378571Y-91257142D01*
X86450000Y-91114285D01*
X86521428Y-91042857D01*
X86664285Y-90971428D01*
X87092857Y-90971428D01*
X87235714Y-91042857D01*
X87307142Y-91114285D01*
X87378571Y-91257142D01*
X87378571Y-91471428D01*
X86378571Y-90328571D02*
X87878571Y-90328571D01*
X86450000Y-90328571D02*
X86378571Y-90185714D01*
X86378571Y-89900000D01*
X86450000Y-89757142D01*
X86521428Y-89685714D01*
X86664285Y-89614285D01*
X87092857Y-89614285D01*
X87235714Y-89685714D01*
X87307142Y-89757142D01*
X87378571Y-89900000D01*
X87378571Y-90185714D01*
X87307142Y-90328571D01*
X86378571Y-88971428D02*
X87878571Y-88971428D01*
X86450000Y-88971428D02*
X86378571Y-88828571D01*
X86378571Y-88542857D01*
X86450000Y-88400000D01*
X86521428Y-88328571D01*
X86664285Y-88257142D01*
X87092857Y-88257142D01*
X87235714Y-88328571D01*
X87307142Y-88400000D01*
X87378571Y-88542857D01*
X87378571Y-88828571D01*
X87307142Y-88971428D01*
X87307142Y-87042857D02*
X87378571Y-87185714D01*
X87378571Y-87471428D01*
X87307142Y-87614285D01*
X87164285Y-87685714D01*
X86592857Y-87685714D01*
X86450000Y-87614285D01*
X86378571Y-87471428D01*
X86378571Y-87185714D01*
X86450000Y-87042857D01*
X86592857Y-86971428D01*
X86735714Y-86971428D01*
X86878571Y-87685714D01*
X87378571Y-86328571D02*
X86378571Y-86328571D01*
X86664285Y-86328571D02*
X86521428Y-86257142D01*
X86450000Y-86185714D01*
X86378571Y-86042857D01*
X86378571Y-85900000D01*
X87307142Y-85328571D02*
X87378571Y-85328571D01*
X87521428Y-85400000D01*
X87592857Y-85471428D01*
X86592857Y-83542857D02*
X86592857Y-83042857D01*
X87378571Y-82828571D02*
X87378571Y-83542857D01*
X85878571Y-83542857D01*
X85878571Y-82828571D01*
X87378571Y-82185714D02*
X85878571Y-82185714D01*
X87378571Y-81328571D01*
X85878571Y-81328571D01*
X87378571Y-80614285D02*
X85878571Y-80614285D01*
X85950000Y-79114285D02*
X85878571Y-79257142D01*
X85878571Y-79471428D01*
X85950000Y-79685714D01*
X86092857Y-79828571D01*
X86235714Y-79900000D01*
X86521428Y-79971428D01*
X86735714Y-79971428D01*
X87021428Y-79900000D01*
X87164285Y-79828571D01*
X87307142Y-79685714D01*
X87378571Y-79471428D01*
X87378571Y-79328571D01*
X87307142Y-79114285D01*
X87235714Y-79042857D01*
X86735714Y-79042857D01*
X86735714Y-79328571D01*
X87307142Y-78328571D02*
X87378571Y-78328571D01*
X87521428Y-78400000D01*
X87592857Y-78471428D01*
X86378571Y-76685714D02*
X87378571Y-76400000D01*
X86664285Y-76114285D01*
X87378571Y-75828571D01*
X86378571Y-75542857D01*
X87378571Y-74971428D02*
X85878571Y-74971428D01*
X87378571Y-74328571D02*
X86592857Y-74328571D01*
X86450000Y-74400000D01*
X86378571Y-74542857D01*
X86378571Y-74757142D01*
X86450000Y-74900000D01*
X86521428Y-74971428D01*
X87378571Y-73614285D02*
X86378571Y-73614285D01*
X85878571Y-73614285D02*
X85950000Y-73685714D01*
X86021428Y-73614285D01*
X85950000Y-73542857D01*
X85878571Y-73614285D01*
X86021428Y-73614285D01*
X86378571Y-73114285D02*
X86378571Y-72542857D01*
X85878571Y-72900000D02*
X87164285Y-72900000D01*
X87307142Y-72828571D01*
X87378571Y-72685714D01*
X87378571Y-72542857D01*
X87307142Y-71471428D02*
X87378571Y-71614285D01*
X87378571Y-71900000D01*
X87307142Y-72042857D01*
X87164285Y-72114285D01*
X86592857Y-72114285D01*
X86450000Y-72042857D01*
X86378571Y-71900000D01*
X86378571Y-71614285D01*
X86450000Y-71471428D01*
X86592857Y-71400000D01*
X86735714Y-71400000D01*
X86878571Y-72114285D01*
X87307142Y-69685714D02*
X87378571Y-69542857D01*
X87378571Y-69257142D01*
X87307142Y-69114285D01*
X87164285Y-69042857D01*
X87092857Y-69042857D01*
X86950000Y-69114285D01*
X86878571Y-69257142D01*
X86878571Y-69471428D01*
X86807142Y-69614285D01*
X86664285Y-69685714D01*
X86592857Y-69685714D01*
X86450000Y-69614285D01*
X86378571Y-69471428D01*
X86378571Y-69257142D01*
X86450000Y-69114285D01*
X87378571Y-68185714D02*
X87307142Y-68328571D01*
X87235714Y-68400000D01*
X87092857Y-68471428D01*
X86664285Y-68471428D01*
X86521428Y-68400000D01*
X86450000Y-68328571D01*
X86378571Y-68185714D01*
X86378571Y-67971428D01*
X86450000Y-67828571D01*
X86521428Y-67757142D01*
X86664285Y-67685714D01*
X87092857Y-67685714D01*
X87235714Y-67757142D01*
X87307142Y-67828571D01*
X87378571Y-67971428D01*
X87378571Y-68185714D01*
X87378571Y-66828571D02*
X87307142Y-66971428D01*
X87164285Y-67042857D01*
X85878571Y-67042857D01*
X87378571Y-65614285D02*
X85878571Y-65614285D01*
X87307142Y-65614285D02*
X87378571Y-65757142D01*
X87378571Y-66042857D01*
X87307142Y-66185714D01*
X87235714Y-66257142D01*
X87092857Y-66328571D01*
X86664285Y-66328571D01*
X86521428Y-66257142D01*
X86450000Y-66185714D01*
X86378571Y-66042857D01*
X86378571Y-65757142D01*
X86450000Y-65614285D01*
X87307142Y-64328571D02*
X87378571Y-64471428D01*
X87378571Y-64757142D01*
X87307142Y-64900000D01*
X87164285Y-64971428D01*
X86592857Y-64971428D01*
X86450000Y-64900000D01*
X86378571Y-64757142D01*
X86378571Y-64471428D01*
X86450000Y-64328571D01*
X86592857Y-64257142D01*
X86735714Y-64257142D01*
X86878571Y-64971428D01*
X87378571Y-63614285D02*
X86378571Y-63614285D01*
X86664285Y-63614285D02*
X86521428Y-63542857D01*
X86450000Y-63471428D01*
X86378571Y-63328571D01*
X86378571Y-63185714D01*
X87378571Y-62685714D02*
X86378571Y-62685714D01*
X86521428Y-62685714D02*
X86450000Y-62614285D01*
X86378571Y-62471428D01*
X86378571Y-62257142D01*
X86450000Y-62114285D01*
X86592857Y-62042857D01*
X87378571Y-62042857D01*
X86592857Y-62042857D02*
X86450000Y-61971428D01*
X86378571Y-61828571D01*
X86378571Y-61614285D01*
X86450000Y-61471428D01*
X86592857Y-61400000D01*
X87378571Y-61400000D01*
X87378571Y-60042857D02*
X86592857Y-60042857D01*
X86450000Y-60114285D01*
X86378571Y-60257142D01*
X86378571Y-60542857D01*
X86450000Y-60685714D01*
X87307142Y-60042857D02*
X87378571Y-60185714D01*
X87378571Y-60542857D01*
X87307142Y-60685714D01*
X87164285Y-60757142D01*
X87021428Y-60757142D01*
X86878571Y-60685714D01*
X86807142Y-60542857D01*
X86807142Y-60185714D01*
X86735714Y-60042857D01*
X87307142Y-59400000D02*
X87378571Y-59257142D01*
X87378571Y-58971428D01*
X87307142Y-58828571D01*
X87164285Y-58757142D01*
X87092857Y-58757142D01*
X86950000Y-58828571D01*
X86878571Y-58971428D01*
X86878571Y-59185714D01*
X86807142Y-59328571D01*
X86664285Y-59400000D01*
X86592857Y-59400000D01*
X86450000Y-59328571D01*
X86378571Y-59185714D01*
X86378571Y-58971428D01*
X86450000Y-58828571D01*
X87378571Y-58114285D02*
X85878571Y-58114285D01*
X86807142Y-57971428D02*
X87378571Y-57542857D01*
X86378571Y-57542857D02*
X86950000Y-58114285D01*
X182521428Y-105114285D02*
X182450000Y-105042857D01*
X182378571Y-104900000D01*
X182378571Y-104542857D01*
X182450000Y-104400000D01*
X182521428Y-104328571D01*
X182664285Y-104257142D01*
X182807142Y-104257142D01*
X183021428Y-104328571D01*
X183878571Y-105185714D01*
X183878571Y-104257142D01*
X183021428Y-103400000D02*
X182950000Y-103542857D01*
X182878571Y-103614285D01*
X182735714Y-103685714D01*
X182664285Y-103685714D01*
X182521428Y-103614285D01*
X182450000Y-103542857D01*
X182378571Y-103400000D01*
X182378571Y-103114285D01*
X182450000Y-102971428D01*
X182521428Y-102900000D01*
X182664285Y-102828571D01*
X182735714Y-102828571D01*
X182878571Y-102900000D01*
X182950000Y-102971428D01*
X183021428Y-103114285D01*
X183021428Y-103400000D01*
X183092857Y-103542857D01*
X183164285Y-103614285D01*
X183307142Y-103685714D01*
X183592857Y-103685714D01*
X183735714Y-103614285D01*
X183807142Y-103542857D01*
X183878571Y-103400000D01*
X183878571Y-103114285D01*
X183807142Y-102971428D01*
X183735714Y-102900000D01*
X183592857Y-102828571D01*
X183307142Y-102828571D01*
X183164285Y-102900000D01*
X183092857Y-102971428D01*
X183021428Y-103114285D01*
X182378571Y-102328571D02*
X182378571Y-101400000D01*
X182950000Y-101900000D01*
X182950000Y-101685714D01*
X183021428Y-101542857D01*
X183092857Y-101471428D01*
X183235714Y-101400000D01*
X183592857Y-101400000D01*
X183735714Y-101471428D01*
X183807142Y-101542857D01*
X183878571Y-101685714D01*
X183878571Y-102114285D01*
X183807142Y-102257142D01*
X183735714Y-102328571D01*
X182378571Y-100042857D02*
X182378571Y-100757142D01*
X183092857Y-100828571D01*
X183021428Y-100757142D01*
X182950000Y-100614285D01*
X182950000Y-100257142D01*
X183021428Y-100114285D01*
X183092857Y-100042857D01*
X183235714Y-99971428D01*
X183592857Y-99971428D01*
X183735714Y-100042857D01*
X183807142Y-100114285D01*
X183878571Y-100257142D01*
X183878571Y-100614285D01*
X183807142Y-100757142D01*
X183735714Y-100828571D01*
X183735714Y-97328571D02*
X183807142Y-97400000D01*
X183878571Y-97614285D01*
X183878571Y-97757142D01*
X183807142Y-97971428D01*
X183664285Y-98114285D01*
X183521428Y-98185714D01*
X183235714Y-98257142D01*
X183021428Y-98257142D01*
X182735714Y-98185714D01*
X182592857Y-98114285D01*
X182450000Y-97971428D01*
X182378571Y-97757142D01*
X182378571Y-97614285D01*
X182450000Y-97400000D01*
X182521428Y-97328571D01*
X183878571Y-96685714D02*
X182878571Y-96685714D01*
X183164285Y-96685714D02*
X183021428Y-96614285D01*
X182950000Y-96542857D01*
X182878571Y-96400000D01*
X182878571Y-96257142D01*
X183807142Y-95185714D02*
X183878571Y-95328571D01*
X183878571Y-95614285D01*
X183807142Y-95757142D01*
X183664285Y-95828571D01*
X183092857Y-95828571D01*
X182950000Y-95757142D01*
X182878571Y-95614285D01*
X182878571Y-95328571D01*
X182950000Y-95185714D01*
X183092857Y-95114285D01*
X183235714Y-95114285D01*
X183378571Y-95828571D01*
X183807142Y-93900000D02*
X183878571Y-94042857D01*
X183878571Y-94328571D01*
X183807142Y-94471428D01*
X183664285Y-94542857D01*
X183092857Y-94542857D01*
X182950000Y-94471428D01*
X182878571Y-94328571D01*
X182878571Y-94042857D01*
X182950000Y-93900000D01*
X183092857Y-93828571D01*
X183235714Y-93828571D01*
X183378571Y-94542857D01*
X182378571Y-91614285D02*
X183450000Y-91614285D01*
X183664285Y-91685714D01*
X183807142Y-91828571D01*
X183878571Y-92042857D01*
X183878571Y-92185714D01*
X183807142Y-89828571D02*
X183878571Y-89614285D01*
X183878571Y-89257142D01*
X183807142Y-89114285D01*
X183735714Y-89042857D01*
X183592857Y-88971428D01*
X183450000Y-88971428D01*
X183307142Y-89042857D01*
X183235714Y-89114285D01*
X183164285Y-89257142D01*
X183092857Y-89542857D01*
X183021428Y-89685714D01*
X182950000Y-89757142D01*
X182807142Y-89828571D01*
X182664285Y-89828571D01*
X182521428Y-89757142D01*
X182450000Y-89685714D01*
X182378571Y-89542857D01*
X182378571Y-89185714D01*
X182450000Y-88971428D01*
X183807142Y-87757142D02*
X183878571Y-87900000D01*
X183878571Y-88185714D01*
X183807142Y-88328571D01*
X183664285Y-88400000D01*
X183092857Y-88400000D01*
X182950000Y-88328571D01*
X182878571Y-88185714D01*
X182878571Y-87900000D01*
X182950000Y-87757142D01*
X183092857Y-87685714D01*
X183235714Y-87685714D01*
X183378571Y-88400000D01*
X183878571Y-87042857D02*
X182878571Y-87042857D01*
X183164285Y-87042857D02*
X183021428Y-86971428D01*
X182950000Y-86900000D01*
X182878571Y-86757142D01*
X182878571Y-86614285D01*
X183878571Y-86114285D02*
X182878571Y-86114285D01*
X182378571Y-86114285D02*
X182450000Y-86185714D01*
X182521428Y-86114285D01*
X182450000Y-86042857D01*
X182378571Y-86114285D01*
X182521428Y-86114285D01*
X183807142Y-84828571D02*
X183878571Y-84971428D01*
X183878571Y-85257142D01*
X183807142Y-85400000D01*
X183664285Y-85471428D01*
X183092857Y-85471428D01*
X182950000Y-85400000D01*
X182878571Y-85257142D01*
X182878571Y-84971428D01*
X182950000Y-84828571D01*
X183092857Y-84757142D01*
X183235714Y-84757142D01*
X183378571Y-85471428D01*
X183807142Y-84185714D02*
X183878571Y-84042857D01*
X183878571Y-83757142D01*
X183807142Y-83614285D01*
X183664285Y-83542857D01*
X183592857Y-83542857D01*
X183450000Y-83614285D01*
X183378571Y-83757142D01*
X183378571Y-83971428D01*
X183307142Y-84114285D01*
X183164285Y-84185714D01*
X183092857Y-84185714D01*
X182950000Y-84114285D01*
X182878571Y-83971428D01*
X182878571Y-83757142D01*
X182950000Y-83614285D01*
X183307142Y-81757142D02*
X183307142Y-80614285D01*
X182378571Y-78971428D02*
X183878571Y-78471428D01*
X182378571Y-77971428D01*
X182878571Y-77685714D02*
X182878571Y-77114285D01*
X183878571Y-77471428D02*
X182592857Y-77471428D01*
X182450000Y-77400000D01*
X182378571Y-77257142D01*
X182378571Y-77114285D01*
X183092857Y-76614285D02*
X183092857Y-75471428D01*
X183521428Y-75471428D02*
X183521428Y-76614285D01*
X182378571Y-74900000D02*
X182378571Y-73971428D01*
X182950000Y-74471428D01*
X182950000Y-74257142D01*
X183021428Y-74114285D01*
X183092857Y-74042857D01*
X183235714Y-73971428D01*
X183592857Y-73971428D01*
X183735714Y-74042857D01*
X183807142Y-74114285D01*
X183878571Y-74257142D01*
X183878571Y-74685714D01*
X183807142Y-74828571D01*
X183735714Y-74900000D01*
X182378571Y-73542857D02*
X183878571Y-73042857D01*
X182378571Y-72542857D01*
X175819047Y-118971428D02*
X176580952Y-118971428D01*
X157919047Y-118971428D02*
X158680952Y-118971428D01*
X158300000Y-119352380D02*
X158300000Y-118590476D01*
X145019047Y-118971428D02*
X145780952Y-118971428D01*
X145400000Y-119352380D02*
X145400000Y-118590476D01*
X132119047Y-118971428D02*
X132880952Y-118971428D01*
X132500000Y-119352380D02*
X132500000Y-118590476D01*
X119219047Y-118971428D02*
X119980952Y-118971428D01*
X119600000Y-119352380D02*
X119600000Y-118590476D01*
X150019047Y-118971428D02*
X150780952Y-118971428D01*
X162919047Y-118971428D02*
X163680952Y-118971428D01*
X106319047Y-118971428D02*
X107080952Y-118971428D01*
X106700000Y-119352380D02*
X106700000Y-118590476D01*
X124219047Y-118971428D02*
X124980952Y-118971428D01*
X93419047Y-118971428D02*
X94180952Y-118971428D01*
X93800000Y-119352380D02*
X93800000Y-118590476D01*
X170819047Y-118971428D02*
X171580952Y-118971428D01*
X171200000Y-119352380D02*
X171200000Y-118590476D01*
X98419047Y-118971428D02*
X99180952Y-118971428D01*
X137119047Y-118971428D02*
X137880952Y-118971428D01*
X111319047Y-118971428D02*
X112080952Y-118971428D01*
X111319047Y-91971428D02*
X112080952Y-91971428D01*
X175819047Y-91971428D02*
X176580952Y-91971428D01*
X150019047Y-91971428D02*
X150780952Y-91971428D01*
X124219047Y-91971428D02*
X124980952Y-91971428D01*
X137119047Y-91971428D02*
X137880952Y-91971428D01*
X162919047Y-91971428D02*
X163680952Y-91971428D01*
X93419047Y-91971428D02*
X94180952Y-91971428D01*
X93800000Y-92352380D02*
X93800000Y-91590476D01*
X98419047Y-91971428D02*
X99180952Y-91971428D01*
X132119047Y-91971428D02*
X132880952Y-91971428D01*
X132500000Y-92352380D02*
X132500000Y-91590476D01*
X170819047Y-91971428D02*
X171580952Y-91971428D01*
X171200000Y-92352380D02*
X171200000Y-91590476D01*
X145019047Y-91971428D02*
X145780952Y-91971428D01*
X145400000Y-92352380D02*
X145400000Y-91590476D01*
X106319047Y-91971428D02*
X107080952Y-91971428D01*
X106700000Y-92352380D02*
X106700000Y-91590476D01*
X157919047Y-91971428D02*
X158680952Y-91971428D01*
X158300000Y-92352380D02*
X158300000Y-91590476D01*
X119219047Y-91971428D02*
X119980952Y-91971428D01*
X119600000Y-92352380D02*
X119600000Y-91590476D01*
X170819047Y-64971428D02*
X171580952Y-64971428D01*
X171200000Y-65352380D02*
X171200000Y-64590476D01*
X157919047Y-64971428D02*
X158680952Y-64971428D01*
X158300000Y-65352380D02*
X158300000Y-64590476D01*
X145019047Y-64971428D02*
X145780952Y-64971428D01*
X145400000Y-65352380D02*
X145400000Y-64590476D01*
X132119047Y-64971428D02*
X132880952Y-64971428D01*
X132500000Y-65352380D02*
X132500000Y-64590476D01*
X119219047Y-64971428D02*
X119980952Y-64971428D01*
X119600000Y-65352380D02*
X119600000Y-64590476D01*
X106319047Y-64971428D02*
X107080952Y-64971428D01*
X106700000Y-65352380D02*
X106700000Y-64590476D01*
X175819047Y-64971428D02*
X176580952Y-64971428D01*
X162919047Y-64971428D02*
X163680952Y-64971428D01*
X150019047Y-64971428D02*
X150780952Y-64971428D01*
X137119047Y-64971428D02*
X137880952Y-64971428D01*
X124219047Y-64971428D02*
X124980952Y-64971428D01*
X111319047Y-64971428D02*
X112080952Y-64971428D01*
X121480952Y-133204761D02*
X121957142Y-135204761D01*
X122338095Y-133776190D01*
X122719047Y-135204761D01*
X123195238Y-133204761D01*
X123766666Y-133204761D02*
X124242857Y-135204761D01*
X124623809Y-133776190D01*
X125004761Y-135204761D01*
X125480952Y-133204761D01*
X126052380Y-133204761D02*
X126528571Y-135204761D01*
X126909523Y-133776190D01*
X127290476Y-135204761D01*
X127766666Y-133204761D01*
X128528571Y-135014285D02*
X128623809Y-135109523D01*
X128528571Y-135204761D01*
X128433333Y-135109523D01*
X128528571Y-135014285D01*
X128528571Y-135204761D01*
X129195238Y-133204761D02*
X129861904Y-135204761D01*
X130528571Y-133204761D01*
X131576190Y-133204761D02*
X131957142Y-133204761D01*
X132147619Y-133300000D01*
X132338095Y-133490476D01*
X132433333Y-133871428D01*
X132433333Y-134538095D01*
X132338095Y-134919047D01*
X132147619Y-135109523D01*
X131957142Y-135204761D01*
X131576190Y-135204761D01*
X131385714Y-135109523D01*
X131195238Y-134919047D01*
X131100000Y-134538095D01*
X131100000Y-133871428D01*
X131195238Y-133490476D01*
X131385714Y-133300000D01*
X131576190Y-133204761D01*
X134242857Y-135204761D02*
X133290476Y-135204761D01*
X133290476Y-133204761D01*
X134623809Y-133204761D02*
X135766666Y-133204761D01*
X135195238Y-135204761D02*
X135195238Y-133204761D01*
X137385714Y-135204761D02*
X136433333Y-135204761D01*
X136433333Y-133204761D01*
X138433333Y-133204761D02*
X138814285Y-133204761D01*
X139004761Y-133300000D01*
X139195238Y-133490476D01*
X139290476Y-133871428D01*
X139290476Y-134538095D01*
X139195238Y-134919047D01*
X139004761Y-135109523D01*
X138814285Y-135204761D01*
X138433333Y-135204761D01*
X138242857Y-135109523D01*
X138052380Y-134919047D01*
X137957142Y-134538095D01*
X137957142Y-133871428D01*
X138052380Y-133490476D01*
X138242857Y-133300000D01*
X138433333Y-133204761D01*
X141195238Y-133300000D02*
X141004761Y-133204761D01*
X140719047Y-133204761D01*
X140433333Y-133300000D01*
X140242857Y-133490476D01*
X140147619Y-133680952D01*
X140052380Y-134061904D01*
X140052380Y-134347619D01*
X140147619Y-134728571D01*
X140242857Y-134919047D01*
X140433333Y-135109523D01*
X140719047Y-135204761D01*
X140909523Y-135204761D01*
X141195238Y-135109523D01*
X141290476Y-135014285D01*
X141290476Y-134347619D01*
X140909523Y-134347619D01*
X142147619Y-135014285D02*
X142242857Y-135109523D01*
X142147619Y-135204761D01*
X142052380Y-135109523D01*
X142147619Y-135014285D01*
X142147619Y-135204761D01*
X144242857Y-135014285D02*
X144147619Y-135109523D01*
X143861904Y-135204761D01*
X143671428Y-135204761D01*
X143385714Y-135109523D01*
X143195238Y-134919047D01*
X143100000Y-134728571D01*
X143004761Y-134347619D01*
X143004761Y-134061904D01*
X143100000Y-133680952D01*
X143195238Y-133490476D01*
X143385714Y-133300000D01*
X143671428Y-133204761D01*
X143861904Y-133204761D01*
X144147619Y-133300000D01*
X144242857Y-133395238D01*
X145480952Y-133204761D02*
X145861904Y-133204761D01*
X146052380Y-133300000D01*
X146242857Y-133490476D01*
X146338095Y-133871428D01*
X146338095Y-134538095D01*
X146242857Y-134919047D01*
X146052380Y-135109523D01*
X145861904Y-135204761D01*
X145480952Y-135204761D01*
X145290476Y-135109523D01*
X145100000Y-134919047D01*
X145004761Y-134538095D01*
X145004761Y-133871428D01*
X145100000Y-133490476D01*
X145290476Y-133300000D01*
X145480952Y-133204761D01*
X147195238Y-135204761D02*
X147195238Y-133204761D01*
X147861904Y-134633333D01*
X148528571Y-133204761D01*
X148528571Y-135204761D01*
X194452380Y-92447619D02*
X194452380Y-93019047D01*
X194452380Y-92733333D02*
X193452380Y-92733333D01*
X193595238Y-92828571D01*
X193690476Y-92923809D01*
X193738095Y-93019047D01*
X193452380Y-91828571D02*
X193452380Y-91733333D01*
X193500000Y-91638095D01*
X193547619Y-91590476D01*
X193642857Y-91542857D01*
X193833333Y-91495238D01*
X194071428Y-91495238D01*
X194261904Y-91542857D01*
X194357142Y-91590476D01*
X194404761Y-91638095D01*
X194452380Y-91733333D01*
X194452380Y-91828571D01*
X194404761Y-91923809D01*
X194357142Y-91971428D01*
X194261904Y-92019047D01*
X194071428Y-92066666D01*
X193833333Y-92066666D01*
X193642857Y-92019047D01*
X193547619Y-91971428D01*
X193500000Y-91923809D01*
X193452380Y-91828571D01*
X193452380Y-90876190D02*
X193452380Y-90780952D01*
X193500000Y-90685714D01*
X193547619Y-90638095D01*
X193642857Y-90590476D01*
X193833333Y-90542857D01*
X194071428Y-90542857D01*
X194261904Y-90590476D01*
X194357142Y-90638095D01*
X194404761Y-90685714D01*
X194452380Y-90780952D01*
X194452380Y-90876190D01*
X194404761Y-90971428D01*
X194357142Y-91019047D01*
X194261904Y-91066666D01*
X194071428Y-91114285D01*
X193833333Y-91114285D01*
X193642857Y-91066666D01*
X193547619Y-91019047D01*
X193500000Y-90971428D01*
X193452380Y-90876190D01*
X194357142Y-90114285D02*
X194404761Y-90066666D01*
X194452380Y-90114285D01*
X194404761Y-90161904D01*
X194357142Y-90114285D01*
X194452380Y-90114285D01*
X193452380Y-89447619D02*
X193452380Y-89352380D01*
X193500000Y-89257142D01*
X193547619Y-89209523D01*
X193642857Y-89161904D01*
X193833333Y-89114285D01*
X194071428Y-89114285D01*
X194261904Y-89161904D01*
X194357142Y-89209523D01*
X194404761Y-89257142D01*
X194452380Y-89352380D01*
X194452380Y-89447619D01*
X194404761Y-89542857D01*
X194357142Y-89590476D01*
X194261904Y-89638095D01*
X194071428Y-89685714D01*
X193833333Y-89685714D01*
X193642857Y-89638095D01*
X193547619Y-89590476D01*
X193500000Y-89542857D01*
X193452380Y-89447619D01*
X193452380Y-88495238D02*
X193452380Y-88400000D01*
X193500000Y-88304761D01*
X193547619Y-88257142D01*
X193642857Y-88209523D01*
X193833333Y-88161904D01*
X194071428Y-88161904D01*
X194261904Y-88209523D01*
X194357142Y-88257142D01*
X194404761Y-88304761D01*
X194452380Y-88400000D01*
X194452380Y-88495238D01*
X194404761Y-88590476D01*
X194357142Y-88638095D01*
X194261904Y-88685714D01*
X194071428Y-88733333D01*
X193833333Y-88733333D01*
X193642857Y-88685714D01*
X193547619Y-88638095D01*
X193500000Y-88590476D01*
X193452380Y-88495238D01*
X193452380Y-87542857D02*
X193452380Y-87447619D01*
X193500000Y-87352380D01*
X193547619Y-87304761D01*
X193642857Y-87257142D01*
X193833333Y-87209523D01*
X194071428Y-87209523D01*
X194261904Y-87257142D01*
X194357142Y-87304761D01*
X194404761Y-87352380D01*
X194452380Y-87447619D01*
X194452380Y-87542857D01*
X194404761Y-87638095D01*
X194357142Y-87685714D01*
X194261904Y-87733333D01*
X194071428Y-87780952D01*
X193833333Y-87780952D01*
X193642857Y-87733333D01*
X193547619Y-87685714D01*
X193500000Y-87638095D01*
X193452380Y-87542857D01*
X194452380Y-86019047D02*
X193785714Y-86019047D01*
X193880952Y-86019047D02*
X193833333Y-85971428D01*
X193785714Y-85876190D01*
X193785714Y-85733333D01*
X193833333Y-85638095D01*
X193928571Y-85590476D01*
X194452380Y-85590476D01*
X193928571Y-85590476D02*
X193833333Y-85542857D01*
X193785714Y-85447619D01*
X193785714Y-85304761D01*
X193833333Y-85209523D01*
X193928571Y-85161904D01*
X194452380Y-85161904D01*
X194452380Y-84685714D02*
X193785714Y-84685714D01*
X193880952Y-84685714D02*
X193833333Y-84638095D01*
X193785714Y-84542857D01*
X193785714Y-84400000D01*
X193833333Y-84304761D01*
X193928571Y-84257142D01*
X194452380Y-84257142D01*
X193928571Y-84257142D02*
X193833333Y-84209523D01*
X193785714Y-84114285D01*
X193785714Y-83971428D01*
X193833333Y-83876190D01*
X193928571Y-83828571D01*
X194452380Y-83828571D01*
X192700000Y-138400000D02*
X192700000Y-38400000D01*
X185000000Y-138400000D02*
X193286421Y-138400000D01*
X185000000Y-38400000D02*
X193286421Y-38400000D01*
X192700000Y-38400000D02*
X193286421Y-39526504D01*
X192700000Y-38400000D02*
X192113579Y-39526504D01*
X192700000Y-138400000D02*
X193286421Y-137273496D01*
X192700000Y-138400000D02*
X192113579Y-137273496D01*
X130952380Y-30452381D02*
X130380952Y-30452381D01*
X130666666Y-30452381D02*
X130666666Y-29452381D01*
X130571428Y-29595239D01*
X130476190Y-29690477D01*
X130380952Y-29738096D01*
X131571428Y-29452381D02*
X131666666Y-29452381D01*
X131761904Y-29500001D01*
X131809523Y-29547620D01*
X131857142Y-29642858D01*
X131904761Y-29833334D01*
X131904761Y-30071429D01*
X131857142Y-30261905D01*
X131809523Y-30357143D01*
X131761904Y-30404762D01*
X131666666Y-30452381D01*
X131571428Y-30452381D01*
X131476190Y-30404762D01*
X131428571Y-30357143D01*
X131380952Y-30261905D01*
X131333333Y-30071429D01*
X131333333Y-29833334D01*
X131380952Y-29642858D01*
X131428571Y-29547620D01*
X131476190Y-29500001D01*
X131571428Y-29452381D01*
X132523809Y-29452381D02*
X132619047Y-29452381D01*
X132714285Y-29500001D01*
X132761904Y-29547620D01*
X132809523Y-29642858D01*
X132857142Y-29833334D01*
X132857142Y-30071429D01*
X132809523Y-30261905D01*
X132761904Y-30357143D01*
X132714285Y-30404762D01*
X132619047Y-30452381D01*
X132523809Y-30452381D01*
X132428571Y-30404762D01*
X132380952Y-30357143D01*
X132333333Y-30261905D01*
X132285714Y-30071429D01*
X132285714Y-29833334D01*
X132333333Y-29642858D01*
X132380952Y-29547620D01*
X132428571Y-29500001D01*
X132523809Y-29452381D01*
X133285714Y-30357143D02*
X133333333Y-30404762D01*
X133285714Y-30452381D01*
X133238095Y-30404762D01*
X133285714Y-30357143D01*
X133285714Y-30452381D01*
X133952380Y-29452381D02*
X134047619Y-29452381D01*
X134142857Y-29500001D01*
X134190476Y-29547620D01*
X134238095Y-29642858D01*
X134285714Y-29833334D01*
X134285714Y-30071429D01*
X134238095Y-30261905D01*
X134190476Y-30357143D01*
X134142857Y-30404762D01*
X134047619Y-30452381D01*
X133952380Y-30452381D01*
X133857142Y-30404762D01*
X133809523Y-30357143D01*
X133761904Y-30261905D01*
X133714285Y-30071429D01*
X133714285Y-29833334D01*
X133761904Y-29642858D01*
X133809523Y-29547620D01*
X133857142Y-29500001D01*
X133952380Y-29452381D01*
X134904761Y-29452381D02*
X135000000Y-29452381D01*
X135095238Y-29500001D01*
X135142857Y-29547620D01*
X135190476Y-29642858D01*
X135238095Y-29833334D01*
X135238095Y-30071429D01*
X135190476Y-30261905D01*
X135142857Y-30357143D01*
X135095238Y-30404762D01*
X135000000Y-30452381D01*
X134904761Y-30452381D01*
X134809523Y-30404762D01*
X134761904Y-30357143D01*
X134714285Y-30261905D01*
X134666666Y-30071429D01*
X134666666Y-29833334D01*
X134714285Y-29642858D01*
X134761904Y-29547620D01*
X134809523Y-29500001D01*
X134904761Y-29452381D01*
X135857142Y-29452381D02*
X135952380Y-29452381D01*
X136047619Y-29500001D01*
X136095238Y-29547620D01*
X136142857Y-29642858D01*
X136190476Y-29833334D01*
X136190476Y-30071429D01*
X136142857Y-30261905D01*
X136095238Y-30357143D01*
X136047619Y-30404762D01*
X135952380Y-30452381D01*
X135857142Y-30452381D01*
X135761904Y-30404762D01*
X135714285Y-30357143D01*
X135666666Y-30261905D01*
X135619047Y-30071429D01*
X135619047Y-29833334D01*
X135666666Y-29642858D01*
X135714285Y-29547620D01*
X135761904Y-29500001D01*
X135857142Y-29452381D01*
X137380952Y-30452381D02*
X137380952Y-29785715D01*
X137380952Y-29880953D02*
X137428571Y-29833334D01*
X137523809Y-29785715D01*
X137666666Y-29785715D01*
X137761904Y-29833334D01*
X137809523Y-29928572D01*
X137809523Y-30452381D01*
X137809523Y-29928572D02*
X137857142Y-29833334D01*
X137952380Y-29785715D01*
X138095238Y-29785715D01*
X138190476Y-29833334D01*
X138238095Y-29928572D01*
X138238095Y-30452381D01*
X138714285Y-30452381D02*
X138714285Y-29785715D01*
X138714285Y-29880953D02*
X138761904Y-29833334D01*
X138857142Y-29785715D01*
X139000000Y-29785715D01*
X139095238Y-29833334D01*
X139142857Y-29928572D01*
X139142857Y-30452381D01*
X139142857Y-29928572D02*
X139190476Y-29833334D01*
X139285714Y-29785715D01*
X139428571Y-29785715D01*
X139523809Y-29833334D01*
X139571428Y-29928572D01*
X139571428Y-30452381D01*
X185000000Y-31300001D02*
X85000000Y-31300001D01*
X185000000Y-38400000D02*
X185000000Y-30713580D01*
X85000000Y-38400000D02*
X85000000Y-30713580D01*
X85000000Y-31300001D02*
X86126504Y-30713580D01*
X85000000Y-31300001D02*
X86126504Y-31886422D01*
X185000000Y-31300001D02*
X183873496Y-30713580D01*
X185000000Y-31300001D02*
X183873496Y-31886422D01*
X131000000Y-41878571D02*
X131000000Y-40378571D01*
X131571428Y-40378571D01*
X131714285Y-40450000D01*
X131785714Y-40521428D01*
X131857142Y-40664285D01*
X131857142Y-40878571D01*
X131785714Y-41021428D01*
X131714285Y-41092857D01*
X131571428Y-41164285D01*
X131000000Y-41164285D01*
X133357142Y-41735714D02*
X133285714Y-41807142D01*
X133071428Y-41878571D01*
X132928571Y-41878571D01*
X132714285Y-41807142D01*
X132571428Y-41664285D01*
X132500000Y-41521428D01*
X132428571Y-41235714D01*
X132428571Y-41021428D01*
X132500000Y-40735714D01*
X132571428Y-40592857D01*
X132714285Y-40450000D01*
X132928571Y-40378571D01*
X133071428Y-40378571D01*
X133285714Y-40450000D01*
X133357142Y-40521428D01*
X134500000Y-41092857D02*
X134714285Y-41164285D01*
X134785714Y-41235714D01*
X134857142Y-41378571D01*
X134857142Y-41592857D01*
X134785714Y-41735714D01*
X134714285Y-41807142D01*
X134571428Y-41878571D01*
X134000000Y-41878571D01*
X134000000Y-40378571D01*
X134500000Y-40378571D01*
X134642857Y-40450000D01*
X134714285Y-40521428D01*
X134785714Y-40664285D01*
X134785714Y-40807142D01*
X134714285Y-40950000D01*
X134642857Y-41021428D01*
X134500000Y-41092857D01*
X134000000Y-41092857D01*
X135357142Y-40378571D02*
X135714285Y-41878571D01*
X136000000Y-40807142D01*
X136285714Y-41878571D01*
X136642857Y-40378571D01*
X137857142Y-41878571D02*
X137857142Y-41092857D01*
X137785714Y-40950000D01*
X137642857Y-40878571D01*
X137357142Y-40878571D01*
X137214285Y-40950000D01*
X137857142Y-41807142D02*
X137714285Y-41878571D01*
X137357142Y-41878571D01*
X137214285Y-41807142D01*
X137142857Y-41664285D01*
X137142857Y-41521428D01*
X137214285Y-41378571D01*
X137357142Y-41307142D01*
X137714285Y-41307142D01*
X137857142Y-41235714D01*
X138428571Y-40878571D02*
X138785714Y-41878571D01*
X139142857Y-40878571D02*
X138785714Y-41878571D01*
X138642857Y-42235714D01*
X138571428Y-42307142D01*
X138428571Y-42378571D01*
X121028571Y-43578571D02*
X121885714Y-43578571D01*
X121457142Y-45078571D02*
X121457142Y-43578571D01*
X123171428Y-45078571D02*
X122314285Y-45078571D01*
X122742857Y-45078571D02*
X122742857Y-43578571D01*
X122600000Y-43792857D01*
X122457142Y-43935714D01*
X122314285Y-44007142D01*
X124100000Y-43578571D02*
X124242857Y-43578571D01*
X124385714Y-43650000D01*
X124457142Y-43721428D01*
X124528571Y-43864285D01*
X124600000Y-44150000D01*
X124600000Y-44507142D01*
X124528571Y-44792857D01*
X124457142Y-44935714D01*
X124385714Y-45007142D01*
X124242857Y-45078571D01*
X124100000Y-45078571D01*
X123957142Y-45007142D01*
X123885714Y-44935714D01*
X123814285Y-44792857D01*
X123742857Y-44507142D01*
X123742857Y-44150000D01*
X123814285Y-43864285D01*
X123885714Y-43721428D01*
X123957142Y-43650000D01*
X124100000Y-43578571D01*
X127100000Y-45078571D02*
X126385714Y-45078571D01*
X126385714Y-43578571D01*
X127600000Y-44292857D02*
X128100000Y-44292857D01*
X128314285Y-45078571D02*
X127600000Y-45078571D01*
X127600000Y-43578571D01*
X128314285Y-43578571D01*
X128957142Y-45078571D02*
X128957142Y-43578571D01*
X129314285Y-43578571D01*
X129528571Y-43650000D01*
X129671428Y-43792857D01*
X129742857Y-43935714D01*
X129814285Y-44221428D01*
X129814285Y-44435714D01*
X129742857Y-44721428D01*
X129671428Y-44864285D01*
X129528571Y-45007142D01*
X129314285Y-45078571D01*
X128957142Y-45078571D01*
X131600000Y-44507142D02*
X132742857Y-44507142D01*
X134528571Y-45007142D02*
X134742857Y-45078571D01*
X135100000Y-45078571D01*
X135242857Y-45007142D01*
X135314285Y-44935714D01*
X135385714Y-44792857D01*
X135385714Y-44650000D01*
X135314285Y-44507142D01*
X135242857Y-44435714D01*
X135100000Y-44364285D01*
X134814285Y-44292857D01*
X134671428Y-44221428D01*
X134600000Y-44150000D01*
X134528571Y-44007142D01*
X134528571Y-43864285D01*
X134600000Y-43721428D01*
X134671428Y-43650000D01*
X134814285Y-43578571D01*
X135171428Y-43578571D01*
X135385714Y-43650000D01*
X136028571Y-44292857D02*
X136528571Y-44292857D01*
X136742857Y-45078571D02*
X136028571Y-45078571D01*
X136028571Y-43578571D01*
X136742857Y-43578571D01*
X138242857Y-45078571D02*
X137742857Y-44364285D01*
X137385714Y-45078571D02*
X137385714Y-43578571D01*
X137957142Y-43578571D01*
X138100000Y-43650000D01*
X138171428Y-43721428D01*
X138242857Y-43864285D01*
X138242857Y-44078571D01*
X138171428Y-44221428D01*
X138100000Y-44292857D01*
X137957142Y-44364285D01*
X137385714Y-44364285D01*
X138885714Y-45078571D02*
X138885714Y-43578571D01*
X139600000Y-44292857D02*
X140100000Y-44292857D01*
X140314285Y-45078571D02*
X139600000Y-45078571D01*
X139600000Y-43578571D01*
X140314285Y-43578571D01*
X140885714Y-45007142D02*
X141100000Y-45078571D01*
X141457142Y-45078571D01*
X141600000Y-45007142D01*
X141671428Y-44935714D01*
X141742857Y-44792857D01*
X141742857Y-44650000D01*
X141671428Y-44507142D01*
X141600000Y-44435714D01*
X141457142Y-44364285D01*
X141171428Y-44292857D01*
X141028571Y-44221428D01*
X140957142Y-44150000D01*
X140885714Y-44007142D01*
X140885714Y-43864285D01*
X140957142Y-43721428D01*
X141028571Y-43650000D01*
X141171428Y-43578571D01*
X141528571Y-43578571D01*
X141742857Y-43650000D01*
X144385714Y-45078571D02*
X143885714Y-44364285D01*
X143528571Y-45078571D02*
X143528571Y-43578571D01*
X144100000Y-43578571D01*
X144242857Y-43650000D01*
X144314285Y-43721428D01*
X144385714Y-43864285D01*
X144385714Y-44078571D01*
X144314285Y-44221428D01*
X144242857Y-44292857D01*
X144100000Y-44364285D01*
X143528571Y-44364285D01*
X145028571Y-44292857D02*
X145528571Y-44292857D01*
X145742857Y-45078571D02*
X145028571Y-45078571D01*
X145028571Y-43578571D01*
X145742857Y-43578571D01*
X146171428Y-43578571D02*
X146671428Y-45078571D01*
X147171428Y-43578571D01*
X147671428Y-44935714D02*
X147742857Y-45007142D01*
X147671428Y-45078571D01*
X147600000Y-45007142D01*
X147671428Y-44935714D01*
X147671428Y-45078571D01*
X148314285Y-44650000D02*
X149028571Y-44650000D01*
X148171428Y-45078571D02*
X148671428Y-43578571D01*
X149171428Y-45078571D01*
X98419047Y-64971428D02*
X99180952Y-64971428D01*
X93419047Y-64971428D02*
X94180952Y-64971428D01*
X93800000Y-65352380D02*
X93800000Y-64590476D01*
D11*
X147247936Y-116490000D02*
X148452064Y-116490000D01*
X147247936Y-118310000D02*
X148452064Y-118310000D01*
X172050000Y-110600000D02*
X175250000Y-110600000D01*
X175250000Y-107000000D02*
X175250000Y-110600000D01*
X172050000Y-107000000D02*
X172050000Y-110600000D01*
X108547936Y-116490000D02*
X109752064Y-116490000D01*
X108547936Y-118310000D02*
X109752064Y-118310000D01*
X134347936Y-116490000D02*
X135552064Y-116490000D01*
X134347936Y-118310000D02*
X135552064Y-118310000D01*
X173047936Y-116490000D02*
X174252064Y-116490000D01*
X173047936Y-118310000D02*
X174252064Y-118310000D01*
X160147936Y-116490000D02*
X161352064Y-116490000D01*
X160147936Y-118310000D02*
X161352064Y-118310000D01*
X159150000Y-110600000D02*
X162350000Y-110600000D01*
X162350000Y-107000000D02*
X162350000Y-110600000D01*
X159150000Y-107000000D02*
X159150000Y-110600000D01*
X107550000Y-110600000D02*
X110750000Y-110600000D01*
X110750000Y-107000000D02*
X110750000Y-110600000D01*
X107550000Y-107000000D02*
X107550000Y-110600000D01*
X121447936Y-116490000D02*
X122652064Y-116490000D01*
X121447936Y-118310000D02*
X122652064Y-118310000D01*
X146250000Y-110600000D02*
X149450000Y-110600000D01*
X149450000Y-107000000D02*
X149450000Y-110600000D01*
X146250000Y-107000000D02*
X146250000Y-110600000D01*
X133350000Y-110600000D02*
X136550000Y-110600000D01*
X136550000Y-107000000D02*
X136550000Y-110600000D01*
X133350000Y-107000000D02*
X133350000Y-110600000D01*
X120450000Y-110600000D02*
X123650000Y-110600000D01*
X123650000Y-107000000D02*
X123650000Y-110600000D01*
X120450000Y-107000000D02*
X120450000Y-110600000D01*
X95647936Y-118310000D02*
X96852064Y-118310000D01*
X95647936Y-116490000D02*
X96852064Y-116490000D01*
X94650000Y-107000000D02*
X94650000Y-110600000D01*
X97850000Y-107000000D02*
X97850000Y-110600000D01*
X94650000Y-110600000D02*
X97850000Y-110600000D01*
X134347936Y-91310000D02*
X135552064Y-91310000D01*
X134347936Y-89490000D02*
X135552064Y-89490000D01*
X108547936Y-91310000D02*
X109752064Y-91310000D01*
X108547936Y-89490000D02*
X109752064Y-89490000D01*
X173047936Y-91310000D02*
X174252064Y-91310000D01*
X173047936Y-89490000D02*
X174252064Y-89490000D01*
X160147936Y-91310000D02*
X161352064Y-91310000D01*
X160147936Y-89490000D02*
X161352064Y-89490000D01*
X121447936Y-91310000D02*
X122652064Y-91310000D01*
X121447936Y-89490000D02*
X122652064Y-89490000D01*
X147247936Y-91310000D02*
X148452064Y-91310000D01*
X147247936Y-89490000D02*
X148452064Y-89490000D01*
X159150000Y-80000000D02*
X159150000Y-83600000D01*
X162350000Y-80000000D02*
X162350000Y-83600000D01*
X159150000Y-83600000D02*
X162350000Y-83600000D01*
X146250000Y-80000000D02*
X146250000Y-83600000D01*
X149450000Y-80000000D02*
X149450000Y-83600000D01*
X146250000Y-83600000D02*
X149450000Y-83600000D01*
X172050000Y-80000000D02*
X172050000Y-83600000D01*
X175250000Y-80000000D02*
X175250000Y-83600000D01*
X172050000Y-83600000D02*
X175250000Y-83600000D01*
X107550000Y-80000000D02*
X107550000Y-83600000D01*
X110750000Y-80000000D02*
X110750000Y-83600000D01*
X107550000Y-83600000D02*
X110750000Y-83600000D01*
X133350000Y-80000000D02*
X133350000Y-83600000D01*
X136550000Y-80000000D02*
X136550000Y-83600000D01*
X133350000Y-83600000D02*
X136550000Y-83600000D01*
X120450000Y-80000000D02*
X120450000Y-83600000D01*
X123650000Y-80000000D02*
X123650000Y-83600000D01*
X120450000Y-83600000D02*
X123650000Y-83600000D01*
X95647936Y-89490000D02*
X96852064Y-89490000D01*
X95647936Y-91310000D02*
X96852064Y-91310000D01*
X94650000Y-83600000D02*
X97850000Y-83600000D01*
X97850000Y-80000000D02*
X97850000Y-83600000D01*
X94650000Y-80000000D02*
X94650000Y-83600000D01*
X173047936Y-62490000D02*
X174252064Y-62490000D01*
X173047936Y-64310000D02*
X174252064Y-64310000D01*
X160147936Y-62490000D02*
X161352064Y-62490000D01*
X160147936Y-64310000D02*
X161352064Y-64310000D01*
X147247936Y-62490000D02*
X148452064Y-62490000D01*
X147247936Y-64310000D02*
X148452064Y-64310000D01*
X134347936Y-62490000D02*
X135552064Y-62490000D01*
X134347936Y-64310000D02*
X135552064Y-64310000D01*
X121447936Y-62490000D02*
X122652064Y-62490000D01*
X121447936Y-64310000D02*
X122652064Y-64310000D01*
X108547936Y-62490000D02*
X109752064Y-62490000D01*
X108547936Y-64310000D02*
X109752064Y-64310000D01*
X172050000Y-56600000D02*
X175250000Y-56600000D01*
X175250000Y-53000000D02*
X175250000Y-56600000D01*
X172050000Y-53000000D02*
X172050000Y-56600000D01*
X159150000Y-56600000D02*
X162350000Y-56600000D01*
X162350000Y-53000000D02*
X162350000Y-56600000D01*
X159150000Y-53000000D02*
X159150000Y-56600000D01*
X146250000Y-56600000D02*
X149450000Y-56600000D01*
X149450000Y-53000000D02*
X149450000Y-56600000D01*
X146250000Y-53000000D02*
X146250000Y-56600000D01*
X133350000Y-56600000D02*
X136550000Y-56600000D01*
X136550000Y-53000000D02*
X136550000Y-56600000D01*
X133350000Y-53000000D02*
X133350000Y-56600000D01*
X120450000Y-56600000D02*
X123650000Y-56600000D01*
X123650000Y-53000000D02*
X123650000Y-56600000D01*
X120450000Y-53000000D02*
X120450000Y-56600000D01*
X107550000Y-56600000D02*
X110750000Y-56600000D01*
X110750000Y-53000000D02*
X110750000Y-56600000D01*
X107550000Y-53000000D02*
X107550000Y-56600000D01*
X94650000Y-53000000D02*
X94650000Y-56600000D01*
X97850000Y-53000000D02*
X97850000Y-56600000D01*
X94650000Y-56600000D02*
X97850000Y-56600000D01*
X95647936Y-64310000D02*
X96852064Y-64310000D01*
X95647936Y-62490000D02*
X96852064Y-62490000D01*
D10*
X147683333Y-115937142D02*
X147635714Y-115984761D01*
X147492857Y-116032380D01*
X147397619Y-116032380D01*
X147254761Y-115984761D01*
X147159523Y-115889523D01*
X147111904Y-115794285D01*
X147064285Y-115603809D01*
X147064285Y-115460952D01*
X147111904Y-115270476D01*
X147159523Y-115175238D01*
X147254761Y-115080000D01*
X147397619Y-115032380D01*
X147492857Y-115032380D01*
X147635714Y-115080000D01*
X147683333Y-115127619D01*
X148635714Y-116032380D02*
X148064285Y-116032380D01*
X148350000Y-116032380D02*
X148350000Y-115032380D01*
X148254761Y-115175238D01*
X148159523Y-115270476D01*
X148064285Y-115318095D01*
X171702380Y-109138095D02*
X170702380Y-109138095D01*
X170702380Y-108900000D01*
X170750000Y-108757142D01*
X170845238Y-108661904D01*
X170940476Y-108614285D01*
X171130952Y-108566666D01*
X171273809Y-108566666D01*
X171464285Y-108614285D01*
X171559523Y-108661904D01*
X171654761Y-108757142D01*
X171702380Y-108900000D01*
X171702380Y-109138095D01*
X171702380Y-107614285D02*
X171702380Y-108185714D01*
X171702380Y-107900000D02*
X170702380Y-107900000D01*
X170845238Y-107995238D01*
X170940476Y-108090476D01*
X170988095Y-108185714D01*
X108983333Y-115937142D02*
X108935714Y-115984761D01*
X108792857Y-116032380D01*
X108697619Y-116032380D01*
X108554761Y-115984761D01*
X108459523Y-115889523D01*
X108411904Y-115794285D01*
X108364285Y-115603809D01*
X108364285Y-115460952D01*
X108411904Y-115270476D01*
X108459523Y-115175238D01*
X108554761Y-115080000D01*
X108697619Y-115032380D01*
X108792857Y-115032380D01*
X108935714Y-115080000D01*
X108983333Y-115127619D01*
X109935714Y-116032380D02*
X109364285Y-116032380D01*
X109650000Y-116032380D02*
X109650000Y-115032380D01*
X109554761Y-115175238D01*
X109459523Y-115270476D01*
X109364285Y-115318095D01*
X134783333Y-115937142D02*
X134735714Y-115984761D01*
X134592857Y-116032380D01*
X134497619Y-116032380D01*
X134354761Y-115984761D01*
X134259523Y-115889523D01*
X134211904Y-115794285D01*
X134164285Y-115603809D01*
X134164285Y-115460952D01*
X134211904Y-115270476D01*
X134259523Y-115175238D01*
X134354761Y-115080000D01*
X134497619Y-115032380D01*
X134592857Y-115032380D01*
X134735714Y-115080000D01*
X134783333Y-115127619D01*
X135735714Y-116032380D02*
X135164285Y-116032380D01*
X135450000Y-116032380D02*
X135450000Y-115032380D01*
X135354761Y-115175238D01*
X135259523Y-115270476D01*
X135164285Y-115318095D01*
X173483333Y-115937142D02*
X173435714Y-115984761D01*
X173292857Y-116032380D01*
X173197619Y-116032380D01*
X173054761Y-115984761D01*
X172959523Y-115889523D01*
X172911904Y-115794285D01*
X172864285Y-115603809D01*
X172864285Y-115460952D01*
X172911904Y-115270476D01*
X172959523Y-115175238D01*
X173054761Y-115080000D01*
X173197619Y-115032380D01*
X173292857Y-115032380D01*
X173435714Y-115080000D01*
X173483333Y-115127619D01*
X174435714Y-116032380D02*
X173864285Y-116032380D01*
X174150000Y-116032380D02*
X174150000Y-115032380D01*
X174054761Y-115175238D01*
X173959523Y-115270476D01*
X173864285Y-115318095D01*
X160583333Y-115937142D02*
X160535714Y-115984761D01*
X160392857Y-116032380D01*
X160297619Y-116032380D01*
X160154761Y-115984761D01*
X160059523Y-115889523D01*
X160011904Y-115794285D01*
X159964285Y-115603809D01*
X159964285Y-115460952D01*
X160011904Y-115270476D01*
X160059523Y-115175238D01*
X160154761Y-115080000D01*
X160297619Y-115032380D01*
X160392857Y-115032380D01*
X160535714Y-115080000D01*
X160583333Y-115127619D01*
X161535714Y-116032380D02*
X160964285Y-116032380D01*
X161250000Y-116032380D02*
X161250000Y-115032380D01*
X161154761Y-115175238D01*
X161059523Y-115270476D01*
X160964285Y-115318095D01*
X158802380Y-109138095D02*
X157802380Y-109138095D01*
X157802380Y-108900000D01*
X157850000Y-108757142D01*
X157945238Y-108661904D01*
X158040476Y-108614285D01*
X158230952Y-108566666D01*
X158373809Y-108566666D01*
X158564285Y-108614285D01*
X158659523Y-108661904D01*
X158754761Y-108757142D01*
X158802380Y-108900000D01*
X158802380Y-109138095D01*
X158802380Y-107614285D02*
X158802380Y-108185714D01*
X158802380Y-107900000D02*
X157802380Y-107900000D01*
X157945238Y-107995238D01*
X158040476Y-108090476D01*
X158088095Y-108185714D01*
X107202380Y-109138095D02*
X106202380Y-109138095D01*
X106202380Y-108900000D01*
X106250000Y-108757142D01*
X106345238Y-108661904D01*
X106440476Y-108614285D01*
X106630952Y-108566666D01*
X106773809Y-108566666D01*
X106964285Y-108614285D01*
X107059523Y-108661904D01*
X107154761Y-108757142D01*
X107202380Y-108900000D01*
X107202380Y-109138095D01*
X107202380Y-107614285D02*
X107202380Y-108185714D01*
X107202380Y-107900000D02*
X106202380Y-107900000D01*
X106345238Y-107995238D01*
X106440476Y-108090476D01*
X106488095Y-108185714D01*
X121883333Y-115937142D02*
X121835714Y-115984761D01*
X121692857Y-116032380D01*
X121597619Y-116032380D01*
X121454761Y-115984761D01*
X121359523Y-115889523D01*
X121311904Y-115794285D01*
X121264285Y-115603809D01*
X121264285Y-115460952D01*
X121311904Y-115270476D01*
X121359523Y-115175238D01*
X121454761Y-115080000D01*
X121597619Y-115032380D01*
X121692857Y-115032380D01*
X121835714Y-115080000D01*
X121883333Y-115127619D01*
X122835714Y-116032380D02*
X122264285Y-116032380D01*
X122550000Y-116032380D02*
X122550000Y-115032380D01*
X122454761Y-115175238D01*
X122359523Y-115270476D01*
X122264285Y-115318095D01*
X145902380Y-109138095D02*
X144902380Y-109138095D01*
X144902380Y-108900000D01*
X144950000Y-108757142D01*
X145045238Y-108661904D01*
X145140476Y-108614285D01*
X145330952Y-108566666D01*
X145473809Y-108566666D01*
X145664285Y-108614285D01*
X145759523Y-108661904D01*
X145854761Y-108757142D01*
X145902380Y-108900000D01*
X145902380Y-109138095D01*
X145902380Y-107614285D02*
X145902380Y-108185714D01*
X145902380Y-107900000D02*
X144902380Y-107900000D01*
X145045238Y-107995238D01*
X145140476Y-108090476D01*
X145188095Y-108185714D01*
X133002380Y-109138095D02*
X132002380Y-109138095D01*
X132002380Y-108900000D01*
X132050000Y-108757142D01*
X132145238Y-108661904D01*
X132240476Y-108614285D01*
X132430952Y-108566666D01*
X132573809Y-108566666D01*
X132764285Y-108614285D01*
X132859523Y-108661904D01*
X132954761Y-108757142D01*
X133002380Y-108900000D01*
X133002380Y-109138095D01*
X133002380Y-107614285D02*
X133002380Y-108185714D01*
X133002380Y-107900000D02*
X132002380Y-107900000D01*
X132145238Y-107995238D01*
X132240476Y-108090476D01*
X132288095Y-108185714D01*
X120102380Y-109138095D02*
X119102380Y-109138095D01*
X119102380Y-108900000D01*
X119150000Y-108757142D01*
X119245238Y-108661904D01*
X119340476Y-108614285D01*
X119530952Y-108566666D01*
X119673809Y-108566666D01*
X119864285Y-108614285D01*
X119959523Y-108661904D01*
X120054761Y-108757142D01*
X120102380Y-108900000D01*
X120102380Y-109138095D01*
X120102380Y-107614285D02*
X120102380Y-108185714D01*
X120102380Y-107900000D02*
X119102380Y-107900000D01*
X119245238Y-107995238D01*
X119340476Y-108090476D01*
X119388095Y-108185714D01*
X96083333Y-115937142D02*
X96035714Y-115984761D01*
X95892857Y-116032380D01*
X95797619Y-116032380D01*
X95654761Y-115984761D01*
X95559523Y-115889523D01*
X95511904Y-115794285D01*
X95464285Y-115603809D01*
X95464285Y-115460952D01*
X95511904Y-115270476D01*
X95559523Y-115175238D01*
X95654761Y-115080000D01*
X95797619Y-115032380D01*
X95892857Y-115032380D01*
X96035714Y-115080000D01*
X96083333Y-115127619D01*
X97035714Y-116032380D02*
X96464285Y-116032380D01*
X96750000Y-116032380D02*
X96750000Y-115032380D01*
X96654761Y-115175238D01*
X96559523Y-115270476D01*
X96464285Y-115318095D01*
X94302380Y-109138095D02*
X93302380Y-109138095D01*
X93302380Y-108900000D01*
X93350000Y-108757142D01*
X93445238Y-108661904D01*
X93540476Y-108614285D01*
X93730952Y-108566666D01*
X93873809Y-108566666D01*
X94064285Y-108614285D01*
X94159523Y-108661904D01*
X94254761Y-108757142D01*
X94302380Y-108900000D01*
X94302380Y-109138095D01*
X94302380Y-107614285D02*
X94302380Y-108185714D01*
X94302380Y-107900000D02*
X93302380Y-107900000D01*
X93445238Y-107995238D01*
X93540476Y-108090476D01*
X93588095Y-108185714D01*
X134783333Y-88937142D02*
X134735714Y-88984761D01*
X134592857Y-89032380D01*
X134497619Y-89032380D01*
X134354761Y-88984761D01*
X134259523Y-88889523D01*
X134211904Y-88794285D01*
X134164285Y-88603809D01*
X134164285Y-88460952D01*
X134211904Y-88270476D01*
X134259523Y-88175238D01*
X134354761Y-88080000D01*
X134497619Y-88032380D01*
X134592857Y-88032380D01*
X134735714Y-88080000D01*
X134783333Y-88127619D01*
X135735714Y-89032380D02*
X135164285Y-89032380D01*
X135450000Y-89032380D02*
X135450000Y-88032380D01*
X135354761Y-88175238D01*
X135259523Y-88270476D01*
X135164285Y-88318095D01*
X108983333Y-88937142D02*
X108935714Y-88984761D01*
X108792857Y-89032380D01*
X108697619Y-89032380D01*
X108554761Y-88984761D01*
X108459523Y-88889523D01*
X108411904Y-88794285D01*
X108364285Y-88603809D01*
X108364285Y-88460952D01*
X108411904Y-88270476D01*
X108459523Y-88175238D01*
X108554761Y-88080000D01*
X108697619Y-88032380D01*
X108792857Y-88032380D01*
X108935714Y-88080000D01*
X108983333Y-88127619D01*
X109935714Y-89032380D02*
X109364285Y-89032380D01*
X109650000Y-89032380D02*
X109650000Y-88032380D01*
X109554761Y-88175238D01*
X109459523Y-88270476D01*
X109364285Y-88318095D01*
X173483333Y-88937142D02*
X173435714Y-88984761D01*
X173292857Y-89032380D01*
X173197619Y-89032380D01*
X173054761Y-88984761D01*
X172959523Y-88889523D01*
X172911904Y-88794285D01*
X172864285Y-88603809D01*
X172864285Y-88460952D01*
X172911904Y-88270476D01*
X172959523Y-88175238D01*
X173054761Y-88080000D01*
X173197619Y-88032380D01*
X173292857Y-88032380D01*
X173435714Y-88080000D01*
X173483333Y-88127619D01*
X174435714Y-89032380D02*
X173864285Y-89032380D01*
X174150000Y-89032380D02*
X174150000Y-88032380D01*
X174054761Y-88175238D01*
X173959523Y-88270476D01*
X173864285Y-88318095D01*
X160583333Y-88937142D02*
X160535714Y-88984761D01*
X160392857Y-89032380D01*
X160297619Y-89032380D01*
X160154761Y-88984761D01*
X160059523Y-88889523D01*
X160011904Y-88794285D01*
X159964285Y-88603809D01*
X159964285Y-88460952D01*
X160011904Y-88270476D01*
X160059523Y-88175238D01*
X160154761Y-88080000D01*
X160297619Y-88032380D01*
X160392857Y-88032380D01*
X160535714Y-88080000D01*
X160583333Y-88127619D01*
X161535714Y-89032380D02*
X160964285Y-89032380D01*
X161250000Y-89032380D02*
X161250000Y-88032380D01*
X161154761Y-88175238D01*
X161059523Y-88270476D01*
X160964285Y-88318095D01*
X121883333Y-88937142D02*
X121835714Y-88984761D01*
X121692857Y-89032380D01*
X121597619Y-89032380D01*
X121454761Y-88984761D01*
X121359523Y-88889523D01*
X121311904Y-88794285D01*
X121264285Y-88603809D01*
X121264285Y-88460952D01*
X121311904Y-88270476D01*
X121359523Y-88175238D01*
X121454761Y-88080000D01*
X121597619Y-88032380D01*
X121692857Y-88032380D01*
X121835714Y-88080000D01*
X121883333Y-88127619D01*
X122835714Y-89032380D02*
X122264285Y-89032380D01*
X122550000Y-89032380D02*
X122550000Y-88032380D01*
X122454761Y-88175238D01*
X122359523Y-88270476D01*
X122264285Y-88318095D01*
X147683333Y-88937142D02*
X147635714Y-88984761D01*
X147492857Y-89032380D01*
X147397619Y-89032380D01*
X147254761Y-88984761D01*
X147159523Y-88889523D01*
X147111904Y-88794285D01*
X147064285Y-88603809D01*
X147064285Y-88460952D01*
X147111904Y-88270476D01*
X147159523Y-88175238D01*
X147254761Y-88080000D01*
X147397619Y-88032380D01*
X147492857Y-88032380D01*
X147635714Y-88080000D01*
X147683333Y-88127619D01*
X148635714Y-89032380D02*
X148064285Y-89032380D01*
X148350000Y-89032380D02*
X148350000Y-88032380D01*
X148254761Y-88175238D01*
X148159523Y-88270476D01*
X148064285Y-88318095D01*
X158802380Y-82138095D02*
X157802380Y-82138095D01*
X157802380Y-81900000D01*
X157850000Y-81757142D01*
X157945238Y-81661904D01*
X158040476Y-81614285D01*
X158230952Y-81566666D01*
X158373809Y-81566666D01*
X158564285Y-81614285D01*
X158659523Y-81661904D01*
X158754761Y-81757142D01*
X158802380Y-81900000D01*
X158802380Y-82138095D01*
X158802380Y-80614285D02*
X158802380Y-81185714D01*
X158802380Y-80900000D02*
X157802380Y-80900000D01*
X157945238Y-80995238D01*
X158040476Y-81090476D01*
X158088095Y-81185714D01*
X145902380Y-82138095D02*
X144902380Y-82138095D01*
X144902380Y-81900000D01*
X144950000Y-81757142D01*
X145045238Y-81661904D01*
X145140476Y-81614285D01*
X145330952Y-81566666D01*
X145473809Y-81566666D01*
X145664285Y-81614285D01*
X145759523Y-81661904D01*
X145854761Y-81757142D01*
X145902380Y-81900000D01*
X145902380Y-82138095D01*
X145902380Y-80614285D02*
X145902380Y-81185714D01*
X145902380Y-80900000D02*
X144902380Y-80900000D01*
X145045238Y-80995238D01*
X145140476Y-81090476D01*
X145188095Y-81185714D01*
X171702380Y-82138095D02*
X170702380Y-82138095D01*
X170702380Y-81900000D01*
X170750000Y-81757142D01*
X170845238Y-81661904D01*
X170940476Y-81614285D01*
X171130952Y-81566666D01*
X171273809Y-81566666D01*
X171464285Y-81614285D01*
X171559523Y-81661904D01*
X171654761Y-81757142D01*
X171702380Y-81900000D01*
X171702380Y-82138095D01*
X171702380Y-80614285D02*
X171702380Y-81185714D01*
X171702380Y-80900000D02*
X170702380Y-80900000D01*
X170845238Y-80995238D01*
X170940476Y-81090476D01*
X170988095Y-81185714D01*
X107202380Y-82138095D02*
X106202380Y-82138095D01*
X106202380Y-81900000D01*
X106250000Y-81757142D01*
X106345238Y-81661904D01*
X106440476Y-81614285D01*
X106630952Y-81566666D01*
X106773809Y-81566666D01*
X106964285Y-81614285D01*
X107059523Y-81661904D01*
X107154761Y-81757142D01*
X107202380Y-81900000D01*
X107202380Y-82138095D01*
X107202380Y-80614285D02*
X107202380Y-81185714D01*
X107202380Y-80900000D02*
X106202380Y-80900000D01*
X106345238Y-80995238D01*
X106440476Y-81090476D01*
X106488095Y-81185714D01*
X133002380Y-82138095D02*
X132002380Y-82138095D01*
X132002380Y-81900000D01*
X132050000Y-81757142D01*
X132145238Y-81661904D01*
X132240476Y-81614285D01*
X132430952Y-81566666D01*
X132573809Y-81566666D01*
X132764285Y-81614285D01*
X132859523Y-81661904D01*
X132954761Y-81757142D01*
X133002380Y-81900000D01*
X133002380Y-82138095D01*
X133002380Y-80614285D02*
X133002380Y-81185714D01*
X133002380Y-80900000D02*
X132002380Y-80900000D01*
X132145238Y-80995238D01*
X132240476Y-81090476D01*
X132288095Y-81185714D01*
X120102380Y-82138095D02*
X119102380Y-82138095D01*
X119102380Y-81900000D01*
X119150000Y-81757142D01*
X119245238Y-81661904D01*
X119340476Y-81614285D01*
X119530952Y-81566666D01*
X119673809Y-81566666D01*
X119864285Y-81614285D01*
X119959523Y-81661904D01*
X120054761Y-81757142D01*
X120102380Y-81900000D01*
X120102380Y-82138095D01*
X120102380Y-80614285D02*
X120102380Y-81185714D01*
X120102380Y-80900000D02*
X119102380Y-80900000D01*
X119245238Y-80995238D01*
X119340476Y-81090476D01*
X119388095Y-81185714D01*
X96083333Y-88937142D02*
X96035714Y-88984761D01*
X95892857Y-89032380D01*
X95797619Y-89032380D01*
X95654761Y-88984761D01*
X95559523Y-88889523D01*
X95511904Y-88794285D01*
X95464285Y-88603809D01*
X95464285Y-88460952D01*
X95511904Y-88270476D01*
X95559523Y-88175238D01*
X95654761Y-88080000D01*
X95797619Y-88032380D01*
X95892857Y-88032380D01*
X96035714Y-88080000D01*
X96083333Y-88127619D01*
X97035714Y-89032380D02*
X96464285Y-89032380D01*
X96750000Y-89032380D02*
X96750000Y-88032380D01*
X96654761Y-88175238D01*
X96559523Y-88270476D01*
X96464285Y-88318095D01*
X94302380Y-82138095D02*
X93302380Y-82138095D01*
X93302380Y-81900000D01*
X93350000Y-81757142D01*
X93445238Y-81661904D01*
X93540476Y-81614285D01*
X93730952Y-81566666D01*
X93873809Y-81566666D01*
X94064285Y-81614285D01*
X94159523Y-81661904D01*
X94254761Y-81757142D01*
X94302380Y-81900000D01*
X94302380Y-82138095D01*
X94302380Y-80614285D02*
X94302380Y-81185714D01*
X94302380Y-80900000D02*
X93302380Y-80900000D01*
X93445238Y-80995238D01*
X93540476Y-81090476D01*
X93588095Y-81185714D01*
X173483333Y-61937142D02*
X173435714Y-61984761D01*
X173292857Y-62032380D01*
X173197619Y-62032380D01*
X173054761Y-61984761D01*
X172959523Y-61889523D01*
X172911904Y-61794285D01*
X172864285Y-61603809D01*
X172864285Y-61460952D01*
X172911904Y-61270476D01*
X172959523Y-61175238D01*
X173054761Y-61080000D01*
X173197619Y-61032380D01*
X173292857Y-61032380D01*
X173435714Y-61080000D01*
X173483333Y-61127619D01*
X174435714Y-62032380D02*
X173864285Y-62032380D01*
X174150000Y-62032380D02*
X174150000Y-61032380D01*
X174054761Y-61175238D01*
X173959523Y-61270476D01*
X173864285Y-61318095D01*
X160583333Y-61937142D02*
X160535714Y-61984761D01*
X160392857Y-62032380D01*
X160297619Y-62032380D01*
X160154761Y-61984761D01*
X160059523Y-61889523D01*
X160011904Y-61794285D01*
X159964285Y-61603809D01*
X159964285Y-61460952D01*
X160011904Y-61270476D01*
X160059523Y-61175238D01*
X160154761Y-61080000D01*
X160297619Y-61032380D01*
X160392857Y-61032380D01*
X160535714Y-61080000D01*
X160583333Y-61127619D01*
X161535714Y-62032380D02*
X160964285Y-62032380D01*
X161250000Y-62032380D02*
X161250000Y-61032380D01*
X161154761Y-61175238D01*
X161059523Y-61270476D01*
X160964285Y-61318095D01*
X147683333Y-61937142D02*
X147635714Y-61984761D01*
X147492857Y-62032380D01*
X147397619Y-62032380D01*
X147254761Y-61984761D01*
X147159523Y-61889523D01*
X147111904Y-61794285D01*
X147064285Y-61603809D01*
X147064285Y-61460952D01*
X147111904Y-61270476D01*
X147159523Y-61175238D01*
X147254761Y-61080000D01*
X147397619Y-61032380D01*
X147492857Y-61032380D01*
X147635714Y-61080000D01*
X147683333Y-61127619D01*
X148635714Y-62032380D02*
X148064285Y-62032380D01*
X148350000Y-62032380D02*
X148350000Y-61032380D01*
X148254761Y-61175238D01*
X148159523Y-61270476D01*
X148064285Y-61318095D01*
X134783333Y-61937142D02*
X134735714Y-61984761D01*
X134592857Y-62032380D01*
X134497619Y-62032380D01*
X134354761Y-61984761D01*
X134259523Y-61889523D01*
X134211904Y-61794285D01*
X134164285Y-61603809D01*
X134164285Y-61460952D01*
X134211904Y-61270476D01*
X134259523Y-61175238D01*
X134354761Y-61080000D01*
X134497619Y-61032380D01*
X134592857Y-61032380D01*
X134735714Y-61080000D01*
X134783333Y-61127619D01*
X135735714Y-62032380D02*
X135164285Y-62032380D01*
X135450000Y-62032380D02*
X135450000Y-61032380D01*
X135354761Y-61175238D01*
X135259523Y-61270476D01*
X135164285Y-61318095D01*
X121883333Y-61937142D02*
X121835714Y-61984761D01*
X121692857Y-62032380D01*
X121597619Y-62032380D01*
X121454761Y-61984761D01*
X121359523Y-61889523D01*
X121311904Y-61794285D01*
X121264285Y-61603809D01*
X121264285Y-61460952D01*
X121311904Y-61270476D01*
X121359523Y-61175238D01*
X121454761Y-61080000D01*
X121597619Y-61032380D01*
X121692857Y-61032380D01*
X121835714Y-61080000D01*
X121883333Y-61127619D01*
X122835714Y-62032380D02*
X122264285Y-62032380D01*
X122550000Y-62032380D02*
X122550000Y-61032380D01*
X122454761Y-61175238D01*
X122359523Y-61270476D01*
X122264285Y-61318095D01*
X108983333Y-61937142D02*
X108935714Y-61984761D01*
X108792857Y-62032380D01*
X108697619Y-62032380D01*
X108554761Y-61984761D01*
X108459523Y-61889523D01*
X108411904Y-61794285D01*
X108364285Y-61603809D01*
X108364285Y-61460952D01*
X108411904Y-61270476D01*
X108459523Y-61175238D01*
X108554761Y-61080000D01*
X108697619Y-61032380D01*
X108792857Y-61032380D01*
X108935714Y-61080000D01*
X108983333Y-61127619D01*
X109935714Y-62032380D02*
X109364285Y-62032380D01*
X109650000Y-62032380D02*
X109650000Y-61032380D01*
X109554761Y-61175238D01*
X109459523Y-61270476D01*
X109364285Y-61318095D01*
X171702380Y-55138095D02*
X170702380Y-55138095D01*
X170702380Y-54900000D01*
X170750000Y-54757142D01*
X170845238Y-54661904D01*
X170940476Y-54614285D01*
X171130952Y-54566666D01*
X171273809Y-54566666D01*
X171464285Y-54614285D01*
X171559523Y-54661904D01*
X171654761Y-54757142D01*
X171702380Y-54900000D01*
X171702380Y-55138095D01*
X171702380Y-53614285D02*
X171702380Y-54185714D01*
X171702380Y-53900000D02*
X170702380Y-53900000D01*
X170845238Y-53995238D01*
X170940476Y-54090476D01*
X170988095Y-54185714D01*
X158802380Y-55138095D02*
X157802380Y-55138095D01*
X157802380Y-54900000D01*
X157850000Y-54757142D01*
X157945238Y-54661904D01*
X158040476Y-54614285D01*
X158230952Y-54566666D01*
X158373809Y-54566666D01*
X158564285Y-54614285D01*
X158659523Y-54661904D01*
X158754761Y-54757142D01*
X158802380Y-54900000D01*
X158802380Y-55138095D01*
X158802380Y-53614285D02*
X158802380Y-54185714D01*
X158802380Y-53900000D02*
X157802380Y-53900000D01*
X157945238Y-53995238D01*
X158040476Y-54090476D01*
X158088095Y-54185714D01*
X145902380Y-55138095D02*
X144902380Y-55138095D01*
X144902380Y-54900000D01*
X144950000Y-54757142D01*
X145045238Y-54661904D01*
X145140476Y-54614285D01*
X145330952Y-54566666D01*
X145473809Y-54566666D01*
X145664285Y-54614285D01*
X145759523Y-54661904D01*
X145854761Y-54757142D01*
X145902380Y-54900000D01*
X145902380Y-55138095D01*
X145902380Y-53614285D02*
X145902380Y-54185714D01*
X145902380Y-53900000D02*
X144902380Y-53900000D01*
X145045238Y-53995238D01*
X145140476Y-54090476D01*
X145188095Y-54185714D01*
X133002380Y-55138095D02*
X132002380Y-55138095D01*
X132002380Y-54900000D01*
X132050000Y-54757142D01*
X132145238Y-54661904D01*
X132240476Y-54614285D01*
X132430952Y-54566666D01*
X132573809Y-54566666D01*
X132764285Y-54614285D01*
X132859523Y-54661904D01*
X132954761Y-54757142D01*
X133002380Y-54900000D01*
X133002380Y-55138095D01*
X133002380Y-53614285D02*
X133002380Y-54185714D01*
X133002380Y-53900000D02*
X132002380Y-53900000D01*
X132145238Y-53995238D01*
X132240476Y-54090476D01*
X132288095Y-54185714D01*
X120102380Y-55138095D02*
X119102380Y-55138095D01*
X119102380Y-54900000D01*
X119150000Y-54757142D01*
X119245238Y-54661904D01*
X119340476Y-54614285D01*
X119530952Y-54566666D01*
X119673809Y-54566666D01*
X119864285Y-54614285D01*
X119959523Y-54661904D01*
X120054761Y-54757142D01*
X120102380Y-54900000D01*
X120102380Y-55138095D01*
X120102380Y-53614285D02*
X120102380Y-54185714D01*
X120102380Y-53900000D02*
X119102380Y-53900000D01*
X119245238Y-53995238D01*
X119340476Y-54090476D01*
X119388095Y-54185714D01*
X107202380Y-55138095D02*
X106202380Y-55138095D01*
X106202380Y-54900000D01*
X106250000Y-54757142D01*
X106345238Y-54661904D01*
X106440476Y-54614285D01*
X106630952Y-54566666D01*
X106773809Y-54566666D01*
X106964285Y-54614285D01*
X107059523Y-54661904D01*
X107154761Y-54757142D01*
X107202380Y-54900000D01*
X107202380Y-55138095D01*
X107202380Y-53614285D02*
X107202380Y-54185714D01*
X107202380Y-53900000D02*
X106202380Y-53900000D01*
X106345238Y-53995238D01*
X106440476Y-54090476D01*
X106488095Y-54185714D01*
X94302380Y-55138095D02*
X93302380Y-55138095D01*
X93302380Y-54900000D01*
X93350000Y-54757142D01*
X93445238Y-54661904D01*
X93540476Y-54614285D01*
X93730952Y-54566666D01*
X93873809Y-54566666D01*
X94064285Y-54614285D01*
X94159523Y-54661904D01*
X94254761Y-54757142D01*
X94302380Y-54900000D01*
X94302380Y-55138095D01*
X94302380Y-53614285D02*
X94302380Y-54185714D01*
X94302380Y-53900000D02*
X93302380Y-53900000D01*
X93445238Y-53995238D01*
X93540476Y-54090476D01*
X93588095Y-54185714D01*
X96083333Y-61937142D02*
X96035714Y-61984761D01*
X95892857Y-62032380D01*
X95797619Y-62032380D01*
X95654761Y-61984761D01*
X95559523Y-61889523D01*
X95511904Y-61794285D01*
X95464285Y-61603809D01*
X95464285Y-61460952D01*
X95511904Y-61270476D01*
X95559523Y-61175238D01*
X95654761Y-61080000D01*
X95797619Y-61032380D01*
X95892857Y-61032380D01*
X96035714Y-61080000D01*
X96083333Y-61127619D01*
X97035714Y-62032380D02*
X96464285Y-62032380D01*
X96750000Y-62032380D02*
X96750000Y-61032380D01*
X96654761Y-61175238D01*
X96559523Y-61270476D01*
X96464285Y-61318095D01*
M02*
