G04 #@! TF.GenerationSoftware,KiCad,Pcbnew,(5.1.5)-3*
G04 #@! TF.CreationDate,2020-06-10T08:11:37+03:00*
G04 #@! TF.ProjectId,noname,6e6f6e61-6d65-42e6-9b69-6361645f7063,rev?*
G04 #@! TF.SameCoordinates,Original*
G04 #@! TF.FileFunction,Soldermask,Bot*
G04 #@! TF.FilePolarity,Negative*
%FSLAX46Y46*%
G04 Gerber Fmt 4.6, Leading zero omitted, Abs format (unit mm)*
G04 Created by KiCad (PCBNEW (5.1.5)-3) date 2020-06-10 08:11:37*
%MOMM*%
%LPD*%
G04 APERTURE LIST*
%ADD10C,0.100000*%
%ADD11R,2.400000X1.500000*%
%ADD12R,1.050000X1.500000*%
%ADD13C,0.500000*%
%ADD14R,2.200000X1.250000*%
%ADD15R,2.200000X2.200000*%
%ADD16C,1.500000*%
%ADD17C,2.500000*%
G04 APERTURE END LIST*
D10*
G36*
X172100000Y-127200000D02*
G01*
X168900000Y-127200000D01*
X168900000Y-119700000D01*
X172100000Y-119700000D01*
X172100000Y-127200000D01*
G37*
X172100000Y-127200000D02*
X168900000Y-127200000D01*
X168900000Y-119700000D01*
X172100000Y-119700000D01*
X172100000Y-127200000D01*
G36*
X152600000Y-127200000D02*
G01*
X149400000Y-127200000D01*
X149400000Y-119700000D01*
X152600000Y-119700000D01*
X152600000Y-127200000D01*
G37*
X152600000Y-127200000D02*
X149400000Y-127200000D01*
X149400000Y-119700000D01*
X152600000Y-119700000D01*
X152600000Y-127200000D01*
G36*
X113900000Y-127200000D02*
G01*
X110700000Y-127200000D01*
X110700000Y-119700000D01*
X113900000Y-119700000D01*
X113900000Y-127200000D01*
G37*
X113900000Y-127200000D02*
X110700000Y-127200000D01*
X110700000Y-119700000D01*
X113900000Y-119700000D01*
X113900000Y-127200000D01*
G36*
X146300000Y-127200000D02*
G01*
X143100000Y-127200000D01*
X143100000Y-119700000D01*
X146300000Y-119700000D01*
X146300000Y-127200000D01*
G37*
X146300000Y-127200000D02*
X143100000Y-127200000D01*
X143100000Y-119700000D01*
X146300000Y-119700000D01*
X146300000Y-127200000D01*
G36*
X120500000Y-127200000D02*
G01*
X117300000Y-127200000D01*
X117300000Y-119700000D01*
X120500000Y-119700000D01*
X120500000Y-127200000D01*
G37*
X120500000Y-127200000D02*
X117300000Y-127200000D01*
X117300000Y-119700000D01*
X120500000Y-119700000D01*
X120500000Y-127200000D01*
G36*
X178400000Y-127200000D02*
G01*
X175200000Y-127200000D01*
X175200000Y-119700000D01*
X178400000Y-119700000D01*
X178400000Y-127200000D01*
G37*
X178400000Y-127200000D02*
X175200000Y-127200000D01*
X175200000Y-119700000D01*
X178400000Y-119700000D01*
X178400000Y-127200000D01*
G36*
X107600000Y-127200000D02*
G01*
X104400000Y-127200000D01*
X104400000Y-119700000D01*
X107600000Y-119700000D01*
X107600000Y-127200000D01*
G37*
X107600000Y-127200000D02*
X104400000Y-127200000D01*
X104400000Y-119700000D01*
X107600000Y-119700000D01*
X107600000Y-127200000D01*
G36*
X133400000Y-127200000D02*
G01*
X130200000Y-127200000D01*
X130200000Y-119700000D01*
X133400000Y-119700000D01*
X133400000Y-127200000D01*
G37*
X133400000Y-127200000D02*
X130200000Y-127200000D01*
X130200000Y-119700000D01*
X133400000Y-119700000D01*
X133400000Y-127200000D01*
G36*
X165500000Y-127200000D02*
G01*
X162300000Y-127200000D01*
X162300000Y-119700000D01*
X165500000Y-119700000D01*
X165500000Y-127200000D01*
G37*
X165500000Y-127200000D02*
X162300000Y-127200000D01*
X162300000Y-119700000D01*
X165500000Y-119700000D01*
X165500000Y-127200000D01*
G36*
X159200000Y-127200000D02*
G01*
X156000000Y-127200000D01*
X156000000Y-119700000D01*
X159200000Y-119700000D01*
X159200000Y-127200000D01*
G37*
X159200000Y-127200000D02*
X156000000Y-127200000D01*
X156000000Y-119700000D01*
X159200000Y-119700000D01*
X159200000Y-127200000D01*
G36*
X126800000Y-127200000D02*
G01*
X123600000Y-127200000D01*
X123600000Y-119700000D01*
X126800000Y-119700000D01*
X126800000Y-127200000D01*
G37*
X126800000Y-127200000D02*
X123600000Y-127200000D01*
X123600000Y-119700000D01*
X126800000Y-119700000D01*
X126800000Y-127200000D01*
G36*
X139700000Y-127200000D02*
G01*
X136500000Y-127200000D01*
X136500000Y-119700000D01*
X139700000Y-119700000D01*
X139700000Y-127200000D01*
G37*
X139700000Y-127200000D02*
X136500000Y-127200000D01*
X136500000Y-119700000D01*
X139700000Y-119700000D01*
X139700000Y-127200000D01*
G36*
X101000000Y-127200000D02*
G01*
X97800000Y-127200000D01*
X97800000Y-119700000D01*
X101000000Y-119700000D01*
X101000000Y-127200000D01*
G37*
X101000000Y-127200000D02*
X97800000Y-127200000D01*
X97800000Y-119700000D01*
X101000000Y-119700000D01*
X101000000Y-127200000D01*
G36*
X94700000Y-127200000D02*
G01*
X91500000Y-127200000D01*
X91500000Y-119700000D01*
X94700000Y-119700000D01*
X94700000Y-127200000D01*
G37*
X94700000Y-127200000D02*
X91500000Y-127200000D01*
X91500000Y-119700000D01*
X94700000Y-119700000D01*
X94700000Y-127200000D01*
G36*
X139700000Y-100200000D02*
G01*
X136500000Y-100200000D01*
X136500000Y-92700000D01*
X139700000Y-92700000D01*
X139700000Y-100200000D01*
G37*
X139700000Y-100200000D02*
X136500000Y-100200000D01*
X136500000Y-92700000D01*
X139700000Y-92700000D01*
X139700000Y-100200000D01*
G36*
X178400000Y-100200000D02*
G01*
X175200000Y-100200000D01*
X175200000Y-92700000D01*
X178400000Y-92700000D01*
X178400000Y-100200000D01*
G37*
X178400000Y-100200000D02*
X175200000Y-100200000D01*
X175200000Y-92700000D01*
X178400000Y-92700000D01*
X178400000Y-100200000D01*
G36*
X165500000Y-100200000D02*
G01*
X162300000Y-100200000D01*
X162300000Y-92700000D01*
X165500000Y-92700000D01*
X165500000Y-100200000D01*
G37*
X165500000Y-100200000D02*
X162300000Y-100200000D01*
X162300000Y-92700000D01*
X165500000Y-92700000D01*
X165500000Y-100200000D01*
G36*
X152600000Y-100200000D02*
G01*
X149400000Y-100200000D01*
X149400000Y-92700000D01*
X152600000Y-92700000D01*
X152600000Y-100200000D01*
G37*
X152600000Y-100200000D02*
X149400000Y-100200000D01*
X149400000Y-92700000D01*
X152600000Y-92700000D01*
X152600000Y-100200000D01*
G36*
X126800000Y-100200000D02*
G01*
X123600000Y-100200000D01*
X123600000Y-92700000D01*
X126800000Y-92700000D01*
X126800000Y-100200000D01*
G37*
X126800000Y-100200000D02*
X123600000Y-100200000D01*
X123600000Y-92700000D01*
X126800000Y-92700000D01*
X126800000Y-100200000D01*
G36*
X113900000Y-100200000D02*
G01*
X110700000Y-100200000D01*
X110700000Y-92700000D01*
X113900000Y-92700000D01*
X113900000Y-100200000D01*
G37*
X113900000Y-100200000D02*
X110700000Y-100200000D01*
X110700000Y-92700000D01*
X113900000Y-92700000D01*
X113900000Y-100200000D01*
G36*
X120500000Y-100200000D02*
G01*
X117300000Y-100200000D01*
X117300000Y-92700000D01*
X120500000Y-92700000D01*
X120500000Y-100200000D01*
G37*
X120500000Y-100200000D02*
X117300000Y-100200000D01*
X117300000Y-92700000D01*
X120500000Y-92700000D01*
X120500000Y-100200000D01*
G36*
X172100000Y-100200000D02*
G01*
X168900000Y-100200000D01*
X168900000Y-92700000D01*
X172100000Y-92700000D01*
X172100000Y-100200000D01*
G37*
X172100000Y-100200000D02*
X168900000Y-100200000D01*
X168900000Y-92700000D01*
X172100000Y-92700000D01*
X172100000Y-100200000D01*
G36*
X159200000Y-100200000D02*
G01*
X156000000Y-100200000D01*
X156000000Y-92700000D01*
X159200000Y-92700000D01*
X159200000Y-100200000D01*
G37*
X159200000Y-100200000D02*
X156000000Y-100200000D01*
X156000000Y-92700000D01*
X159200000Y-92700000D01*
X159200000Y-100200000D01*
G36*
X146300000Y-100200000D02*
G01*
X143100000Y-100200000D01*
X143100000Y-92700000D01*
X146300000Y-92700000D01*
X146300000Y-100200000D01*
G37*
X146300000Y-100200000D02*
X143100000Y-100200000D01*
X143100000Y-92700000D01*
X146300000Y-92700000D01*
X146300000Y-100200000D01*
G36*
X107600000Y-100200000D02*
G01*
X104400000Y-100200000D01*
X104400000Y-92700000D01*
X107600000Y-92700000D01*
X107600000Y-100200000D01*
G37*
X107600000Y-100200000D02*
X104400000Y-100200000D01*
X104400000Y-92700000D01*
X107600000Y-92700000D01*
X107600000Y-100200000D01*
G36*
X133400000Y-100200000D02*
G01*
X130200000Y-100200000D01*
X130200000Y-92700000D01*
X133400000Y-92700000D01*
X133400000Y-100200000D01*
G37*
X133400000Y-100200000D02*
X130200000Y-100200000D01*
X130200000Y-92700000D01*
X133400000Y-92700000D01*
X133400000Y-100200000D01*
G36*
X101000000Y-100200000D02*
G01*
X97800000Y-100200000D01*
X97800000Y-92700000D01*
X101000000Y-92700000D01*
X101000000Y-100200000D01*
G37*
X101000000Y-100200000D02*
X97800000Y-100200000D01*
X97800000Y-92700000D01*
X101000000Y-92700000D01*
X101000000Y-100200000D01*
G36*
X94700000Y-100200000D02*
G01*
X91500000Y-100200000D01*
X91500000Y-92700000D01*
X94700000Y-92700000D01*
X94700000Y-100200000D01*
G37*
X94700000Y-100200000D02*
X91500000Y-100200000D01*
X91500000Y-92700000D01*
X94700000Y-92700000D01*
X94700000Y-100200000D01*
G36*
X178400000Y-73200000D02*
G01*
X175200000Y-73200000D01*
X175200000Y-65700000D01*
X178400000Y-65700000D01*
X178400000Y-73200000D01*
G37*
X178400000Y-73200000D02*
X175200000Y-73200000D01*
X175200000Y-65700000D01*
X178400000Y-65700000D01*
X178400000Y-73200000D01*
G36*
X165500000Y-73200000D02*
G01*
X162300000Y-73200000D01*
X162300000Y-65700000D01*
X165500000Y-65700000D01*
X165500000Y-73200000D01*
G37*
X165500000Y-73200000D02*
X162300000Y-73200000D01*
X162300000Y-65700000D01*
X165500000Y-65700000D01*
X165500000Y-73200000D01*
G36*
X152600000Y-73200000D02*
G01*
X149400000Y-73200000D01*
X149400000Y-65700000D01*
X152600000Y-65700000D01*
X152600000Y-73200000D01*
G37*
X152600000Y-73200000D02*
X149400000Y-73200000D01*
X149400000Y-65700000D01*
X152600000Y-65700000D01*
X152600000Y-73200000D01*
G36*
X139700000Y-73200000D02*
G01*
X136500000Y-73200000D01*
X136500000Y-65700000D01*
X139700000Y-65700000D01*
X139700000Y-73200000D01*
G37*
X139700000Y-73200000D02*
X136500000Y-73200000D01*
X136500000Y-65700000D01*
X139700000Y-65700000D01*
X139700000Y-73200000D01*
G36*
X126800000Y-73200000D02*
G01*
X123600000Y-73200000D01*
X123600000Y-65700000D01*
X126800000Y-65700000D01*
X126800000Y-73200000D01*
G37*
X126800000Y-73200000D02*
X123600000Y-73200000D01*
X123600000Y-65700000D01*
X126800000Y-65700000D01*
X126800000Y-73200000D01*
G36*
X113900000Y-73200000D02*
G01*
X110700000Y-73200000D01*
X110700000Y-65700000D01*
X113900000Y-65700000D01*
X113900000Y-73200000D01*
G37*
X113900000Y-73200000D02*
X110700000Y-73200000D01*
X110700000Y-65700000D01*
X113900000Y-65700000D01*
X113900000Y-73200000D01*
G36*
X172100000Y-73200000D02*
G01*
X168900000Y-73200000D01*
X168900000Y-65700000D01*
X172100000Y-65700000D01*
X172100000Y-73200000D01*
G37*
X172100000Y-73200000D02*
X168900000Y-73200000D01*
X168900000Y-65700000D01*
X172100000Y-65700000D01*
X172100000Y-73200000D01*
G36*
X159200000Y-73200000D02*
G01*
X156000000Y-73200000D01*
X156000000Y-65700000D01*
X159200000Y-65700000D01*
X159200000Y-73200000D01*
G37*
X159200000Y-73200000D02*
X156000000Y-73200000D01*
X156000000Y-65700000D01*
X159200000Y-65700000D01*
X159200000Y-73200000D01*
G36*
X146300000Y-73200000D02*
G01*
X143100000Y-73200000D01*
X143100000Y-65700000D01*
X146300000Y-65700000D01*
X146300000Y-73200000D01*
G37*
X146300000Y-73200000D02*
X143100000Y-73200000D01*
X143100000Y-65700000D01*
X146300000Y-65700000D01*
X146300000Y-73200000D01*
G36*
X133400000Y-73200000D02*
G01*
X130200000Y-73200000D01*
X130200000Y-65700000D01*
X133400000Y-65700000D01*
X133400000Y-73200000D01*
G37*
X133400000Y-73200000D02*
X130200000Y-73200000D01*
X130200000Y-65700000D01*
X133400000Y-65700000D01*
X133400000Y-73200000D01*
G36*
X120500000Y-73200000D02*
G01*
X117300000Y-73200000D01*
X117300000Y-65700000D01*
X120500000Y-65700000D01*
X120500000Y-73200000D01*
G37*
X120500000Y-73200000D02*
X117300000Y-73200000D01*
X117300000Y-65700000D01*
X120500000Y-65700000D01*
X120500000Y-73200000D01*
G36*
X107600000Y-73200000D02*
G01*
X104400000Y-73200000D01*
X104400000Y-65700000D01*
X107600000Y-65700000D01*
X107600000Y-73200000D01*
G37*
X107600000Y-73200000D02*
X104400000Y-73200000D01*
X104400000Y-65700000D01*
X107600000Y-65700000D01*
X107600000Y-73200000D01*
G36*
X101000000Y-73200000D02*
G01*
X97800000Y-73200000D01*
X97800000Y-65700000D01*
X101000000Y-65700000D01*
X101000000Y-73200000D01*
G37*
X101000000Y-73200000D02*
X97800000Y-73200000D01*
X97800000Y-65700000D01*
X101000000Y-65700000D01*
X101000000Y-73200000D01*
G36*
X94700000Y-73200000D02*
G01*
X91500000Y-73200000D01*
X91500000Y-65700000D01*
X94700000Y-65700000D01*
X94700000Y-73200000D01*
G37*
X94700000Y-73200000D02*
X91500000Y-73200000D01*
X91500000Y-65700000D01*
X94700000Y-65700000D01*
X94700000Y-73200000D01*
D11*
X148700000Y-117400000D03*
D12*
X146325000Y-117400000D03*
D11*
X110000000Y-117400000D03*
D12*
X107625000Y-117400000D03*
D13*
X178800000Y-115300000D03*
X178800000Y-114500000D03*
X178800000Y-116100000D03*
X181400000Y-115300000D03*
X181400000Y-114500000D03*
X181400000Y-116100000D03*
D11*
X135800000Y-117400000D03*
D12*
X133425000Y-117400000D03*
D11*
X174500000Y-117400000D03*
D12*
X172125000Y-117400000D03*
D11*
X161600000Y-117400000D03*
D12*
X159225000Y-117400000D03*
D13*
X116900000Y-116100000D03*
X116900000Y-114500000D03*
X116900000Y-115300000D03*
X114300000Y-116100000D03*
X114300000Y-114500000D03*
X114300000Y-115300000D03*
D11*
X122900000Y-117400000D03*
D12*
X120525000Y-117400000D03*
D14*
X134950000Y-109775000D03*
D15*
X134950000Y-107500000D03*
D14*
X122050000Y-109775000D03*
D15*
X122050000Y-107500000D03*
D13*
X155600000Y-116100000D03*
X155600000Y-114500000D03*
X155600000Y-115300000D03*
X153000000Y-116100000D03*
X153000000Y-114500000D03*
X153000000Y-115300000D03*
D14*
X109150000Y-109775000D03*
D15*
X109150000Y-107500000D03*
D14*
X173650000Y-109775000D03*
D15*
X173650000Y-107500000D03*
D14*
X147850000Y-109775000D03*
D15*
X147850000Y-107500000D03*
D14*
X160750000Y-109775000D03*
D15*
X160750000Y-107500000D03*
D13*
X168500000Y-116100000D03*
X168500000Y-114500000D03*
X168500000Y-115300000D03*
X165900000Y-116100000D03*
X165900000Y-114500000D03*
X165900000Y-115300000D03*
X129800000Y-116100000D03*
X129800000Y-114500000D03*
X129800000Y-115300000D03*
X127200000Y-116100000D03*
X127200000Y-114500000D03*
X127200000Y-115300000D03*
X104000000Y-116100000D03*
X104000000Y-114500000D03*
X104000000Y-115300000D03*
X101400000Y-116100000D03*
X101400000Y-114500000D03*
X101400000Y-115300000D03*
X142700000Y-116100000D03*
X142700000Y-114500000D03*
X142700000Y-115300000D03*
X140100000Y-116100000D03*
X140100000Y-114500000D03*
X140100000Y-115300000D03*
D15*
X96250000Y-107500000D03*
D14*
X96250000Y-109775000D03*
D13*
X88500000Y-115300000D03*
X88500000Y-114500000D03*
X88500000Y-116100000D03*
X91100000Y-115300000D03*
X91100000Y-114500000D03*
X91100000Y-116100000D03*
D12*
X94725000Y-117400000D03*
D11*
X97100000Y-117400000D03*
D12*
X107625000Y-90400000D03*
D11*
X110000000Y-90400000D03*
D12*
X146325000Y-90400000D03*
D11*
X148700000Y-90400000D03*
D12*
X133425000Y-90400000D03*
D11*
X135800000Y-90400000D03*
D13*
X181400000Y-89100000D03*
X181400000Y-87500000D03*
X181400000Y-88300000D03*
X178800000Y-89100000D03*
X178800000Y-87500000D03*
X178800000Y-88300000D03*
D12*
X172125000Y-90400000D03*
D11*
X174500000Y-90400000D03*
D12*
X159225000Y-90400000D03*
D11*
X161600000Y-90400000D03*
D12*
X120525000Y-90400000D03*
D11*
X122900000Y-90400000D03*
D15*
X122050000Y-80500000D03*
D14*
X122050000Y-82775000D03*
D15*
X109150000Y-80500000D03*
D14*
X109150000Y-82775000D03*
D15*
X173650000Y-80500000D03*
D14*
X173650000Y-82775000D03*
D15*
X160750000Y-80500000D03*
D14*
X160750000Y-82775000D03*
D15*
X147850000Y-80500000D03*
D14*
X147850000Y-82775000D03*
D13*
X165900000Y-88300000D03*
X165900000Y-87500000D03*
X165900000Y-89100000D03*
X168500000Y-88300000D03*
X168500000Y-87500000D03*
X168500000Y-89100000D03*
X153000000Y-88300000D03*
X153000000Y-87500000D03*
X153000000Y-89100000D03*
X155600000Y-88300000D03*
X155600000Y-87500000D03*
X155600000Y-89100000D03*
X127200000Y-88300000D03*
X127200000Y-87500000D03*
X127200000Y-89100000D03*
X129800000Y-88300000D03*
X129800000Y-87500000D03*
X129800000Y-89100000D03*
X101400000Y-88300000D03*
X101400000Y-87500000D03*
X101400000Y-89100000D03*
X104000000Y-88300000D03*
X104000000Y-87500000D03*
X104000000Y-89100000D03*
X114300000Y-88300000D03*
X114300000Y-87500000D03*
X114300000Y-89100000D03*
X116900000Y-88300000D03*
X116900000Y-87500000D03*
X116900000Y-89100000D03*
D15*
X134950000Y-80500000D03*
D14*
X134950000Y-82775000D03*
D13*
X140100000Y-88300000D03*
X140100000Y-87500000D03*
X140100000Y-89100000D03*
X142700000Y-88300000D03*
X142700000Y-87500000D03*
X142700000Y-89100000D03*
D11*
X97100000Y-90400000D03*
D12*
X94725000Y-90400000D03*
D14*
X96250000Y-82775000D03*
D15*
X96250000Y-80500000D03*
D13*
X91100000Y-89100000D03*
X91100000Y-87500000D03*
X91100000Y-88300000D03*
X88500000Y-89100000D03*
X88500000Y-87500000D03*
X88500000Y-88300000D03*
X178800000Y-61300000D03*
X178800000Y-60500000D03*
X178800000Y-62100000D03*
X181400000Y-61300000D03*
X181400000Y-60500000D03*
X181400000Y-62100000D03*
D11*
X174500000Y-63400000D03*
D12*
X172125000Y-63400000D03*
D11*
X161600000Y-63400000D03*
D12*
X159225000Y-63400000D03*
D11*
X148700000Y-63400000D03*
D12*
X146325000Y-63400000D03*
D11*
X135800000Y-63400000D03*
D12*
X133425000Y-63400000D03*
D11*
X122900000Y-63400000D03*
D12*
X120525000Y-63400000D03*
D11*
X110000000Y-63400000D03*
D12*
X107625000Y-63400000D03*
D14*
X173650000Y-55775000D03*
D15*
X173650000Y-53500000D03*
D14*
X160750000Y-55775000D03*
D15*
X160750000Y-53500000D03*
D14*
X147850000Y-55775000D03*
D15*
X147850000Y-53500000D03*
D14*
X134950000Y-55775000D03*
D15*
X134950000Y-53500000D03*
D14*
X122050000Y-55775000D03*
D15*
X122050000Y-53500000D03*
D14*
X109150000Y-55775000D03*
D15*
X109150000Y-53500000D03*
D13*
X168500000Y-62100000D03*
X168500000Y-60500000D03*
X168500000Y-61300000D03*
X165900000Y-62100000D03*
X165900000Y-60500000D03*
X165900000Y-61300000D03*
X155600000Y-62100000D03*
X155600000Y-60500000D03*
X155600000Y-61300000D03*
X153000000Y-62100000D03*
X153000000Y-60500000D03*
X153000000Y-61300000D03*
X142700000Y-62100000D03*
X142700000Y-60500000D03*
X142700000Y-61300000D03*
X140100000Y-62100000D03*
X140100000Y-60500000D03*
X140100000Y-61300000D03*
X129800000Y-62100000D03*
X129800000Y-60500000D03*
X129800000Y-61300000D03*
X127200000Y-62100000D03*
X127200000Y-60500000D03*
X127200000Y-61300000D03*
X116900000Y-62100000D03*
X116900000Y-60500000D03*
X116900000Y-61300000D03*
X114300000Y-62100000D03*
X114300000Y-60500000D03*
X114300000Y-61300000D03*
X104000000Y-62100000D03*
X104000000Y-60500000D03*
X104000000Y-61300000D03*
X101400000Y-62100000D03*
X101400000Y-60500000D03*
X101400000Y-61300000D03*
D16*
X171000000Y-133900000D03*
X86500000Y-65400000D03*
X167000000Y-42900000D03*
D17*
X89000000Y-134400000D03*
X181000000Y-134400000D03*
X181000000Y-42400000D03*
X89000000Y-42400000D03*
D13*
X88500000Y-61300000D03*
X88500000Y-60500000D03*
X88500000Y-62100000D03*
X91100000Y-61300000D03*
X91100000Y-60500000D03*
X91100000Y-62100000D03*
D15*
X96250000Y-53500000D03*
D14*
X96250000Y-55775000D03*
D12*
X94725000Y-63400000D03*
D11*
X97100000Y-63400000D03*
M02*
