G04 #@! TF.GenerationSoftware,KiCad,Pcbnew,(5.1.5)-3*
G04 #@! TF.CreationDate,2020-06-10T08:11:37+03:00*
G04 #@! TF.ProjectId,noname,6e6f6e61-6d65-42e6-9b69-6361645f7063,rev?*
G04 #@! TF.SameCoordinates,Original*
G04 #@! TF.FileFunction,Copper,L2,Bot*
G04 #@! TF.FilePolarity,Positive*
%FSLAX46Y46*%
G04 Gerber Fmt 4.6, Leading zero omitted, Abs format (unit mm)*
G04 Created by KiCad (PCBNEW (5.1.5)-3) date 2020-06-10 08:11:37*
%MOMM*%
%LPD*%
G04 APERTURE LIST*
%ADD10R,2.400000X1.500000*%
%ADD11R,1.050000X1.500000*%
%ADD12R,2.200000X1.250000*%
%ADD13R,2.200000X2.200000*%
%ADD14C,0.750000*%
%ADD15C,0.800000*%
%ADD16C,0.254000*%
G04 APERTURE END LIST*
D10*
X148700000Y-117400000D03*
D11*
X146325000Y-117400000D03*
D10*
X110000000Y-117400000D03*
D11*
X107625000Y-117400000D03*
D10*
X135800000Y-117400000D03*
D11*
X133425000Y-117400000D03*
D10*
X174500000Y-117400000D03*
D11*
X172125000Y-117400000D03*
D10*
X161600000Y-117400000D03*
D11*
X159225000Y-117400000D03*
D10*
X122900000Y-117400000D03*
D11*
X120525000Y-117400000D03*
D12*
X134950000Y-109775000D03*
D13*
X134950000Y-107500000D03*
D12*
X122050000Y-109775000D03*
D13*
X122050000Y-107500000D03*
D12*
X109150000Y-109775000D03*
D13*
X109150000Y-107500000D03*
D12*
X173650000Y-109775000D03*
D13*
X173650000Y-107500000D03*
D12*
X147850000Y-109775000D03*
D13*
X147850000Y-107500000D03*
D12*
X160750000Y-109775000D03*
D13*
X160750000Y-107500000D03*
X96250000Y-107500000D03*
D12*
X96250000Y-109775000D03*
D11*
X94725000Y-117400000D03*
D10*
X97100000Y-117400000D03*
D11*
X107625000Y-90400000D03*
D10*
X110000000Y-90400000D03*
D11*
X146325000Y-90400000D03*
D10*
X148700000Y-90400000D03*
D11*
X133425000Y-90400000D03*
D10*
X135800000Y-90400000D03*
D11*
X172125000Y-90400000D03*
D10*
X174500000Y-90400000D03*
D11*
X159225000Y-90400000D03*
D10*
X161600000Y-90400000D03*
D11*
X120525000Y-90400000D03*
D10*
X122900000Y-90400000D03*
D13*
X122050000Y-80500000D03*
D12*
X122050000Y-82775000D03*
D13*
X109150000Y-80500000D03*
D12*
X109150000Y-82775000D03*
D13*
X173650000Y-80500000D03*
D12*
X173650000Y-82775000D03*
D13*
X160750000Y-80500000D03*
D12*
X160750000Y-82775000D03*
D13*
X147850000Y-80500000D03*
D12*
X147850000Y-82775000D03*
D13*
X134950000Y-80500000D03*
D12*
X134950000Y-82775000D03*
D10*
X97100000Y-90400000D03*
D11*
X94725000Y-90400000D03*
D12*
X96250000Y-82775000D03*
D13*
X96250000Y-80500000D03*
D10*
X174500000Y-63400000D03*
D11*
X172125000Y-63400000D03*
D10*
X161600000Y-63400000D03*
D11*
X159225000Y-63400000D03*
D10*
X148700000Y-63400000D03*
D11*
X146325000Y-63400000D03*
D10*
X135800000Y-63400000D03*
D11*
X133425000Y-63400000D03*
D10*
X122900000Y-63400000D03*
D11*
X120525000Y-63400000D03*
D10*
X110000000Y-63400000D03*
D11*
X107625000Y-63400000D03*
D12*
X173650000Y-55775000D03*
D13*
X173650000Y-53500000D03*
D12*
X160750000Y-55775000D03*
D13*
X160750000Y-53500000D03*
D12*
X147850000Y-55775000D03*
D13*
X147850000Y-53500000D03*
D12*
X134950000Y-55775000D03*
D13*
X134950000Y-53500000D03*
D12*
X122050000Y-55775000D03*
D13*
X122050000Y-53500000D03*
D12*
X109150000Y-55775000D03*
D13*
X109150000Y-53500000D03*
D14*
X171000000Y-133900000D03*
X86500000Y-65400000D03*
X167000000Y-42900000D03*
D13*
X96250000Y-53500000D03*
D12*
X96250000Y-55775000D03*
D11*
X94725000Y-63400000D03*
D10*
X97100000Y-63400000D03*
D15*
X93100000Y-72400000D03*
X93100000Y-71400000D03*
X93100000Y-70400000D03*
X93100000Y-69400000D03*
X93100000Y-68400000D03*
X93100000Y-67400000D03*
X93100000Y-66400000D03*
X106000000Y-68400000D03*
X118900000Y-68400000D03*
X131800000Y-68400000D03*
X144700000Y-68400000D03*
X157600000Y-68400000D03*
X170500000Y-68400000D03*
X106000000Y-70400000D03*
X118900000Y-70400000D03*
X131800000Y-70400000D03*
X144700000Y-70400000D03*
X157600000Y-70400000D03*
X170500000Y-70400000D03*
X106000000Y-71400000D03*
X118900000Y-71400000D03*
X131800000Y-71400000D03*
X144700000Y-71400000D03*
X157600000Y-71400000D03*
X170500000Y-71400000D03*
X106000000Y-66400000D03*
X118900000Y-66400000D03*
X131800000Y-66400000D03*
X144700000Y-66400000D03*
X157600000Y-66400000D03*
X170500000Y-66400000D03*
X106000000Y-72400000D03*
X118900000Y-72400000D03*
X131800000Y-72400000D03*
X144700000Y-72400000D03*
X157600000Y-72400000D03*
X170500000Y-72400000D03*
X106000000Y-69400000D03*
X118900000Y-69400000D03*
X131800000Y-69400000D03*
X144700000Y-69400000D03*
X157600000Y-69400000D03*
X170500000Y-69400000D03*
X106000000Y-67400000D03*
X118900000Y-67400000D03*
X131800000Y-67400000D03*
X144700000Y-67400000D03*
X157600000Y-67400000D03*
X170500000Y-67400000D03*
X93100000Y-95400000D03*
X93100000Y-97400000D03*
X93100000Y-98400000D03*
X93100000Y-93400000D03*
X93100000Y-99400000D03*
X93100000Y-96400000D03*
X93100000Y-94400000D03*
X170500000Y-98400000D03*
X144700000Y-98400000D03*
X131800000Y-98400000D03*
X106000000Y-98400000D03*
X157600000Y-98400000D03*
X118900000Y-98400000D03*
X157600000Y-99400000D03*
X118900000Y-99400000D03*
X106000000Y-99400000D03*
X106000000Y-93400000D03*
X118900000Y-93400000D03*
X131800000Y-93400000D03*
X144700000Y-93400000D03*
X131800000Y-99400000D03*
X144700000Y-99400000D03*
X170500000Y-99400000D03*
X170500000Y-93400000D03*
X157600000Y-93400000D03*
X170500000Y-95400000D03*
X144700000Y-95400000D03*
X157600000Y-95400000D03*
X157600000Y-97400000D03*
X144700000Y-97400000D03*
X170500000Y-97400000D03*
X131800000Y-97400000D03*
X106000000Y-94400000D03*
X157600000Y-94400000D03*
X131800000Y-94400000D03*
X144700000Y-94400000D03*
X170500000Y-94400000D03*
X118900000Y-94400000D03*
X144700000Y-96400000D03*
X106000000Y-96400000D03*
X118900000Y-96400000D03*
X131800000Y-96400000D03*
X170500000Y-96400000D03*
X157600000Y-96400000D03*
X131800000Y-95400000D03*
X106000000Y-95400000D03*
X118900000Y-95400000D03*
X106000000Y-97400000D03*
X118900000Y-97400000D03*
X106000000Y-125400000D03*
X157600000Y-125400000D03*
X118900000Y-125400000D03*
X131800000Y-125400000D03*
X157600000Y-123400000D03*
X106000000Y-122400000D03*
X106000000Y-123400000D03*
X118900000Y-122400000D03*
X118900000Y-121400000D03*
X144700000Y-123400000D03*
X170500000Y-123400000D03*
X131800000Y-122400000D03*
X118900000Y-123400000D03*
X131800000Y-123400000D03*
X170500000Y-122400000D03*
X157600000Y-121400000D03*
X157600000Y-122400000D03*
X131800000Y-124400000D03*
X144700000Y-121400000D03*
X170500000Y-121400000D03*
X157600000Y-124400000D03*
X144700000Y-124400000D03*
X170500000Y-124400000D03*
X131800000Y-121400000D03*
X144700000Y-122400000D03*
X106000000Y-121400000D03*
X106000000Y-126400000D03*
X106000000Y-120400000D03*
X131800000Y-120400000D03*
X144700000Y-120400000D03*
X144700000Y-126400000D03*
X157600000Y-126400000D03*
X118900000Y-120400000D03*
X118900000Y-126400000D03*
X131800000Y-126400000D03*
X170500000Y-120400000D03*
X157600000Y-120400000D03*
X170500000Y-126400000D03*
X118900000Y-124400000D03*
X106000000Y-124400000D03*
X93100000Y-125400000D03*
X93100000Y-124400000D03*
X93100000Y-121400000D03*
X93100000Y-120400000D03*
X93100000Y-122400000D03*
X93100000Y-126400000D03*
X170500000Y-125400000D03*
X93100000Y-123400000D03*
X144700000Y-125400000D03*
X99400000Y-72400000D03*
X99400000Y-71400000D03*
X99400000Y-70400000D03*
X99400000Y-69400000D03*
X99400000Y-68400000D03*
X99400000Y-67400000D03*
X99400000Y-66400000D03*
X99400000Y-64300000D03*
X99400000Y-63400000D03*
X99400000Y-62400000D03*
X112300000Y-70400000D03*
X125200000Y-70400000D03*
X138100000Y-70400000D03*
X151000000Y-70400000D03*
X163900000Y-70400000D03*
X176800000Y-70400000D03*
X112300000Y-69400000D03*
X125200000Y-69400000D03*
X138100000Y-69400000D03*
X151000000Y-69400000D03*
X163900000Y-69400000D03*
X176800000Y-69400000D03*
X112300000Y-68400000D03*
X125200000Y-68400000D03*
X138100000Y-68400000D03*
X151000000Y-68400000D03*
X163900000Y-68400000D03*
X176800000Y-68400000D03*
X112300000Y-66400000D03*
X125200000Y-66400000D03*
X138100000Y-66400000D03*
X151000000Y-66400000D03*
X163900000Y-66400000D03*
X176800000Y-66400000D03*
X112300000Y-63400000D03*
X125200000Y-63400000D03*
X138100000Y-63400000D03*
X151000000Y-63400000D03*
X163900000Y-63400000D03*
X176800000Y-63400000D03*
X112300000Y-72400000D03*
X125200000Y-72400000D03*
X138100000Y-72400000D03*
X151000000Y-72400000D03*
X163900000Y-72400000D03*
X176800000Y-72400000D03*
X112300000Y-71400000D03*
X125200000Y-71400000D03*
X138100000Y-71400000D03*
X151000000Y-71400000D03*
X163900000Y-71400000D03*
X176800000Y-71400000D03*
X112300000Y-64300000D03*
X125200000Y-64300000D03*
X138100000Y-64300000D03*
X151000000Y-64300000D03*
X163900000Y-64300000D03*
X176800000Y-64300000D03*
X112300000Y-67400000D03*
X125200000Y-67400000D03*
X138100000Y-67400000D03*
X151000000Y-67400000D03*
X163900000Y-67400000D03*
X176800000Y-67400000D03*
X112300000Y-62400000D03*
X125200000Y-62400000D03*
X138100000Y-62400000D03*
X151000000Y-62400000D03*
X163900000Y-62400000D03*
X176800000Y-62400000D03*
X99400000Y-97400000D03*
X99400000Y-96400000D03*
X99400000Y-95400000D03*
X99400000Y-93400000D03*
X99400000Y-90400000D03*
X99400000Y-99400000D03*
X99400000Y-98400000D03*
X99400000Y-91300000D03*
X99400000Y-94400000D03*
X99400000Y-89400000D03*
X112300000Y-91300000D03*
X163900000Y-91300000D03*
X176800000Y-91300000D03*
X138100000Y-91300000D03*
X125200000Y-91300000D03*
X151000000Y-91300000D03*
X112300000Y-98400000D03*
X125200000Y-98400000D03*
X176800000Y-98400000D03*
X138100000Y-98400000D03*
X151000000Y-98400000D03*
X163900000Y-98400000D03*
X112300000Y-96400000D03*
X176800000Y-96400000D03*
X125200000Y-96400000D03*
X151000000Y-96400000D03*
X138100000Y-96400000D03*
X163900000Y-96400000D03*
X138100000Y-95400000D03*
X112300000Y-95400000D03*
X151000000Y-95400000D03*
X112300000Y-93400000D03*
X138100000Y-93400000D03*
X176800000Y-93400000D03*
X176800000Y-95400000D03*
X151000000Y-93400000D03*
X163900000Y-93400000D03*
X125200000Y-95400000D03*
X163900000Y-95400000D03*
X125200000Y-93400000D03*
X176800000Y-99400000D03*
X125200000Y-99400000D03*
X112300000Y-99400000D03*
X138100000Y-99400000D03*
X151000000Y-99400000D03*
X163900000Y-99400000D03*
X151000000Y-89400000D03*
X163900000Y-89400000D03*
X125200000Y-89400000D03*
X176800000Y-89400000D03*
X138100000Y-89400000D03*
X112300000Y-89400000D03*
X112300000Y-94400000D03*
X163900000Y-94400000D03*
X138100000Y-94400000D03*
X176800000Y-94400000D03*
X151000000Y-94400000D03*
X125200000Y-94400000D03*
X112300000Y-97400000D03*
X138100000Y-97400000D03*
X176800000Y-97400000D03*
X163900000Y-97400000D03*
X125200000Y-97400000D03*
X151000000Y-97400000D03*
X151000000Y-90400000D03*
X112300000Y-90400000D03*
X163900000Y-90400000D03*
X125200000Y-90400000D03*
X138100000Y-90400000D03*
X176800000Y-90400000D03*
X138100000Y-125400000D03*
X151000000Y-125400000D03*
X163900000Y-125400000D03*
X112300000Y-121400000D03*
X125200000Y-121400000D03*
X125200000Y-116400000D03*
X176800000Y-121400000D03*
X176800000Y-124400000D03*
X176800000Y-116400000D03*
X112300000Y-124400000D03*
X112300000Y-116400000D03*
X125200000Y-124400000D03*
X138100000Y-121400000D03*
X163900000Y-124400000D03*
X163900000Y-121400000D03*
X138100000Y-124400000D03*
X151000000Y-124400000D03*
X151000000Y-121400000D03*
X138100000Y-116400000D03*
X163900000Y-116400000D03*
X151000000Y-122400000D03*
X125200000Y-126400000D03*
X138100000Y-123400000D03*
X125200000Y-120400000D03*
X176800000Y-123400000D03*
X163900000Y-122400000D03*
X138100000Y-126400000D03*
X112300000Y-126400000D03*
X151000000Y-116400000D03*
X163900000Y-123400000D03*
X112300000Y-123400000D03*
X125200000Y-123400000D03*
X163900000Y-126400000D03*
X163900000Y-120400000D03*
X112300000Y-120400000D03*
X151000000Y-120400000D03*
X138100000Y-120400000D03*
X176800000Y-120400000D03*
X138100000Y-122400000D03*
X125200000Y-122400000D03*
X151000000Y-123400000D03*
X112300000Y-122400000D03*
X176800000Y-122400000D03*
X176800000Y-126400000D03*
X151000000Y-126400000D03*
X112300000Y-117400000D03*
X151000000Y-117400000D03*
X138100000Y-117400000D03*
X125200000Y-117400000D03*
X176800000Y-117400000D03*
X163900000Y-117400000D03*
X99400000Y-117400000D03*
X99400000Y-121400000D03*
X99400000Y-125400000D03*
X99400000Y-118300000D03*
X163900000Y-118300000D03*
X176800000Y-118300000D03*
X138100000Y-118300000D03*
X151000000Y-118300000D03*
X99400000Y-123400000D03*
X99400000Y-122400000D03*
X99400000Y-126400000D03*
X99400000Y-124400000D03*
X99400000Y-116400000D03*
X125200000Y-118300000D03*
X99400000Y-120400000D03*
X112300000Y-118300000D03*
X112300000Y-125400000D03*
X125200000Y-125400000D03*
X176800000Y-125400000D03*
X98400000Y-55400000D03*
X99400000Y-55400000D03*
X100400000Y-55400000D03*
X100400000Y-54400000D03*
X99400000Y-54400000D03*
X98400000Y-54400000D03*
X98400000Y-53400000D03*
X99400000Y-53400000D03*
X100400000Y-53400000D03*
X112300000Y-55400000D03*
X125200000Y-55400000D03*
X138100000Y-55400000D03*
X151000000Y-55400000D03*
X163900000Y-55400000D03*
X176800000Y-55400000D03*
X112300000Y-54400000D03*
X125200000Y-54400000D03*
X138100000Y-54400000D03*
X151000000Y-54400000D03*
X163900000Y-54400000D03*
X176800000Y-54400000D03*
X111300000Y-55400000D03*
X124200000Y-55400000D03*
X137100000Y-55400000D03*
X150000000Y-55400000D03*
X162900000Y-55400000D03*
X175800000Y-55400000D03*
X113300000Y-54400000D03*
X126200000Y-54400000D03*
X139100000Y-54400000D03*
X152000000Y-54400000D03*
X164900000Y-54400000D03*
X177800000Y-54400000D03*
X113300000Y-55400000D03*
X126200000Y-55400000D03*
X139100000Y-55400000D03*
X152000000Y-55400000D03*
X164900000Y-55400000D03*
X177800000Y-55400000D03*
X111300000Y-54400000D03*
X124200000Y-54400000D03*
X137100000Y-54400000D03*
X150000000Y-54400000D03*
X162900000Y-54400000D03*
X175800000Y-54400000D03*
X112300000Y-53400000D03*
X125200000Y-53400000D03*
X138100000Y-53400000D03*
X151000000Y-53400000D03*
X163900000Y-53400000D03*
X176800000Y-53400000D03*
X113300000Y-53400000D03*
X126200000Y-53400000D03*
X139100000Y-53400000D03*
X152000000Y-53400000D03*
X164900000Y-53400000D03*
X177800000Y-53400000D03*
X111300000Y-53400000D03*
X124200000Y-53400000D03*
X137100000Y-53400000D03*
X150000000Y-53400000D03*
X162900000Y-53400000D03*
X175800000Y-53400000D03*
X99400000Y-82400000D03*
X99400000Y-81400000D03*
X98400000Y-82400000D03*
X100400000Y-81400000D03*
X100400000Y-82400000D03*
X98400000Y-81400000D03*
X137100000Y-82400000D03*
X124200000Y-82400000D03*
X162900000Y-82400000D03*
X150000000Y-82400000D03*
X175800000Y-82400000D03*
X113300000Y-81400000D03*
X139100000Y-81400000D03*
X152000000Y-81400000D03*
X164900000Y-81400000D03*
X111300000Y-82400000D03*
X126200000Y-81400000D03*
X99400000Y-80400000D03*
X100400000Y-80400000D03*
X98400000Y-80400000D03*
X177800000Y-81400000D03*
X112300000Y-81400000D03*
X125200000Y-81400000D03*
X138100000Y-81400000D03*
X163900000Y-81400000D03*
X176800000Y-81400000D03*
X151000000Y-81400000D03*
X152000000Y-82400000D03*
X113300000Y-82400000D03*
X177800000Y-82400000D03*
X126200000Y-82400000D03*
X139100000Y-82400000D03*
X164900000Y-82400000D03*
X162900000Y-81400000D03*
X175800000Y-81400000D03*
X112300000Y-80400000D03*
X137100000Y-81400000D03*
X111300000Y-81400000D03*
X150000000Y-81400000D03*
X124200000Y-81400000D03*
X111300000Y-80400000D03*
X124200000Y-80400000D03*
X137100000Y-80400000D03*
X150000000Y-80400000D03*
X162900000Y-80400000D03*
X175800000Y-80400000D03*
X138100000Y-80400000D03*
X126200000Y-80400000D03*
X176800000Y-80400000D03*
X152000000Y-80400000D03*
X125200000Y-80400000D03*
X163900000Y-80400000D03*
X113300000Y-80400000D03*
X164900000Y-80400000D03*
X177800000Y-80400000D03*
X139100000Y-80400000D03*
X151000000Y-80400000D03*
X151000000Y-82400000D03*
X163900000Y-82400000D03*
X138100000Y-82400000D03*
X125200000Y-82400000D03*
X112300000Y-82400000D03*
X176800000Y-82400000D03*
X111300000Y-108400000D03*
X138100000Y-107400000D03*
X126200000Y-107400000D03*
X152000000Y-107400000D03*
X124200000Y-108400000D03*
X137100000Y-107400000D03*
X175800000Y-107400000D03*
X139100000Y-109400000D03*
X112300000Y-107400000D03*
X175800000Y-108400000D03*
X111300000Y-107400000D03*
X176800000Y-107400000D03*
X113300000Y-109400000D03*
X150000000Y-108400000D03*
X125200000Y-107400000D03*
X126200000Y-109400000D03*
X164900000Y-109400000D03*
X162900000Y-108400000D03*
X137100000Y-108400000D03*
X124200000Y-107400000D03*
X162900000Y-107400000D03*
X177800000Y-109400000D03*
X150000000Y-107400000D03*
X163900000Y-108400000D03*
X176800000Y-108400000D03*
X138100000Y-108400000D03*
X125200000Y-108400000D03*
X151000000Y-108400000D03*
X152000000Y-109400000D03*
X112300000Y-108400000D03*
X177800000Y-108400000D03*
X99400000Y-107400000D03*
X100400000Y-107400000D03*
X98400000Y-107400000D03*
X151000000Y-109400000D03*
X163900000Y-109400000D03*
X177800000Y-107400000D03*
X151000000Y-107400000D03*
X138100000Y-109400000D03*
X176800000Y-109400000D03*
X163900000Y-107400000D03*
X139100000Y-107400000D03*
X113300000Y-107400000D03*
X125200000Y-109400000D03*
X112300000Y-109400000D03*
X164900000Y-107400000D03*
X100400000Y-109400000D03*
X100400000Y-108400000D03*
X99400000Y-109400000D03*
X98400000Y-109400000D03*
X137100000Y-109400000D03*
X124200000Y-109400000D03*
X99400000Y-108400000D03*
X175800000Y-109400000D03*
X113300000Y-108400000D03*
X139100000Y-108400000D03*
X152000000Y-108400000D03*
X164900000Y-108400000D03*
X162900000Y-109400000D03*
X150000000Y-109400000D03*
X111300000Y-109400000D03*
X126200000Y-108400000D03*
X98400000Y-108400000D03*
D16*
G36*
X94573000Y-73023000D02*
G01*
X91677000Y-73023000D01*
X91677000Y-65832278D01*
X94573000Y-65832278D01*
X94573000Y-73023000D01*
G37*
X94573000Y-73023000D02*
X91677000Y-73023000D01*
X91677000Y-65832278D01*
X94573000Y-65832278D01*
X94573000Y-73023000D01*
G36*
X100823000Y-73023000D02*
G01*
X97927000Y-73023000D01*
X97927000Y-65700000D01*
X97924560Y-65675224D01*
X97917333Y-65651399D01*
X97905597Y-65629443D01*
X97889803Y-65610197D01*
X97870557Y-65594403D01*
X97848601Y-65582667D01*
X97824776Y-65575440D01*
X97800000Y-65573000D01*
X95927000Y-65573000D01*
X95927000Y-61627000D01*
X100823001Y-61627000D01*
X100823000Y-73023000D01*
G37*
X100823000Y-73023000D02*
X97927000Y-73023000D01*
X97927000Y-65700000D01*
X97924560Y-65675224D01*
X97917333Y-65651399D01*
X97905597Y-65629443D01*
X97889803Y-65610197D01*
X97870557Y-65594403D01*
X97848601Y-65582667D01*
X97824776Y-65575440D01*
X97800000Y-65573000D01*
X95927000Y-65573000D01*
X95927000Y-61627000D01*
X100823001Y-61627000D01*
X100823000Y-73023000D01*
G36*
X99514891Y-49809684D02*
G01*
X99817787Y-49901133D01*
X100097155Y-50049676D01*
X100342348Y-50249651D01*
X100544027Y-50493438D01*
X100694517Y-50771764D01*
X100788079Y-51074013D01*
X100823001Y-51406273D01*
X100823001Y-61173000D01*
X96527000Y-61173000D01*
X96527000Y-56600000D01*
X96524560Y-56575224D01*
X96517333Y-56551399D01*
X96505597Y-56529443D01*
X96489803Y-56510197D01*
X96470557Y-56494403D01*
X96448601Y-56482667D01*
X96424776Y-56475440D01*
X96400000Y-56473000D01*
X95027000Y-56473000D01*
X95027000Y-55027000D01*
X97800000Y-55027000D01*
X97824776Y-55024560D01*
X97848601Y-55017333D01*
X97870557Y-55005597D01*
X97889803Y-54989803D01*
X97905597Y-54970557D01*
X97917333Y-54948601D01*
X97924560Y-54924776D01*
X97927000Y-54900000D01*
X97927000Y-52000000D01*
X97924560Y-51975224D01*
X97917333Y-51951399D01*
X97905597Y-51929443D01*
X97889803Y-51910197D01*
X97870557Y-51894403D01*
X97848601Y-51882667D01*
X97824776Y-51875440D01*
X97800000Y-51873000D01*
X96527000Y-51873000D01*
X96527000Y-49777000D01*
X99181558Y-49777000D01*
X99514891Y-49809684D01*
G37*
X99514891Y-49809684D02*
X99817787Y-49901133D01*
X100097155Y-50049676D01*
X100342348Y-50249651D01*
X100544027Y-50493438D01*
X100694517Y-50771764D01*
X100788079Y-51074013D01*
X100823001Y-51406273D01*
X100823001Y-61173000D01*
X96527000Y-61173000D01*
X96527000Y-56600000D01*
X96524560Y-56575224D01*
X96517333Y-56551399D01*
X96505597Y-56529443D01*
X96489803Y-56510197D01*
X96470557Y-56494403D01*
X96448601Y-56482667D01*
X96424776Y-56475440D01*
X96400000Y-56473000D01*
X95027000Y-56473000D01*
X95027000Y-55027000D01*
X97800000Y-55027000D01*
X97824776Y-55024560D01*
X97848601Y-55017333D01*
X97870557Y-55005597D01*
X97889803Y-54989803D01*
X97905597Y-54970557D01*
X97917333Y-54948601D01*
X97924560Y-54924776D01*
X97927000Y-54900000D01*
X97927000Y-52000000D01*
X97924560Y-51975224D01*
X97917333Y-51951399D01*
X97905597Y-51929443D01*
X97889803Y-51910197D01*
X97870557Y-51894403D01*
X97848601Y-51882667D01*
X97824776Y-51875440D01*
X97800000Y-51873000D01*
X96527000Y-51873000D01*
X96527000Y-49777000D01*
X99181558Y-49777000D01*
X99514891Y-49809684D01*
G36*
X95973000Y-52200000D02*
G01*
X95975440Y-52224776D01*
X95982667Y-52248601D01*
X95994403Y-52270557D01*
X96010197Y-52289803D01*
X96029443Y-52305597D01*
X96051399Y-52317333D01*
X96075224Y-52324560D01*
X96100000Y-52327000D01*
X97473000Y-52327000D01*
X97473000Y-54573000D01*
X94700000Y-54573000D01*
X94675224Y-54575440D01*
X94651399Y-54582667D01*
X94629443Y-54594403D01*
X94610197Y-54610197D01*
X94594403Y-54629443D01*
X94582667Y-54651399D01*
X94575440Y-54675224D01*
X94573000Y-54700000D01*
X94573000Y-56800000D01*
X94575440Y-56824776D01*
X94582667Y-56848601D01*
X94594403Y-56870557D01*
X94610197Y-56889803D01*
X94629443Y-56905597D01*
X94651399Y-56917333D01*
X94675224Y-56924560D01*
X94700000Y-56927000D01*
X95973000Y-56927000D01*
X95973000Y-61173000D01*
X95600000Y-61173000D01*
X95575224Y-61175440D01*
X95551399Y-61182667D01*
X95529443Y-61194403D01*
X95510197Y-61210197D01*
X95494403Y-61229443D01*
X95482667Y-61251399D01*
X95475440Y-61275224D01*
X95473000Y-61300000D01*
X95473000Y-65173000D01*
X91677000Y-65173000D01*
X91677000Y-51418442D01*
X91709684Y-51085109D01*
X91801133Y-50782213D01*
X91949676Y-50502845D01*
X92149651Y-50257652D01*
X92393438Y-50055973D01*
X92671764Y-49905483D01*
X92974013Y-49811921D01*
X93306263Y-49777000D01*
X95973000Y-49777000D01*
X95973000Y-52200000D01*
G37*
X95973000Y-52200000D02*
X95975440Y-52224776D01*
X95982667Y-52248601D01*
X95994403Y-52270557D01*
X96010197Y-52289803D01*
X96029443Y-52305597D01*
X96051399Y-52317333D01*
X96075224Y-52324560D01*
X96100000Y-52327000D01*
X97473000Y-52327000D01*
X97473000Y-54573000D01*
X94700000Y-54573000D01*
X94675224Y-54575440D01*
X94651399Y-54582667D01*
X94629443Y-54594403D01*
X94610197Y-54610197D01*
X94594403Y-54629443D01*
X94582667Y-54651399D01*
X94575440Y-54675224D01*
X94573000Y-54700000D01*
X94573000Y-56800000D01*
X94575440Y-56824776D01*
X94582667Y-56848601D01*
X94594403Y-56870557D01*
X94610197Y-56889803D01*
X94629443Y-56905597D01*
X94651399Y-56917333D01*
X94675224Y-56924560D01*
X94700000Y-56927000D01*
X95973000Y-56927000D01*
X95973000Y-61173000D01*
X95600000Y-61173000D01*
X95575224Y-61175440D01*
X95551399Y-61182667D01*
X95529443Y-61194403D01*
X95510197Y-61210197D01*
X95494403Y-61229443D01*
X95482667Y-61251399D01*
X95475440Y-61275224D01*
X95473000Y-61300000D01*
X95473000Y-65173000D01*
X91677000Y-65173000D01*
X91677000Y-51418442D01*
X91709684Y-51085109D01*
X91801133Y-50782213D01*
X91949676Y-50502845D01*
X92149651Y-50257652D01*
X92393438Y-50055973D01*
X92671764Y-49905483D01*
X92974013Y-49811921D01*
X93306263Y-49777000D01*
X95973000Y-49777000D01*
X95973000Y-52200000D01*
G36*
X107473000Y-73023000D02*
G01*
X104577000Y-73023000D01*
X104577000Y-65832278D01*
X107473000Y-65832278D01*
X107473000Y-73023000D01*
G37*
X107473000Y-73023000D02*
X104577000Y-73023000D01*
X104577000Y-65832278D01*
X107473000Y-65832278D01*
X107473000Y-73023000D01*
G36*
X120373000Y-73023000D02*
G01*
X117477000Y-73023000D01*
X117477000Y-65832278D01*
X120373000Y-65832278D01*
X120373000Y-73023000D01*
G37*
X120373000Y-73023000D02*
X117477000Y-73023000D01*
X117477000Y-65832278D01*
X120373000Y-65832278D01*
X120373000Y-73023000D01*
G36*
X133273000Y-73023000D02*
G01*
X130377000Y-73023000D01*
X130377000Y-65832278D01*
X133273000Y-65832278D01*
X133273000Y-73023000D01*
G37*
X133273000Y-73023000D02*
X130377000Y-73023000D01*
X130377000Y-65832278D01*
X133273000Y-65832278D01*
X133273000Y-73023000D01*
G36*
X146173000Y-73023000D02*
G01*
X143277000Y-73023000D01*
X143277000Y-65832278D01*
X146173000Y-65832278D01*
X146173000Y-73023000D01*
G37*
X146173000Y-73023000D02*
X143277000Y-73023000D01*
X143277000Y-65832278D01*
X146173000Y-65832278D01*
X146173000Y-73023000D01*
G36*
X159073000Y-73023000D02*
G01*
X156177000Y-73023000D01*
X156177000Y-65832278D01*
X159073000Y-65832278D01*
X159073000Y-73023000D01*
G37*
X159073000Y-73023000D02*
X156177000Y-73023000D01*
X156177000Y-65832278D01*
X159073000Y-65832278D01*
X159073000Y-73023000D01*
G36*
X171973000Y-73023000D02*
G01*
X169077000Y-73023000D01*
X169077000Y-65832278D01*
X171973000Y-65832278D01*
X171973000Y-73023000D01*
G37*
X171973000Y-73023000D02*
X169077000Y-73023000D01*
X169077000Y-65832278D01*
X171973000Y-65832278D01*
X171973000Y-73023000D01*
G36*
X113723000Y-73023000D02*
G01*
X110827000Y-73023000D01*
X110827000Y-65700000D01*
X110824560Y-65675224D01*
X110817333Y-65651399D01*
X110805597Y-65629443D01*
X110789803Y-65610197D01*
X110770557Y-65594403D01*
X110748601Y-65582667D01*
X110724776Y-65575440D01*
X110700000Y-65573000D01*
X108827000Y-65573000D01*
X108827000Y-61627000D01*
X113723001Y-61627000D01*
X113723000Y-73023000D01*
G37*
X113723000Y-73023000D02*
X110827000Y-73023000D01*
X110827000Y-65700000D01*
X110824560Y-65675224D01*
X110817333Y-65651399D01*
X110805597Y-65629443D01*
X110789803Y-65610197D01*
X110770557Y-65594403D01*
X110748601Y-65582667D01*
X110724776Y-65575440D01*
X110700000Y-65573000D01*
X108827000Y-65573000D01*
X108827000Y-61627000D01*
X113723001Y-61627000D01*
X113723000Y-73023000D01*
G36*
X126623000Y-73023000D02*
G01*
X123727000Y-73023000D01*
X123727000Y-65700000D01*
X123724560Y-65675224D01*
X123717333Y-65651399D01*
X123705597Y-65629443D01*
X123689803Y-65610197D01*
X123670557Y-65594403D01*
X123648601Y-65582667D01*
X123624776Y-65575440D01*
X123600000Y-65573000D01*
X121727000Y-65573000D01*
X121727000Y-61627000D01*
X126623001Y-61627000D01*
X126623000Y-73023000D01*
G37*
X126623000Y-73023000D02*
X123727000Y-73023000D01*
X123727000Y-65700000D01*
X123724560Y-65675224D01*
X123717333Y-65651399D01*
X123705597Y-65629443D01*
X123689803Y-65610197D01*
X123670557Y-65594403D01*
X123648601Y-65582667D01*
X123624776Y-65575440D01*
X123600000Y-65573000D01*
X121727000Y-65573000D01*
X121727000Y-61627000D01*
X126623001Y-61627000D01*
X126623000Y-73023000D01*
G36*
X139523000Y-73023000D02*
G01*
X136627000Y-73023000D01*
X136627000Y-65700000D01*
X136624560Y-65675224D01*
X136617333Y-65651399D01*
X136605597Y-65629443D01*
X136589803Y-65610197D01*
X136570557Y-65594403D01*
X136548601Y-65582667D01*
X136524776Y-65575440D01*
X136500000Y-65573000D01*
X134627000Y-65573000D01*
X134627000Y-61627000D01*
X139523001Y-61627000D01*
X139523000Y-73023000D01*
G37*
X139523000Y-73023000D02*
X136627000Y-73023000D01*
X136627000Y-65700000D01*
X136624560Y-65675224D01*
X136617333Y-65651399D01*
X136605597Y-65629443D01*
X136589803Y-65610197D01*
X136570557Y-65594403D01*
X136548601Y-65582667D01*
X136524776Y-65575440D01*
X136500000Y-65573000D01*
X134627000Y-65573000D01*
X134627000Y-61627000D01*
X139523001Y-61627000D01*
X139523000Y-73023000D01*
G36*
X152423000Y-73023000D02*
G01*
X149527000Y-73023000D01*
X149527000Y-65700000D01*
X149524560Y-65675224D01*
X149517333Y-65651399D01*
X149505597Y-65629443D01*
X149489803Y-65610197D01*
X149470557Y-65594403D01*
X149448601Y-65582667D01*
X149424776Y-65575440D01*
X149400000Y-65573000D01*
X147527000Y-65573000D01*
X147527000Y-61627000D01*
X152423001Y-61627000D01*
X152423000Y-73023000D01*
G37*
X152423000Y-73023000D02*
X149527000Y-73023000D01*
X149527000Y-65700000D01*
X149524560Y-65675224D01*
X149517333Y-65651399D01*
X149505597Y-65629443D01*
X149489803Y-65610197D01*
X149470557Y-65594403D01*
X149448601Y-65582667D01*
X149424776Y-65575440D01*
X149400000Y-65573000D01*
X147527000Y-65573000D01*
X147527000Y-61627000D01*
X152423001Y-61627000D01*
X152423000Y-73023000D01*
G36*
X165323000Y-73023000D02*
G01*
X162427000Y-73023000D01*
X162427000Y-65700000D01*
X162424560Y-65675224D01*
X162417333Y-65651399D01*
X162405597Y-65629443D01*
X162389803Y-65610197D01*
X162370557Y-65594403D01*
X162348601Y-65582667D01*
X162324776Y-65575440D01*
X162300000Y-65573000D01*
X160427000Y-65573000D01*
X160427000Y-61627000D01*
X165323001Y-61627000D01*
X165323000Y-73023000D01*
G37*
X165323000Y-73023000D02*
X162427000Y-73023000D01*
X162427000Y-65700000D01*
X162424560Y-65675224D01*
X162417333Y-65651399D01*
X162405597Y-65629443D01*
X162389803Y-65610197D01*
X162370557Y-65594403D01*
X162348601Y-65582667D01*
X162324776Y-65575440D01*
X162300000Y-65573000D01*
X160427000Y-65573000D01*
X160427000Y-61627000D01*
X165323001Y-61627000D01*
X165323000Y-73023000D01*
G36*
X178223000Y-73023000D02*
G01*
X175327000Y-73023000D01*
X175327000Y-65700000D01*
X175324560Y-65675224D01*
X175317333Y-65651399D01*
X175305597Y-65629443D01*
X175289803Y-65610197D01*
X175270557Y-65594403D01*
X175248601Y-65582667D01*
X175224776Y-65575440D01*
X175200000Y-65573000D01*
X173327000Y-65573000D01*
X173327000Y-61627000D01*
X178223001Y-61627000D01*
X178223000Y-73023000D01*
G37*
X178223000Y-73023000D02*
X175327000Y-73023000D01*
X175327000Y-65700000D01*
X175324560Y-65675224D01*
X175317333Y-65651399D01*
X175305597Y-65629443D01*
X175289803Y-65610197D01*
X175270557Y-65594403D01*
X175248601Y-65582667D01*
X175224776Y-65575440D01*
X175200000Y-65573000D01*
X173327000Y-65573000D01*
X173327000Y-61627000D01*
X178223001Y-61627000D01*
X178223000Y-73023000D01*
G36*
X108873000Y-52200000D02*
G01*
X108875440Y-52224776D01*
X108882667Y-52248601D01*
X108894403Y-52270557D01*
X108910197Y-52289803D01*
X108929443Y-52305597D01*
X108951399Y-52317333D01*
X108975224Y-52324560D01*
X109000000Y-52327000D01*
X110373000Y-52327000D01*
X110373000Y-54573000D01*
X107600000Y-54573000D01*
X107575224Y-54575440D01*
X107551399Y-54582667D01*
X107529443Y-54594403D01*
X107510197Y-54610197D01*
X107494403Y-54629443D01*
X107482667Y-54651399D01*
X107475440Y-54675224D01*
X107473000Y-54700000D01*
X107473000Y-56800000D01*
X107475440Y-56824776D01*
X107482667Y-56848601D01*
X107494403Y-56870557D01*
X107510197Y-56889803D01*
X107529443Y-56905597D01*
X107551399Y-56917333D01*
X107575224Y-56924560D01*
X107600000Y-56927000D01*
X108873000Y-56927000D01*
X108873000Y-61173000D01*
X108500000Y-61173000D01*
X108475224Y-61175440D01*
X108451399Y-61182667D01*
X108429443Y-61194403D01*
X108410197Y-61210197D01*
X108394403Y-61229443D01*
X108382667Y-61251399D01*
X108375440Y-61275224D01*
X108373000Y-61300000D01*
X108373000Y-65173000D01*
X104577000Y-65173000D01*
X104577000Y-51418442D01*
X104609684Y-51085109D01*
X104701133Y-50782213D01*
X104849676Y-50502845D01*
X105049651Y-50257652D01*
X105293438Y-50055973D01*
X105571764Y-49905483D01*
X105874013Y-49811921D01*
X106206263Y-49777000D01*
X108873000Y-49777000D01*
X108873000Y-52200000D01*
G37*
X108873000Y-52200000D02*
X108875440Y-52224776D01*
X108882667Y-52248601D01*
X108894403Y-52270557D01*
X108910197Y-52289803D01*
X108929443Y-52305597D01*
X108951399Y-52317333D01*
X108975224Y-52324560D01*
X109000000Y-52327000D01*
X110373000Y-52327000D01*
X110373000Y-54573000D01*
X107600000Y-54573000D01*
X107575224Y-54575440D01*
X107551399Y-54582667D01*
X107529443Y-54594403D01*
X107510197Y-54610197D01*
X107494403Y-54629443D01*
X107482667Y-54651399D01*
X107475440Y-54675224D01*
X107473000Y-54700000D01*
X107473000Y-56800000D01*
X107475440Y-56824776D01*
X107482667Y-56848601D01*
X107494403Y-56870557D01*
X107510197Y-56889803D01*
X107529443Y-56905597D01*
X107551399Y-56917333D01*
X107575224Y-56924560D01*
X107600000Y-56927000D01*
X108873000Y-56927000D01*
X108873000Y-61173000D01*
X108500000Y-61173000D01*
X108475224Y-61175440D01*
X108451399Y-61182667D01*
X108429443Y-61194403D01*
X108410197Y-61210197D01*
X108394403Y-61229443D01*
X108382667Y-61251399D01*
X108375440Y-61275224D01*
X108373000Y-61300000D01*
X108373000Y-65173000D01*
X104577000Y-65173000D01*
X104577000Y-51418442D01*
X104609684Y-51085109D01*
X104701133Y-50782213D01*
X104849676Y-50502845D01*
X105049651Y-50257652D01*
X105293438Y-50055973D01*
X105571764Y-49905483D01*
X105874013Y-49811921D01*
X106206263Y-49777000D01*
X108873000Y-49777000D01*
X108873000Y-52200000D01*
G36*
X121773000Y-52200000D02*
G01*
X121775440Y-52224776D01*
X121782667Y-52248601D01*
X121794403Y-52270557D01*
X121810197Y-52289803D01*
X121829443Y-52305597D01*
X121851399Y-52317333D01*
X121875224Y-52324560D01*
X121900000Y-52327000D01*
X123273000Y-52327000D01*
X123273000Y-54573000D01*
X120500000Y-54573000D01*
X120475224Y-54575440D01*
X120451399Y-54582667D01*
X120429443Y-54594403D01*
X120410197Y-54610197D01*
X120394403Y-54629443D01*
X120382667Y-54651399D01*
X120375440Y-54675224D01*
X120373000Y-54700000D01*
X120373000Y-56800000D01*
X120375440Y-56824776D01*
X120382667Y-56848601D01*
X120394403Y-56870557D01*
X120410197Y-56889803D01*
X120429443Y-56905597D01*
X120451399Y-56917333D01*
X120475224Y-56924560D01*
X120500000Y-56927000D01*
X121773000Y-56927000D01*
X121773000Y-61173000D01*
X121400000Y-61173000D01*
X121375224Y-61175440D01*
X121351399Y-61182667D01*
X121329443Y-61194403D01*
X121310197Y-61210197D01*
X121294403Y-61229443D01*
X121282667Y-61251399D01*
X121275440Y-61275224D01*
X121273000Y-61300000D01*
X121273000Y-65173000D01*
X117477000Y-65173000D01*
X117477000Y-51418442D01*
X117509684Y-51085109D01*
X117601133Y-50782213D01*
X117749676Y-50502845D01*
X117949651Y-50257652D01*
X118193438Y-50055973D01*
X118471764Y-49905483D01*
X118774013Y-49811921D01*
X119106263Y-49777000D01*
X121773000Y-49777000D01*
X121773000Y-52200000D01*
G37*
X121773000Y-52200000D02*
X121775440Y-52224776D01*
X121782667Y-52248601D01*
X121794403Y-52270557D01*
X121810197Y-52289803D01*
X121829443Y-52305597D01*
X121851399Y-52317333D01*
X121875224Y-52324560D01*
X121900000Y-52327000D01*
X123273000Y-52327000D01*
X123273000Y-54573000D01*
X120500000Y-54573000D01*
X120475224Y-54575440D01*
X120451399Y-54582667D01*
X120429443Y-54594403D01*
X120410197Y-54610197D01*
X120394403Y-54629443D01*
X120382667Y-54651399D01*
X120375440Y-54675224D01*
X120373000Y-54700000D01*
X120373000Y-56800000D01*
X120375440Y-56824776D01*
X120382667Y-56848601D01*
X120394403Y-56870557D01*
X120410197Y-56889803D01*
X120429443Y-56905597D01*
X120451399Y-56917333D01*
X120475224Y-56924560D01*
X120500000Y-56927000D01*
X121773000Y-56927000D01*
X121773000Y-61173000D01*
X121400000Y-61173000D01*
X121375224Y-61175440D01*
X121351399Y-61182667D01*
X121329443Y-61194403D01*
X121310197Y-61210197D01*
X121294403Y-61229443D01*
X121282667Y-61251399D01*
X121275440Y-61275224D01*
X121273000Y-61300000D01*
X121273000Y-65173000D01*
X117477000Y-65173000D01*
X117477000Y-51418442D01*
X117509684Y-51085109D01*
X117601133Y-50782213D01*
X117749676Y-50502845D01*
X117949651Y-50257652D01*
X118193438Y-50055973D01*
X118471764Y-49905483D01*
X118774013Y-49811921D01*
X119106263Y-49777000D01*
X121773000Y-49777000D01*
X121773000Y-52200000D01*
G36*
X134673000Y-52200000D02*
G01*
X134675440Y-52224776D01*
X134682667Y-52248601D01*
X134694403Y-52270557D01*
X134710197Y-52289803D01*
X134729443Y-52305597D01*
X134751399Y-52317333D01*
X134775224Y-52324560D01*
X134800000Y-52327000D01*
X136173000Y-52327000D01*
X136173000Y-54573000D01*
X133400000Y-54573000D01*
X133375224Y-54575440D01*
X133351399Y-54582667D01*
X133329443Y-54594403D01*
X133310197Y-54610197D01*
X133294403Y-54629443D01*
X133282667Y-54651399D01*
X133275440Y-54675224D01*
X133273000Y-54700000D01*
X133273000Y-56800000D01*
X133275440Y-56824776D01*
X133282667Y-56848601D01*
X133294403Y-56870557D01*
X133310197Y-56889803D01*
X133329443Y-56905597D01*
X133351399Y-56917333D01*
X133375224Y-56924560D01*
X133400000Y-56927000D01*
X134673000Y-56927000D01*
X134673000Y-61173000D01*
X134300000Y-61173000D01*
X134275224Y-61175440D01*
X134251399Y-61182667D01*
X134229443Y-61194403D01*
X134210197Y-61210197D01*
X134194403Y-61229443D01*
X134182667Y-61251399D01*
X134175440Y-61275224D01*
X134173000Y-61300000D01*
X134173000Y-65173000D01*
X130377000Y-65173000D01*
X130377000Y-51418442D01*
X130409684Y-51085109D01*
X130501133Y-50782213D01*
X130649676Y-50502845D01*
X130849651Y-50257652D01*
X131093438Y-50055973D01*
X131371764Y-49905483D01*
X131674013Y-49811921D01*
X132006263Y-49777000D01*
X134673000Y-49777000D01*
X134673000Y-52200000D01*
G37*
X134673000Y-52200000D02*
X134675440Y-52224776D01*
X134682667Y-52248601D01*
X134694403Y-52270557D01*
X134710197Y-52289803D01*
X134729443Y-52305597D01*
X134751399Y-52317333D01*
X134775224Y-52324560D01*
X134800000Y-52327000D01*
X136173000Y-52327000D01*
X136173000Y-54573000D01*
X133400000Y-54573000D01*
X133375224Y-54575440D01*
X133351399Y-54582667D01*
X133329443Y-54594403D01*
X133310197Y-54610197D01*
X133294403Y-54629443D01*
X133282667Y-54651399D01*
X133275440Y-54675224D01*
X133273000Y-54700000D01*
X133273000Y-56800000D01*
X133275440Y-56824776D01*
X133282667Y-56848601D01*
X133294403Y-56870557D01*
X133310197Y-56889803D01*
X133329443Y-56905597D01*
X133351399Y-56917333D01*
X133375224Y-56924560D01*
X133400000Y-56927000D01*
X134673000Y-56927000D01*
X134673000Y-61173000D01*
X134300000Y-61173000D01*
X134275224Y-61175440D01*
X134251399Y-61182667D01*
X134229443Y-61194403D01*
X134210197Y-61210197D01*
X134194403Y-61229443D01*
X134182667Y-61251399D01*
X134175440Y-61275224D01*
X134173000Y-61300000D01*
X134173000Y-65173000D01*
X130377000Y-65173000D01*
X130377000Y-51418442D01*
X130409684Y-51085109D01*
X130501133Y-50782213D01*
X130649676Y-50502845D01*
X130849651Y-50257652D01*
X131093438Y-50055973D01*
X131371764Y-49905483D01*
X131674013Y-49811921D01*
X132006263Y-49777000D01*
X134673000Y-49777000D01*
X134673000Y-52200000D01*
G36*
X147573000Y-52200000D02*
G01*
X147575440Y-52224776D01*
X147582667Y-52248601D01*
X147594403Y-52270557D01*
X147610197Y-52289803D01*
X147629443Y-52305597D01*
X147651399Y-52317333D01*
X147675224Y-52324560D01*
X147700000Y-52327000D01*
X149073000Y-52327000D01*
X149073000Y-54573000D01*
X146300000Y-54573000D01*
X146275224Y-54575440D01*
X146251399Y-54582667D01*
X146229443Y-54594403D01*
X146210197Y-54610197D01*
X146194403Y-54629443D01*
X146182667Y-54651399D01*
X146175440Y-54675224D01*
X146173000Y-54700000D01*
X146173000Y-56800000D01*
X146175440Y-56824776D01*
X146182667Y-56848601D01*
X146194403Y-56870557D01*
X146210197Y-56889803D01*
X146229443Y-56905597D01*
X146251399Y-56917333D01*
X146275224Y-56924560D01*
X146300000Y-56927000D01*
X147573000Y-56927000D01*
X147573000Y-61173000D01*
X147200000Y-61173000D01*
X147175224Y-61175440D01*
X147151399Y-61182667D01*
X147129443Y-61194403D01*
X147110197Y-61210197D01*
X147094403Y-61229443D01*
X147082667Y-61251399D01*
X147075440Y-61275224D01*
X147073000Y-61300000D01*
X147073000Y-65173000D01*
X143277000Y-65173000D01*
X143277000Y-51418442D01*
X143309684Y-51085109D01*
X143401133Y-50782213D01*
X143549676Y-50502845D01*
X143749651Y-50257652D01*
X143993438Y-50055973D01*
X144271764Y-49905483D01*
X144574013Y-49811921D01*
X144906263Y-49777000D01*
X147573000Y-49777000D01*
X147573000Y-52200000D01*
G37*
X147573000Y-52200000D02*
X147575440Y-52224776D01*
X147582667Y-52248601D01*
X147594403Y-52270557D01*
X147610197Y-52289803D01*
X147629443Y-52305597D01*
X147651399Y-52317333D01*
X147675224Y-52324560D01*
X147700000Y-52327000D01*
X149073000Y-52327000D01*
X149073000Y-54573000D01*
X146300000Y-54573000D01*
X146275224Y-54575440D01*
X146251399Y-54582667D01*
X146229443Y-54594403D01*
X146210197Y-54610197D01*
X146194403Y-54629443D01*
X146182667Y-54651399D01*
X146175440Y-54675224D01*
X146173000Y-54700000D01*
X146173000Y-56800000D01*
X146175440Y-56824776D01*
X146182667Y-56848601D01*
X146194403Y-56870557D01*
X146210197Y-56889803D01*
X146229443Y-56905597D01*
X146251399Y-56917333D01*
X146275224Y-56924560D01*
X146300000Y-56927000D01*
X147573000Y-56927000D01*
X147573000Y-61173000D01*
X147200000Y-61173000D01*
X147175224Y-61175440D01*
X147151399Y-61182667D01*
X147129443Y-61194403D01*
X147110197Y-61210197D01*
X147094403Y-61229443D01*
X147082667Y-61251399D01*
X147075440Y-61275224D01*
X147073000Y-61300000D01*
X147073000Y-65173000D01*
X143277000Y-65173000D01*
X143277000Y-51418442D01*
X143309684Y-51085109D01*
X143401133Y-50782213D01*
X143549676Y-50502845D01*
X143749651Y-50257652D01*
X143993438Y-50055973D01*
X144271764Y-49905483D01*
X144574013Y-49811921D01*
X144906263Y-49777000D01*
X147573000Y-49777000D01*
X147573000Y-52200000D01*
G36*
X160473000Y-52200000D02*
G01*
X160475440Y-52224776D01*
X160482667Y-52248601D01*
X160494403Y-52270557D01*
X160510197Y-52289803D01*
X160529443Y-52305597D01*
X160551399Y-52317333D01*
X160575224Y-52324560D01*
X160600000Y-52327000D01*
X161973000Y-52327000D01*
X161973000Y-54573000D01*
X159200000Y-54573000D01*
X159175224Y-54575440D01*
X159151399Y-54582667D01*
X159129443Y-54594403D01*
X159110197Y-54610197D01*
X159094403Y-54629443D01*
X159082667Y-54651399D01*
X159075440Y-54675224D01*
X159073000Y-54700000D01*
X159073000Y-56800000D01*
X159075440Y-56824776D01*
X159082667Y-56848601D01*
X159094403Y-56870557D01*
X159110197Y-56889803D01*
X159129443Y-56905597D01*
X159151399Y-56917333D01*
X159175224Y-56924560D01*
X159200000Y-56927000D01*
X160473000Y-56927000D01*
X160473000Y-61173000D01*
X160100000Y-61173000D01*
X160075224Y-61175440D01*
X160051399Y-61182667D01*
X160029443Y-61194403D01*
X160010197Y-61210197D01*
X159994403Y-61229443D01*
X159982667Y-61251399D01*
X159975440Y-61275224D01*
X159973000Y-61300000D01*
X159973000Y-65173000D01*
X156177000Y-65173000D01*
X156177000Y-51418442D01*
X156209684Y-51085109D01*
X156301133Y-50782213D01*
X156449676Y-50502845D01*
X156649651Y-50257652D01*
X156893438Y-50055973D01*
X157171764Y-49905483D01*
X157474013Y-49811921D01*
X157806263Y-49777000D01*
X160473000Y-49777000D01*
X160473000Y-52200000D01*
G37*
X160473000Y-52200000D02*
X160475440Y-52224776D01*
X160482667Y-52248601D01*
X160494403Y-52270557D01*
X160510197Y-52289803D01*
X160529443Y-52305597D01*
X160551399Y-52317333D01*
X160575224Y-52324560D01*
X160600000Y-52327000D01*
X161973000Y-52327000D01*
X161973000Y-54573000D01*
X159200000Y-54573000D01*
X159175224Y-54575440D01*
X159151399Y-54582667D01*
X159129443Y-54594403D01*
X159110197Y-54610197D01*
X159094403Y-54629443D01*
X159082667Y-54651399D01*
X159075440Y-54675224D01*
X159073000Y-54700000D01*
X159073000Y-56800000D01*
X159075440Y-56824776D01*
X159082667Y-56848601D01*
X159094403Y-56870557D01*
X159110197Y-56889803D01*
X159129443Y-56905597D01*
X159151399Y-56917333D01*
X159175224Y-56924560D01*
X159200000Y-56927000D01*
X160473000Y-56927000D01*
X160473000Y-61173000D01*
X160100000Y-61173000D01*
X160075224Y-61175440D01*
X160051399Y-61182667D01*
X160029443Y-61194403D01*
X160010197Y-61210197D01*
X159994403Y-61229443D01*
X159982667Y-61251399D01*
X159975440Y-61275224D01*
X159973000Y-61300000D01*
X159973000Y-65173000D01*
X156177000Y-65173000D01*
X156177000Y-51418442D01*
X156209684Y-51085109D01*
X156301133Y-50782213D01*
X156449676Y-50502845D01*
X156649651Y-50257652D01*
X156893438Y-50055973D01*
X157171764Y-49905483D01*
X157474013Y-49811921D01*
X157806263Y-49777000D01*
X160473000Y-49777000D01*
X160473000Y-52200000D01*
G36*
X173373000Y-52200000D02*
G01*
X173375440Y-52224776D01*
X173382667Y-52248601D01*
X173394403Y-52270557D01*
X173410197Y-52289803D01*
X173429443Y-52305597D01*
X173451399Y-52317333D01*
X173475224Y-52324560D01*
X173500000Y-52327000D01*
X174873000Y-52327000D01*
X174873000Y-54573000D01*
X172100000Y-54573000D01*
X172075224Y-54575440D01*
X172051399Y-54582667D01*
X172029443Y-54594403D01*
X172010197Y-54610197D01*
X171994403Y-54629443D01*
X171982667Y-54651399D01*
X171975440Y-54675224D01*
X171973000Y-54700000D01*
X171973000Y-56800000D01*
X171975440Y-56824776D01*
X171982667Y-56848601D01*
X171994403Y-56870557D01*
X172010197Y-56889803D01*
X172029443Y-56905597D01*
X172051399Y-56917333D01*
X172075224Y-56924560D01*
X172100000Y-56927000D01*
X173373000Y-56927000D01*
X173373000Y-61173000D01*
X173000000Y-61173000D01*
X172975224Y-61175440D01*
X172951399Y-61182667D01*
X172929443Y-61194403D01*
X172910197Y-61210197D01*
X172894403Y-61229443D01*
X172882667Y-61251399D01*
X172875440Y-61275224D01*
X172873000Y-61300000D01*
X172873000Y-65173000D01*
X169077000Y-65173000D01*
X169077000Y-51418442D01*
X169109684Y-51085109D01*
X169201133Y-50782213D01*
X169349676Y-50502845D01*
X169549651Y-50257652D01*
X169793438Y-50055973D01*
X170071764Y-49905483D01*
X170374013Y-49811921D01*
X170706263Y-49777000D01*
X173373000Y-49777000D01*
X173373000Y-52200000D01*
G37*
X173373000Y-52200000D02*
X173375440Y-52224776D01*
X173382667Y-52248601D01*
X173394403Y-52270557D01*
X173410197Y-52289803D01*
X173429443Y-52305597D01*
X173451399Y-52317333D01*
X173475224Y-52324560D01*
X173500000Y-52327000D01*
X174873000Y-52327000D01*
X174873000Y-54573000D01*
X172100000Y-54573000D01*
X172075224Y-54575440D01*
X172051399Y-54582667D01*
X172029443Y-54594403D01*
X172010197Y-54610197D01*
X171994403Y-54629443D01*
X171982667Y-54651399D01*
X171975440Y-54675224D01*
X171973000Y-54700000D01*
X171973000Y-56800000D01*
X171975440Y-56824776D01*
X171982667Y-56848601D01*
X171994403Y-56870557D01*
X172010197Y-56889803D01*
X172029443Y-56905597D01*
X172051399Y-56917333D01*
X172075224Y-56924560D01*
X172100000Y-56927000D01*
X173373000Y-56927000D01*
X173373000Y-61173000D01*
X173000000Y-61173000D01*
X172975224Y-61175440D01*
X172951399Y-61182667D01*
X172929443Y-61194403D01*
X172910197Y-61210197D01*
X172894403Y-61229443D01*
X172882667Y-61251399D01*
X172875440Y-61275224D01*
X172873000Y-61300000D01*
X172873000Y-65173000D01*
X169077000Y-65173000D01*
X169077000Y-51418442D01*
X169109684Y-51085109D01*
X169201133Y-50782213D01*
X169349676Y-50502845D01*
X169549651Y-50257652D01*
X169793438Y-50055973D01*
X170071764Y-49905483D01*
X170374013Y-49811921D01*
X170706263Y-49777000D01*
X173373000Y-49777000D01*
X173373000Y-52200000D01*
G36*
X112414891Y-49809684D02*
G01*
X112717787Y-49901133D01*
X112997155Y-50049676D01*
X113242348Y-50249651D01*
X113444027Y-50493438D01*
X113594517Y-50771764D01*
X113688079Y-51074013D01*
X113723001Y-51406273D01*
X113723001Y-61173000D01*
X109427000Y-61173000D01*
X109427000Y-56600000D01*
X109424560Y-56575224D01*
X109417333Y-56551399D01*
X109405597Y-56529443D01*
X109389803Y-56510197D01*
X109370557Y-56494403D01*
X109348601Y-56482667D01*
X109324776Y-56475440D01*
X109300000Y-56473000D01*
X107927000Y-56473000D01*
X107927000Y-55027000D01*
X110700000Y-55027000D01*
X110724776Y-55024560D01*
X110748601Y-55017333D01*
X110770557Y-55005597D01*
X110789803Y-54989803D01*
X110805597Y-54970557D01*
X110817333Y-54948601D01*
X110824560Y-54924776D01*
X110827000Y-54900000D01*
X110827000Y-52000000D01*
X110824560Y-51975224D01*
X110817333Y-51951399D01*
X110805597Y-51929443D01*
X110789803Y-51910197D01*
X110770557Y-51894403D01*
X110748601Y-51882667D01*
X110724776Y-51875440D01*
X110700000Y-51873000D01*
X109427000Y-51873000D01*
X109427000Y-49777000D01*
X112081558Y-49777000D01*
X112414891Y-49809684D01*
G37*
X112414891Y-49809684D02*
X112717787Y-49901133D01*
X112997155Y-50049676D01*
X113242348Y-50249651D01*
X113444027Y-50493438D01*
X113594517Y-50771764D01*
X113688079Y-51074013D01*
X113723001Y-51406273D01*
X113723001Y-61173000D01*
X109427000Y-61173000D01*
X109427000Y-56600000D01*
X109424560Y-56575224D01*
X109417333Y-56551399D01*
X109405597Y-56529443D01*
X109389803Y-56510197D01*
X109370557Y-56494403D01*
X109348601Y-56482667D01*
X109324776Y-56475440D01*
X109300000Y-56473000D01*
X107927000Y-56473000D01*
X107927000Y-55027000D01*
X110700000Y-55027000D01*
X110724776Y-55024560D01*
X110748601Y-55017333D01*
X110770557Y-55005597D01*
X110789803Y-54989803D01*
X110805597Y-54970557D01*
X110817333Y-54948601D01*
X110824560Y-54924776D01*
X110827000Y-54900000D01*
X110827000Y-52000000D01*
X110824560Y-51975224D01*
X110817333Y-51951399D01*
X110805597Y-51929443D01*
X110789803Y-51910197D01*
X110770557Y-51894403D01*
X110748601Y-51882667D01*
X110724776Y-51875440D01*
X110700000Y-51873000D01*
X109427000Y-51873000D01*
X109427000Y-49777000D01*
X112081558Y-49777000D01*
X112414891Y-49809684D01*
G36*
X125314891Y-49809684D02*
G01*
X125617787Y-49901133D01*
X125897155Y-50049676D01*
X126142348Y-50249651D01*
X126344027Y-50493438D01*
X126494517Y-50771764D01*
X126588079Y-51074013D01*
X126623001Y-51406273D01*
X126623001Y-61173000D01*
X122327000Y-61173000D01*
X122327000Y-56600000D01*
X122324560Y-56575224D01*
X122317333Y-56551399D01*
X122305597Y-56529443D01*
X122289803Y-56510197D01*
X122270557Y-56494403D01*
X122248601Y-56482667D01*
X122224776Y-56475440D01*
X122200000Y-56473000D01*
X120827000Y-56473000D01*
X120827000Y-55027000D01*
X123600000Y-55027000D01*
X123624776Y-55024560D01*
X123648601Y-55017333D01*
X123670557Y-55005597D01*
X123689803Y-54989803D01*
X123705597Y-54970557D01*
X123717333Y-54948601D01*
X123724560Y-54924776D01*
X123727000Y-54900000D01*
X123727000Y-52000000D01*
X123724560Y-51975224D01*
X123717333Y-51951399D01*
X123705597Y-51929443D01*
X123689803Y-51910197D01*
X123670557Y-51894403D01*
X123648601Y-51882667D01*
X123624776Y-51875440D01*
X123600000Y-51873000D01*
X122327000Y-51873000D01*
X122327000Y-49777000D01*
X124981558Y-49777000D01*
X125314891Y-49809684D01*
G37*
X125314891Y-49809684D02*
X125617787Y-49901133D01*
X125897155Y-50049676D01*
X126142348Y-50249651D01*
X126344027Y-50493438D01*
X126494517Y-50771764D01*
X126588079Y-51074013D01*
X126623001Y-51406273D01*
X126623001Y-61173000D01*
X122327000Y-61173000D01*
X122327000Y-56600000D01*
X122324560Y-56575224D01*
X122317333Y-56551399D01*
X122305597Y-56529443D01*
X122289803Y-56510197D01*
X122270557Y-56494403D01*
X122248601Y-56482667D01*
X122224776Y-56475440D01*
X122200000Y-56473000D01*
X120827000Y-56473000D01*
X120827000Y-55027000D01*
X123600000Y-55027000D01*
X123624776Y-55024560D01*
X123648601Y-55017333D01*
X123670557Y-55005597D01*
X123689803Y-54989803D01*
X123705597Y-54970557D01*
X123717333Y-54948601D01*
X123724560Y-54924776D01*
X123727000Y-54900000D01*
X123727000Y-52000000D01*
X123724560Y-51975224D01*
X123717333Y-51951399D01*
X123705597Y-51929443D01*
X123689803Y-51910197D01*
X123670557Y-51894403D01*
X123648601Y-51882667D01*
X123624776Y-51875440D01*
X123600000Y-51873000D01*
X122327000Y-51873000D01*
X122327000Y-49777000D01*
X124981558Y-49777000D01*
X125314891Y-49809684D01*
G36*
X138214891Y-49809684D02*
G01*
X138517787Y-49901133D01*
X138797155Y-50049676D01*
X139042348Y-50249651D01*
X139244027Y-50493438D01*
X139394517Y-50771764D01*
X139488079Y-51074013D01*
X139523001Y-51406273D01*
X139523001Y-61173000D01*
X135227000Y-61173000D01*
X135227000Y-56600000D01*
X135224560Y-56575224D01*
X135217333Y-56551399D01*
X135205597Y-56529443D01*
X135189803Y-56510197D01*
X135170557Y-56494403D01*
X135148601Y-56482667D01*
X135124776Y-56475440D01*
X135100000Y-56473000D01*
X133727000Y-56473000D01*
X133727000Y-55027000D01*
X136500000Y-55027000D01*
X136524776Y-55024560D01*
X136548601Y-55017333D01*
X136570557Y-55005597D01*
X136589803Y-54989803D01*
X136605597Y-54970557D01*
X136617333Y-54948601D01*
X136624560Y-54924776D01*
X136627000Y-54900000D01*
X136627000Y-52000000D01*
X136624560Y-51975224D01*
X136617333Y-51951399D01*
X136605597Y-51929443D01*
X136589803Y-51910197D01*
X136570557Y-51894403D01*
X136548601Y-51882667D01*
X136524776Y-51875440D01*
X136500000Y-51873000D01*
X135227000Y-51873000D01*
X135227000Y-49777000D01*
X137881558Y-49777000D01*
X138214891Y-49809684D01*
G37*
X138214891Y-49809684D02*
X138517787Y-49901133D01*
X138797155Y-50049676D01*
X139042348Y-50249651D01*
X139244027Y-50493438D01*
X139394517Y-50771764D01*
X139488079Y-51074013D01*
X139523001Y-51406273D01*
X139523001Y-61173000D01*
X135227000Y-61173000D01*
X135227000Y-56600000D01*
X135224560Y-56575224D01*
X135217333Y-56551399D01*
X135205597Y-56529443D01*
X135189803Y-56510197D01*
X135170557Y-56494403D01*
X135148601Y-56482667D01*
X135124776Y-56475440D01*
X135100000Y-56473000D01*
X133727000Y-56473000D01*
X133727000Y-55027000D01*
X136500000Y-55027000D01*
X136524776Y-55024560D01*
X136548601Y-55017333D01*
X136570557Y-55005597D01*
X136589803Y-54989803D01*
X136605597Y-54970557D01*
X136617333Y-54948601D01*
X136624560Y-54924776D01*
X136627000Y-54900000D01*
X136627000Y-52000000D01*
X136624560Y-51975224D01*
X136617333Y-51951399D01*
X136605597Y-51929443D01*
X136589803Y-51910197D01*
X136570557Y-51894403D01*
X136548601Y-51882667D01*
X136524776Y-51875440D01*
X136500000Y-51873000D01*
X135227000Y-51873000D01*
X135227000Y-49777000D01*
X137881558Y-49777000D01*
X138214891Y-49809684D01*
G36*
X151114891Y-49809684D02*
G01*
X151417787Y-49901133D01*
X151697155Y-50049676D01*
X151942348Y-50249651D01*
X152144027Y-50493438D01*
X152294517Y-50771764D01*
X152388079Y-51074013D01*
X152423001Y-51406273D01*
X152423001Y-61173000D01*
X148127000Y-61173000D01*
X148127000Y-56600000D01*
X148124560Y-56575224D01*
X148117333Y-56551399D01*
X148105597Y-56529443D01*
X148089803Y-56510197D01*
X148070557Y-56494403D01*
X148048601Y-56482667D01*
X148024776Y-56475440D01*
X148000000Y-56473000D01*
X146627000Y-56473000D01*
X146627000Y-55027000D01*
X149400000Y-55027000D01*
X149424776Y-55024560D01*
X149448601Y-55017333D01*
X149470557Y-55005597D01*
X149489803Y-54989803D01*
X149505597Y-54970557D01*
X149517333Y-54948601D01*
X149524560Y-54924776D01*
X149527000Y-54900000D01*
X149527000Y-52000000D01*
X149524560Y-51975224D01*
X149517333Y-51951399D01*
X149505597Y-51929443D01*
X149489803Y-51910197D01*
X149470557Y-51894403D01*
X149448601Y-51882667D01*
X149424776Y-51875440D01*
X149400000Y-51873000D01*
X148127000Y-51873000D01*
X148127000Y-49777000D01*
X150781558Y-49777000D01*
X151114891Y-49809684D01*
G37*
X151114891Y-49809684D02*
X151417787Y-49901133D01*
X151697155Y-50049676D01*
X151942348Y-50249651D01*
X152144027Y-50493438D01*
X152294517Y-50771764D01*
X152388079Y-51074013D01*
X152423001Y-51406273D01*
X152423001Y-61173000D01*
X148127000Y-61173000D01*
X148127000Y-56600000D01*
X148124560Y-56575224D01*
X148117333Y-56551399D01*
X148105597Y-56529443D01*
X148089803Y-56510197D01*
X148070557Y-56494403D01*
X148048601Y-56482667D01*
X148024776Y-56475440D01*
X148000000Y-56473000D01*
X146627000Y-56473000D01*
X146627000Y-55027000D01*
X149400000Y-55027000D01*
X149424776Y-55024560D01*
X149448601Y-55017333D01*
X149470557Y-55005597D01*
X149489803Y-54989803D01*
X149505597Y-54970557D01*
X149517333Y-54948601D01*
X149524560Y-54924776D01*
X149527000Y-54900000D01*
X149527000Y-52000000D01*
X149524560Y-51975224D01*
X149517333Y-51951399D01*
X149505597Y-51929443D01*
X149489803Y-51910197D01*
X149470557Y-51894403D01*
X149448601Y-51882667D01*
X149424776Y-51875440D01*
X149400000Y-51873000D01*
X148127000Y-51873000D01*
X148127000Y-49777000D01*
X150781558Y-49777000D01*
X151114891Y-49809684D01*
G36*
X164014891Y-49809684D02*
G01*
X164317787Y-49901133D01*
X164597155Y-50049676D01*
X164842348Y-50249651D01*
X165044027Y-50493438D01*
X165194517Y-50771764D01*
X165288079Y-51074013D01*
X165323001Y-51406273D01*
X165323001Y-61173000D01*
X161027000Y-61173000D01*
X161027000Y-56600000D01*
X161024560Y-56575224D01*
X161017333Y-56551399D01*
X161005597Y-56529443D01*
X160989803Y-56510197D01*
X160970557Y-56494403D01*
X160948601Y-56482667D01*
X160924776Y-56475440D01*
X160900000Y-56473000D01*
X159527000Y-56473000D01*
X159527000Y-55027000D01*
X162300000Y-55027000D01*
X162324776Y-55024560D01*
X162348601Y-55017333D01*
X162370557Y-55005597D01*
X162389803Y-54989803D01*
X162405597Y-54970557D01*
X162417333Y-54948601D01*
X162424560Y-54924776D01*
X162427000Y-54900000D01*
X162427000Y-52000000D01*
X162424560Y-51975224D01*
X162417333Y-51951399D01*
X162405597Y-51929443D01*
X162389803Y-51910197D01*
X162370557Y-51894403D01*
X162348601Y-51882667D01*
X162324776Y-51875440D01*
X162300000Y-51873000D01*
X161027000Y-51873000D01*
X161027000Y-49777000D01*
X163681558Y-49777000D01*
X164014891Y-49809684D01*
G37*
X164014891Y-49809684D02*
X164317787Y-49901133D01*
X164597155Y-50049676D01*
X164842348Y-50249651D01*
X165044027Y-50493438D01*
X165194517Y-50771764D01*
X165288079Y-51074013D01*
X165323001Y-51406273D01*
X165323001Y-61173000D01*
X161027000Y-61173000D01*
X161027000Y-56600000D01*
X161024560Y-56575224D01*
X161017333Y-56551399D01*
X161005597Y-56529443D01*
X160989803Y-56510197D01*
X160970557Y-56494403D01*
X160948601Y-56482667D01*
X160924776Y-56475440D01*
X160900000Y-56473000D01*
X159527000Y-56473000D01*
X159527000Y-55027000D01*
X162300000Y-55027000D01*
X162324776Y-55024560D01*
X162348601Y-55017333D01*
X162370557Y-55005597D01*
X162389803Y-54989803D01*
X162405597Y-54970557D01*
X162417333Y-54948601D01*
X162424560Y-54924776D01*
X162427000Y-54900000D01*
X162427000Y-52000000D01*
X162424560Y-51975224D01*
X162417333Y-51951399D01*
X162405597Y-51929443D01*
X162389803Y-51910197D01*
X162370557Y-51894403D01*
X162348601Y-51882667D01*
X162324776Y-51875440D01*
X162300000Y-51873000D01*
X161027000Y-51873000D01*
X161027000Y-49777000D01*
X163681558Y-49777000D01*
X164014891Y-49809684D01*
G36*
X176914891Y-49809684D02*
G01*
X177217787Y-49901133D01*
X177497155Y-50049676D01*
X177742348Y-50249651D01*
X177944027Y-50493438D01*
X178094517Y-50771764D01*
X178188079Y-51074013D01*
X178223001Y-51406273D01*
X178223001Y-61173000D01*
X173927000Y-61173000D01*
X173927000Y-56600000D01*
X173924560Y-56575224D01*
X173917333Y-56551399D01*
X173905597Y-56529443D01*
X173889803Y-56510197D01*
X173870557Y-56494403D01*
X173848601Y-56482667D01*
X173824776Y-56475440D01*
X173800000Y-56473000D01*
X172427000Y-56473000D01*
X172427000Y-55027000D01*
X175200000Y-55027000D01*
X175224776Y-55024560D01*
X175248601Y-55017333D01*
X175270557Y-55005597D01*
X175289803Y-54989803D01*
X175305597Y-54970557D01*
X175317333Y-54948601D01*
X175324560Y-54924776D01*
X175327000Y-54900000D01*
X175327000Y-52000000D01*
X175324560Y-51975224D01*
X175317333Y-51951399D01*
X175305597Y-51929443D01*
X175289803Y-51910197D01*
X175270557Y-51894403D01*
X175248601Y-51882667D01*
X175224776Y-51875440D01*
X175200000Y-51873000D01*
X173927000Y-51873000D01*
X173927000Y-49777000D01*
X176581558Y-49777000D01*
X176914891Y-49809684D01*
G37*
X176914891Y-49809684D02*
X177217787Y-49901133D01*
X177497155Y-50049676D01*
X177742348Y-50249651D01*
X177944027Y-50493438D01*
X178094517Y-50771764D01*
X178188079Y-51074013D01*
X178223001Y-51406273D01*
X178223001Y-61173000D01*
X173927000Y-61173000D01*
X173927000Y-56600000D01*
X173924560Y-56575224D01*
X173917333Y-56551399D01*
X173905597Y-56529443D01*
X173889803Y-56510197D01*
X173870557Y-56494403D01*
X173848601Y-56482667D01*
X173824776Y-56475440D01*
X173800000Y-56473000D01*
X172427000Y-56473000D01*
X172427000Y-55027000D01*
X175200000Y-55027000D01*
X175224776Y-55024560D01*
X175248601Y-55017333D01*
X175270557Y-55005597D01*
X175289803Y-54989803D01*
X175305597Y-54970557D01*
X175317333Y-54948601D01*
X175324560Y-54924776D01*
X175327000Y-54900000D01*
X175327000Y-52000000D01*
X175324560Y-51975224D01*
X175317333Y-51951399D01*
X175305597Y-51929443D01*
X175289803Y-51910197D01*
X175270557Y-51894403D01*
X175248601Y-51882667D01*
X175224776Y-51875440D01*
X175200000Y-51873000D01*
X173927000Y-51873000D01*
X173927000Y-49777000D01*
X176581558Y-49777000D01*
X176914891Y-49809684D01*
G36*
X94573000Y-100023000D02*
G01*
X91677000Y-100023000D01*
X91677000Y-92832278D01*
X94573000Y-92832278D01*
X94573000Y-100023000D01*
G37*
X94573000Y-100023000D02*
X91677000Y-100023000D01*
X91677000Y-92832278D01*
X94573000Y-92832278D01*
X94573000Y-100023000D01*
G36*
X100823000Y-100023000D02*
G01*
X97927000Y-100023000D01*
X97927000Y-92700000D01*
X97924560Y-92675224D01*
X97917333Y-92651399D01*
X97905597Y-92629443D01*
X97889803Y-92610197D01*
X97870557Y-92594403D01*
X97848601Y-92582667D01*
X97824776Y-92575440D01*
X97800000Y-92573000D01*
X95927000Y-92573000D01*
X95927000Y-88627000D01*
X100823001Y-88627000D01*
X100823000Y-100023000D01*
G37*
X100823000Y-100023000D02*
X97927000Y-100023000D01*
X97927000Y-92700000D01*
X97924560Y-92675224D01*
X97917333Y-92651399D01*
X97905597Y-92629443D01*
X97889803Y-92610197D01*
X97870557Y-92594403D01*
X97848601Y-92582667D01*
X97824776Y-92575440D01*
X97800000Y-92573000D01*
X95927000Y-92573000D01*
X95927000Y-88627000D01*
X100823001Y-88627000D01*
X100823000Y-100023000D01*
G36*
X95973000Y-79200000D02*
G01*
X95975440Y-79224776D01*
X95982667Y-79248601D01*
X95994403Y-79270557D01*
X96010197Y-79289803D01*
X96029443Y-79305597D01*
X96051399Y-79317333D01*
X96075224Y-79324560D01*
X96100000Y-79327000D01*
X97473000Y-79327000D01*
X97473000Y-81573000D01*
X94700000Y-81573000D01*
X94675224Y-81575440D01*
X94651399Y-81582667D01*
X94629443Y-81594403D01*
X94610197Y-81610197D01*
X94594403Y-81629443D01*
X94582667Y-81651399D01*
X94575440Y-81675224D01*
X94573000Y-81700000D01*
X94573000Y-83800000D01*
X94575440Y-83824776D01*
X94582667Y-83848601D01*
X94594403Y-83870557D01*
X94610197Y-83889803D01*
X94629443Y-83905597D01*
X94651399Y-83917333D01*
X94675224Y-83924560D01*
X94700000Y-83927000D01*
X95973000Y-83927000D01*
X95973000Y-88173000D01*
X95600000Y-88173000D01*
X95575224Y-88175440D01*
X95551399Y-88182667D01*
X95529443Y-88194403D01*
X95510197Y-88210197D01*
X95494403Y-88229443D01*
X95482667Y-88251399D01*
X95475440Y-88275224D01*
X95473000Y-88300000D01*
X95473000Y-92173000D01*
X91677000Y-92173000D01*
X91677000Y-78418442D01*
X91709684Y-78085109D01*
X91801133Y-77782213D01*
X91949676Y-77502845D01*
X92149651Y-77257652D01*
X92393438Y-77055973D01*
X92671764Y-76905483D01*
X92974013Y-76811921D01*
X93306263Y-76777000D01*
X95973000Y-76777000D01*
X95973000Y-79200000D01*
G37*
X95973000Y-79200000D02*
X95975440Y-79224776D01*
X95982667Y-79248601D01*
X95994403Y-79270557D01*
X96010197Y-79289803D01*
X96029443Y-79305597D01*
X96051399Y-79317333D01*
X96075224Y-79324560D01*
X96100000Y-79327000D01*
X97473000Y-79327000D01*
X97473000Y-81573000D01*
X94700000Y-81573000D01*
X94675224Y-81575440D01*
X94651399Y-81582667D01*
X94629443Y-81594403D01*
X94610197Y-81610197D01*
X94594403Y-81629443D01*
X94582667Y-81651399D01*
X94575440Y-81675224D01*
X94573000Y-81700000D01*
X94573000Y-83800000D01*
X94575440Y-83824776D01*
X94582667Y-83848601D01*
X94594403Y-83870557D01*
X94610197Y-83889803D01*
X94629443Y-83905597D01*
X94651399Y-83917333D01*
X94675224Y-83924560D01*
X94700000Y-83927000D01*
X95973000Y-83927000D01*
X95973000Y-88173000D01*
X95600000Y-88173000D01*
X95575224Y-88175440D01*
X95551399Y-88182667D01*
X95529443Y-88194403D01*
X95510197Y-88210197D01*
X95494403Y-88229443D01*
X95482667Y-88251399D01*
X95475440Y-88275224D01*
X95473000Y-88300000D01*
X95473000Y-92173000D01*
X91677000Y-92173000D01*
X91677000Y-78418442D01*
X91709684Y-78085109D01*
X91801133Y-77782213D01*
X91949676Y-77502845D01*
X92149651Y-77257652D01*
X92393438Y-77055973D01*
X92671764Y-76905483D01*
X92974013Y-76811921D01*
X93306263Y-76777000D01*
X95973000Y-76777000D01*
X95973000Y-79200000D01*
G36*
X99514891Y-76809684D02*
G01*
X99817787Y-76901133D01*
X100097155Y-77049676D01*
X100342348Y-77249651D01*
X100544027Y-77493438D01*
X100694517Y-77771764D01*
X100788079Y-78074013D01*
X100823001Y-78406273D01*
X100823001Y-88173000D01*
X96527000Y-88173000D01*
X96527000Y-83600000D01*
X96524560Y-83575224D01*
X96517333Y-83551399D01*
X96505597Y-83529443D01*
X96489803Y-83510197D01*
X96470557Y-83494403D01*
X96448601Y-83482667D01*
X96424776Y-83475440D01*
X96400000Y-83473000D01*
X95027000Y-83473000D01*
X95027000Y-82027000D01*
X97800000Y-82027000D01*
X97824776Y-82024560D01*
X97848601Y-82017333D01*
X97870557Y-82005597D01*
X97889803Y-81989803D01*
X97905597Y-81970557D01*
X97917333Y-81948601D01*
X97924560Y-81924776D01*
X97927000Y-81900000D01*
X97927000Y-79000000D01*
X97924560Y-78975224D01*
X97917333Y-78951399D01*
X97905597Y-78929443D01*
X97889803Y-78910197D01*
X97870557Y-78894403D01*
X97848601Y-78882667D01*
X97824776Y-78875440D01*
X97800000Y-78873000D01*
X96527000Y-78873000D01*
X96527000Y-76777000D01*
X99181558Y-76777000D01*
X99514891Y-76809684D01*
G37*
X99514891Y-76809684D02*
X99817787Y-76901133D01*
X100097155Y-77049676D01*
X100342348Y-77249651D01*
X100544027Y-77493438D01*
X100694517Y-77771764D01*
X100788079Y-78074013D01*
X100823001Y-78406273D01*
X100823001Y-88173000D01*
X96527000Y-88173000D01*
X96527000Y-83600000D01*
X96524560Y-83575224D01*
X96517333Y-83551399D01*
X96505597Y-83529443D01*
X96489803Y-83510197D01*
X96470557Y-83494403D01*
X96448601Y-83482667D01*
X96424776Y-83475440D01*
X96400000Y-83473000D01*
X95027000Y-83473000D01*
X95027000Y-82027000D01*
X97800000Y-82027000D01*
X97824776Y-82024560D01*
X97848601Y-82017333D01*
X97870557Y-82005597D01*
X97889803Y-81989803D01*
X97905597Y-81970557D01*
X97917333Y-81948601D01*
X97924560Y-81924776D01*
X97927000Y-81900000D01*
X97927000Y-79000000D01*
X97924560Y-78975224D01*
X97917333Y-78951399D01*
X97905597Y-78929443D01*
X97889803Y-78910197D01*
X97870557Y-78894403D01*
X97848601Y-78882667D01*
X97824776Y-78875440D01*
X97800000Y-78873000D01*
X96527000Y-78873000D01*
X96527000Y-76777000D01*
X99181558Y-76777000D01*
X99514891Y-76809684D01*
G36*
X165323000Y-100023000D02*
G01*
X162427000Y-100023000D01*
X162427000Y-92700000D01*
X162424560Y-92675224D01*
X162417333Y-92651399D01*
X162405597Y-92629443D01*
X162389803Y-92610197D01*
X162370557Y-92594403D01*
X162348601Y-92582667D01*
X162324776Y-92575440D01*
X162300000Y-92573000D01*
X160427000Y-92573000D01*
X160427000Y-88627000D01*
X165323001Y-88627000D01*
X165323000Y-100023000D01*
G37*
X165323000Y-100023000D02*
X162427000Y-100023000D01*
X162427000Y-92700000D01*
X162424560Y-92675224D01*
X162417333Y-92651399D01*
X162405597Y-92629443D01*
X162389803Y-92610197D01*
X162370557Y-92594403D01*
X162348601Y-92582667D01*
X162324776Y-92575440D01*
X162300000Y-92573000D01*
X160427000Y-92573000D01*
X160427000Y-88627000D01*
X165323001Y-88627000D01*
X165323000Y-100023000D01*
G36*
X133273000Y-100023000D02*
G01*
X130377000Y-100023000D01*
X130377000Y-92832278D01*
X133273000Y-92832278D01*
X133273000Y-100023000D01*
G37*
X133273000Y-100023000D02*
X130377000Y-100023000D01*
X130377000Y-92832278D01*
X133273000Y-92832278D01*
X133273000Y-100023000D01*
G36*
X139523000Y-100023000D02*
G01*
X136627000Y-100023000D01*
X136627000Y-92700000D01*
X136624560Y-92675224D01*
X136617333Y-92651399D01*
X136605597Y-92629443D01*
X136589803Y-92610197D01*
X136570557Y-92594403D01*
X136548601Y-92582667D01*
X136524776Y-92575440D01*
X136500000Y-92573000D01*
X134627000Y-92573000D01*
X134627000Y-88627000D01*
X139523001Y-88627000D01*
X139523000Y-100023000D01*
G37*
X139523000Y-100023000D02*
X136627000Y-100023000D01*
X136627000Y-92700000D01*
X136624560Y-92675224D01*
X136617333Y-92651399D01*
X136605597Y-92629443D01*
X136589803Y-92610197D01*
X136570557Y-92594403D01*
X136548601Y-92582667D01*
X136524776Y-92575440D01*
X136500000Y-92573000D01*
X134627000Y-92573000D01*
X134627000Y-88627000D01*
X139523001Y-88627000D01*
X139523000Y-100023000D01*
G36*
X120373000Y-100023000D02*
G01*
X117477000Y-100023000D01*
X117477000Y-92832278D01*
X120373000Y-92832278D01*
X120373000Y-100023000D01*
G37*
X120373000Y-100023000D02*
X117477000Y-100023000D01*
X117477000Y-92832278D01*
X120373000Y-92832278D01*
X120373000Y-100023000D01*
G36*
X146173000Y-100023000D02*
G01*
X143277000Y-100023000D01*
X143277000Y-92832278D01*
X146173000Y-92832278D01*
X146173000Y-100023000D01*
G37*
X146173000Y-100023000D02*
X143277000Y-100023000D01*
X143277000Y-92832278D01*
X146173000Y-92832278D01*
X146173000Y-100023000D01*
G36*
X171973000Y-100023000D02*
G01*
X169077000Y-100023000D01*
X169077000Y-92832278D01*
X171973000Y-92832278D01*
X171973000Y-100023000D01*
G37*
X171973000Y-100023000D02*
X169077000Y-100023000D01*
X169077000Y-92832278D01*
X171973000Y-92832278D01*
X171973000Y-100023000D01*
G36*
X126623000Y-100023000D02*
G01*
X123727000Y-100023000D01*
X123727000Y-92700000D01*
X123724560Y-92675224D01*
X123717333Y-92651399D01*
X123705597Y-92629443D01*
X123689803Y-92610197D01*
X123670557Y-92594403D01*
X123648601Y-92582667D01*
X123624776Y-92575440D01*
X123600000Y-92573000D01*
X121727000Y-92573000D01*
X121727000Y-88627000D01*
X126623001Y-88627000D01*
X126623000Y-100023000D01*
G37*
X126623000Y-100023000D02*
X123727000Y-100023000D01*
X123727000Y-92700000D01*
X123724560Y-92675224D01*
X123717333Y-92651399D01*
X123705597Y-92629443D01*
X123689803Y-92610197D01*
X123670557Y-92594403D01*
X123648601Y-92582667D01*
X123624776Y-92575440D01*
X123600000Y-92573000D01*
X121727000Y-92573000D01*
X121727000Y-88627000D01*
X126623001Y-88627000D01*
X126623000Y-100023000D01*
G36*
X159073000Y-100023000D02*
G01*
X156177000Y-100023000D01*
X156177000Y-92832278D01*
X159073000Y-92832278D01*
X159073000Y-100023000D01*
G37*
X159073000Y-100023000D02*
X156177000Y-100023000D01*
X156177000Y-92832278D01*
X159073000Y-92832278D01*
X159073000Y-100023000D01*
G36*
X107473000Y-100023000D02*
G01*
X104577000Y-100023000D01*
X104577000Y-92832278D01*
X107473000Y-92832278D01*
X107473000Y-100023000D01*
G37*
X107473000Y-100023000D02*
X104577000Y-100023000D01*
X104577000Y-92832278D01*
X107473000Y-92832278D01*
X107473000Y-100023000D01*
G36*
X113723000Y-100023000D02*
G01*
X110827000Y-100023000D01*
X110827000Y-92700000D01*
X110824560Y-92675224D01*
X110817333Y-92651399D01*
X110805597Y-92629443D01*
X110789803Y-92610197D01*
X110770557Y-92594403D01*
X110748601Y-92582667D01*
X110724776Y-92575440D01*
X110700000Y-92573000D01*
X108827000Y-92573000D01*
X108827000Y-88627000D01*
X113723001Y-88627000D01*
X113723000Y-100023000D01*
G37*
X113723000Y-100023000D02*
X110827000Y-100023000D01*
X110827000Y-92700000D01*
X110824560Y-92675224D01*
X110817333Y-92651399D01*
X110805597Y-92629443D01*
X110789803Y-92610197D01*
X110770557Y-92594403D01*
X110748601Y-92582667D01*
X110724776Y-92575440D01*
X110700000Y-92573000D01*
X108827000Y-92573000D01*
X108827000Y-88627000D01*
X113723001Y-88627000D01*
X113723000Y-100023000D01*
G36*
X152423000Y-100023000D02*
G01*
X149527000Y-100023000D01*
X149527000Y-92700000D01*
X149524560Y-92675224D01*
X149517333Y-92651399D01*
X149505597Y-92629443D01*
X149489803Y-92610197D01*
X149470557Y-92594403D01*
X149448601Y-92582667D01*
X149424776Y-92575440D01*
X149400000Y-92573000D01*
X147527000Y-92573000D01*
X147527000Y-88627000D01*
X152423001Y-88627000D01*
X152423000Y-100023000D01*
G37*
X152423000Y-100023000D02*
X149527000Y-100023000D01*
X149527000Y-92700000D01*
X149524560Y-92675224D01*
X149517333Y-92651399D01*
X149505597Y-92629443D01*
X149489803Y-92610197D01*
X149470557Y-92594403D01*
X149448601Y-92582667D01*
X149424776Y-92575440D01*
X149400000Y-92573000D01*
X147527000Y-92573000D01*
X147527000Y-88627000D01*
X152423001Y-88627000D01*
X152423000Y-100023000D01*
G36*
X178223000Y-100023000D02*
G01*
X175327000Y-100023000D01*
X175327000Y-92700000D01*
X175324560Y-92675224D01*
X175317333Y-92651399D01*
X175305597Y-92629443D01*
X175289803Y-92610197D01*
X175270557Y-92594403D01*
X175248601Y-92582667D01*
X175224776Y-92575440D01*
X175200000Y-92573000D01*
X173327000Y-92573000D01*
X173327000Y-88627000D01*
X178223001Y-88627000D01*
X178223000Y-100023000D01*
G37*
X178223000Y-100023000D02*
X175327000Y-100023000D01*
X175327000Y-92700000D01*
X175324560Y-92675224D01*
X175317333Y-92651399D01*
X175305597Y-92629443D01*
X175289803Y-92610197D01*
X175270557Y-92594403D01*
X175248601Y-92582667D01*
X175224776Y-92575440D01*
X175200000Y-92573000D01*
X173327000Y-92573000D01*
X173327000Y-88627000D01*
X178223001Y-88627000D01*
X178223000Y-100023000D01*
G36*
X160473000Y-79200000D02*
G01*
X160475440Y-79224776D01*
X160482667Y-79248601D01*
X160494403Y-79270557D01*
X160510197Y-79289803D01*
X160529443Y-79305597D01*
X160551399Y-79317333D01*
X160575224Y-79324560D01*
X160600000Y-79327000D01*
X161973000Y-79327000D01*
X161973000Y-81573000D01*
X159200000Y-81573000D01*
X159175224Y-81575440D01*
X159151399Y-81582667D01*
X159129443Y-81594403D01*
X159110197Y-81610197D01*
X159094403Y-81629443D01*
X159082667Y-81651399D01*
X159075440Y-81675224D01*
X159073000Y-81700000D01*
X159073000Y-83800000D01*
X159075440Y-83824776D01*
X159082667Y-83848601D01*
X159094403Y-83870557D01*
X159110197Y-83889803D01*
X159129443Y-83905597D01*
X159151399Y-83917333D01*
X159175224Y-83924560D01*
X159200000Y-83927000D01*
X160473000Y-83927000D01*
X160473000Y-88173000D01*
X160100000Y-88173000D01*
X160075224Y-88175440D01*
X160051399Y-88182667D01*
X160029443Y-88194403D01*
X160010197Y-88210197D01*
X159994403Y-88229443D01*
X159982667Y-88251399D01*
X159975440Y-88275224D01*
X159973000Y-88300000D01*
X159973000Y-92173000D01*
X156177000Y-92173000D01*
X156177000Y-78418442D01*
X156209684Y-78085109D01*
X156301133Y-77782213D01*
X156449676Y-77502845D01*
X156649651Y-77257652D01*
X156893438Y-77055973D01*
X157171764Y-76905483D01*
X157474013Y-76811921D01*
X157806263Y-76777000D01*
X160473000Y-76777000D01*
X160473000Y-79200000D01*
G37*
X160473000Y-79200000D02*
X160475440Y-79224776D01*
X160482667Y-79248601D01*
X160494403Y-79270557D01*
X160510197Y-79289803D01*
X160529443Y-79305597D01*
X160551399Y-79317333D01*
X160575224Y-79324560D01*
X160600000Y-79327000D01*
X161973000Y-79327000D01*
X161973000Y-81573000D01*
X159200000Y-81573000D01*
X159175224Y-81575440D01*
X159151399Y-81582667D01*
X159129443Y-81594403D01*
X159110197Y-81610197D01*
X159094403Y-81629443D01*
X159082667Y-81651399D01*
X159075440Y-81675224D01*
X159073000Y-81700000D01*
X159073000Y-83800000D01*
X159075440Y-83824776D01*
X159082667Y-83848601D01*
X159094403Y-83870557D01*
X159110197Y-83889803D01*
X159129443Y-83905597D01*
X159151399Y-83917333D01*
X159175224Y-83924560D01*
X159200000Y-83927000D01*
X160473000Y-83927000D01*
X160473000Y-88173000D01*
X160100000Y-88173000D01*
X160075224Y-88175440D01*
X160051399Y-88182667D01*
X160029443Y-88194403D01*
X160010197Y-88210197D01*
X159994403Y-88229443D01*
X159982667Y-88251399D01*
X159975440Y-88275224D01*
X159973000Y-88300000D01*
X159973000Y-92173000D01*
X156177000Y-92173000D01*
X156177000Y-78418442D01*
X156209684Y-78085109D01*
X156301133Y-77782213D01*
X156449676Y-77502845D01*
X156649651Y-77257652D01*
X156893438Y-77055973D01*
X157171764Y-76905483D01*
X157474013Y-76811921D01*
X157806263Y-76777000D01*
X160473000Y-76777000D01*
X160473000Y-79200000D01*
G36*
X108873000Y-79200000D02*
G01*
X108875440Y-79224776D01*
X108882667Y-79248601D01*
X108894403Y-79270557D01*
X108910197Y-79289803D01*
X108929443Y-79305597D01*
X108951399Y-79317333D01*
X108975224Y-79324560D01*
X109000000Y-79327000D01*
X110373000Y-79327000D01*
X110373000Y-81573000D01*
X107600000Y-81573000D01*
X107575224Y-81575440D01*
X107551399Y-81582667D01*
X107529443Y-81594403D01*
X107510197Y-81610197D01*
X107494403Y-81629443D01*
X107482667Y-81651399D01*
X107475440Y-81675224D01*
X107473000Y-81700000D01*
X107473000Y-83800000D01*
X107475440Y-83824776D01*
X107482667Y-83848601D01*
X107494403Y-83870557D01*
X107510197Y-83889803D01*
X107529443Y-83905597D01*
X107551399Y-83917333D01*
X107575224Y-83924560D01*
X107600000Y-83927000D01*
X108873000Y-83927000D01*
X108873000Y-88173000D01*
X108500000Y-88173000D01*
X108475224Y-88175440D01*
X108451399Y-88182667D01*
X108429443Y-88194403D01*
X108410197Y-88210197D01*
X108394403Y-88229443D01*
X108382667Y-88251399D01*
X108375440Y-88275224D01*
X108373000Y-88300000D01*
X108373000Y-92173000D01*
X104577000Y-92173000D01*
X104577000Y-78418442D01*
X104609684Y-78085109D01*
X104701133Y-77782213D01*
X104849676Y-77502845D01*
X105049651Y-77257652D01*
X105293438Y-77055973D01*
X105571764Y-76905483D01*
X105874013Y-76811921D01*
X106206263Y-76777000D01*
X108873000Y-76777000D01*
X108873000Y-79200000D01*
G37*
X108873000Y-79200000D02*
X108875440Y-79224776D01*
X108882667Y-79248601D01*
X108894403Y-79270557D01*
X108910197Y-79289803D01*
X108929443Y-79305597D01*
X108951399Y-79317333D01*
X108975224Y-79324560D01*
X109000000Y-79327000D01*
X110373000Y-79327000D01*
X110373000Y-81573000D01*
X107600000Y-81573000D01*
X107575224Y-81575440D01*
X107551399Y-81582667D01*
X107529443Y-81594403D01*
X107510197Y-81610197D01*
X107494403Y-81629443D01*
X107482667Y-81651399D01*
X107475440Y-81675224D01*
X107473000Y-81700000D01*
X107473000Y-83800000D01*
X107475440Y-83824776D01*
X107482667Y-83848601D01*
X107494403Y-83870557D01*
X107510197Y-83889803D01*
X107529443Y-83905597D01*
X107551399Y-83917333D01*
X107575224Y-83924560D01*
X107600000Y-83927000D01*
X108873000Y-83927000D01*
X108873000Y-88173000D01*
X108500000Y-88173000D01*
X108475224Y-88175440D01*
X108451399Y-88182667D01*
X108429443Y-88194403D01*
X108410197Y-88210197D01*
X108394403Y-88229443D01*
X108382667Y-88251399D01*
X108375440Y-88275224D01*
X108373000Y-88300000D01*
X108373000Y-92173000D01*
X104577000Y-92173000D01*
X104577000Y-78418442D01*
X104609684Y-78085109D01*
X104701133Y-77782213D01*
X104849676Y-77502845D01*
X105049651Y-77257652D01*
X105293438Y-77055973D01*
X105571764Y-76905483D01*
X105874013Y-76811921D01*
X106206263Y-76777000D01*
X108873000Y-76777000D01*
X108873000Y-79200000D01*
G36*
X121773000Y-79200000D02*
G01*
X121775440Y-79224776D01*
X121782667Y-79248601D01*
X121794403Y-79270557D01*
X121810197Y-79289803D01*
X121829443Y-79305597D01*
X121851399Y-79317333D01*
X121875224Y-79324560D01*
X121900000Y-79327000D01*
X123273000Y-79327000D01*
X123273000Y-81573000D01*
X120500000Y-81573000D01*
X120475224Y-81575440D01*
X120451399Y-81582667D01*
X120429443Y-81594403D01*
X120410197Y-81610197D01*
X120394403Y-81629443D01*
X120382667Y-81651399D01*
X120375440Y-81675224D01*
X120373000Y-81700000D01*
X120373000Y-83800000D01*
X120375440Y-83824776D01*
X120382667Y-83848601D01*
X120394403Y-83870557D01*
X120410197Y-83889803D01*
X120429443Y-83905597D01*
X120451399Y-83917333D01*
X120475224Y-83924560D01*
X120500000Y-83927000D01*
X121773000Y-83927000D01*
X121773000Y-88173000D01*
X121400000Y-88173000D01*
X121375224Y-88175440D01*
X121351399Y-88182667D01*
X121329443Y-88194403D01*
X121310197Y-88210197D01*
X121294403Y-88229443D01*
X121282667Y-88251399D01*
X121275440Y-88275224D01*
X121273000Y-88300000D01*
X121273000Y-92173000D01*
X117477000Y-92173000D01*
X117477000Y-78418442D01*
X117509684Y-78085109D01*
X117601133Y-77782213D01*
X117749676Y-77502845D01*
X117949651Y-77257652D01*
X118193438Y-77055973D01*
X118471764Y-76905483D01*
X118774013Y-76811921D01*
X119106263Y-76777000D01*
X121773000Y-76777000D01*
X121773000Y-79200000D01*
G37*
X121773000Y-79200000D02*
X121775440Y-79224776D01*
X121782667Y-79248601D01*
X121794403Y-79270557D01*
X121810197Y-79289803D01*
X121829443Y-79305597D01*
X121851399Y-79317333D01*
X121875224Y-79324560D01*
X121900000Y-79327000D01*
X123273000Y-79327000D01*
X123273000Y-81573000D01*
X120500000Y-81573000D01*
X120475224Y-81575440D01*
X120451399Y-81582667D01*
X120429443Y-81594403D01*
X120410197Y-81610197D01*
X120394403Y-81629443D01*
X120382667Y-81651399D01*
X120375440Y-81675224D01*
X120373000Y-81700000D01*
X120373000Y-83800000D01*
X120375440Y-83824776D01*
X120382667Y-83848601D01*
X120394403Y-83870557D01*
X120410197Y-83889803D01*
X120429443Y-83905597D01*
X120451399Y-83917333D01*
X120475224Y-83924560D01*
X120500000Y-83927000D01*
X121773000Y-83927000D01*
X121773000Y-88173000D01*
X121400000Y-88173000D01*
X121375224Y-88175440D01*
X121351399Y-88182667D01*
X121329443Y-88194403D01*
X121310197Y-88210197D01*
X121294403Y-88229443D01*
X121282667Y-88251399D01*
X121275440Y-88275224D01*
X121273000Y-88300000D01*
X121273000Y-92173000D01*
X117477000Y-92173000D01*
X117477000Y-78418442D01*
X117509684Y-78085109D01*
X117601133Y-77782213D01*
X117749676Y-77502845D01*
X117949651Y-77257652D01*
X118193438Y-77055973D01*
X118471764Y-76905483D01*
X118774013Y-76811921D01*
X119106263Y-76777000D01*
X121773000Y-76777000D01*
X121773000Y-79200000D01*
G36*
X147573000Y-79200000D02*
G01*
X147575440Y-79224776D01*
X147582667Y-79248601D01*
X147594403Y-79270557D01*
X147610197Y-79289803D01*
X147629443Y-79305597D01*
X147651399Y-79317333D01*
X147675224Y-79324560D01*
X147700000Y-79327000D01*
X149073000Y-79327000D01*
X149073000Y-81573000D01*
X146300000Y-81573000D01*
X146275224Y-81575440D01*
X146251399Y-81582667D01*
X146229443Y-81594403D01*
X146210197Y-81610197D01*
X146194403Y-81629443D01*
X146182667Y-81651399D01*
X146175440Y-81675224D01*
X146173000Y-81700000D01*
X146173000Y-83800000D01*
X146175440Y-83824776D01*
X146182667Y-83848601D01*
X146194403Y-83870557D01*
X146210197Y-83889803D01*
X146229443Y-83905597D01*
X146251399Y-83917333D01*
X146275224Y-83924560D01*
X146300000Y-83927000D01*
X147573000Y-83927000D01*
X147573000Y-88173000D01*
X147200000Y-88173000D01*
X147175224Y-88175440D01*
X147151399Y-88182667D01*
X147129443Y-88194403D01*
X147110197Y-88210197D01*
X147094403Y-88229443D01*
X147082667Y-88251399D01*
X147075440Y-88275224D01*
X147073000Y-88300000D01*
X147073000Y-92173000D01*
X143277000Y-92173000D01*
X143277000Y-78418442D01*
X143309684Y-78085109D01*
X143401133Y-77782213D01*
X143549676Y-77502845D01*
X143749651Y-77257652D01*
X143993438Y-77055973D01*
X144271764Y-76905483D01*
X144574013Y-76811921D01*
X144906263Y-76777000D01*
X147573000Y-76777000D01*
X147573000Y-79200000D01*
G37*
X147573000Y-79200000D02*
X147575440Y-79224776D01*
X147582667Y-79248601D01*
X147594403Y-79270557D01*
X147610197Y-79289803D01*
X147629443Y-79305597D01*
X147651399Y-79317333D01*
X147675224Y-79324560D01*
X147700000Y-79327000D01*
X149073000Y-79327000D01*
X149073000Y-81573000D01*
X146300000Y-81573000D01*
X146275224Y-81575440D01*
X146251399Y-81582667D01*
X146229443Y-81594403D01*
X146210197Y-81610197D01*
X146194403Y-81629443D01*
X146182667Y-81651399D01*
X146175440Y-81675224D01*
X146173000Y-81700000D01*
X146173000Y-83800000D01*
X146175440Y-83824776D01*
X146182667Y-83848601D01*
X146194403Y-83870557D01*
X146210197Y-83889803D01*
X146229443Y-83905597D01*
X146251399Y-83917333D01*
X146275224Y-83924560D01*
X146300000Y-83927000D01*
X147573000Y-83927000D01*
X147573000Y-88173000D01*
X147200000Y-88173000D01*
X147175224Y-88175440D01*
X147151399Y-88182667D01*
X147129443Y-88194403D01*
X147110197Y-88210197D01*
X147094403Y-88229443D01*
X147082667Y-88251399D01*
X147075440Y-88275224D01*
X147073000Y-88300000D01*
X147073000Y-92173000D01*
X143277000Y-92173000D01*
X143277000Y-78418442D01*
X143309684Y-78085109D01*
X143401133Y-77782213D01*
X143549676Y-77502845D01*
X143749651Y-77257652D01*
X143993438Y-77055973D01*
X144271764Y-76905483D01*
X144574013Y-76811921D01*
X144906263Y-76777000D01*
X147573000Y-76777000D01*
X147573000Y-79200000D01*
G36*
X173373000Y-79200000D02*
G01*
X173375440Y-79224776D01*
X173382667Y-79248601D01*
X173394403Y-79270557D01*
X173410197Y-79289803D01*
X173429443Y-79305597D01*
X173451399Y-79317333D01*
X173475224Y-79324560D01*
X173500000Y-79327000D01*
X174873000Y-79327000D01*
X174873000Y-81573000D01*
X172100000Y-81573000D01*
X172075224Y-81575440D01*
X172051399Y-81582667D01*
X172029443Y-81594403D01*
X172010197Y-81610197D01*
X171994403Y-81629443D01*
X171982667Y-81651399D01*
X171975440Y-81675224D01*
X171973000Y-81700000D01*
X171973000Y-83800000D01*
X171975440Y-83824776D01*
X171982667Y-83848601D01*
X171994403Y-83870557D01*
X172010197Y-83889803D01*
X172029443Y-83905597D01*
X172051399Y-83917333D01*
X172075224Y-83924560D01*
X172100000Y-83927000D01*
X173373000Y-83927000D01*
X173373000Y-88173000D01*
X173000000Y-88173000D01*
X172975224Y-88175440D01*
X172951399Y-88182667D01*
X172929443Y-88194403D01*
X172910197Y-88210197D01*
X172894403Y-88229443D01*
X172882667Y-88251399D01*
X172875440Y-88275224D01*
X172873000Y-88300000D01*
X172873000Y-92173000D01*
X169077000Y-92173000D01*
X169077000Y-78418442D01*
X169109684Y-78085109D01*
X169201133Y-77782213D01*
X169349676Y-77502845D01*
X169549651Y-77257652D01*
X169793438Y-77055973D01*
X170071764Y-76905483D01*
X170374013Y-76811921D01*
X170706263Y-76777000D01*
X173373000Y-76777000D01*
X173373000Y-79200000D01*
G37*
X173373000Y-79200000D02*
X173375440Y-79224776D01*
X173382667Y-79248601D01*
X173394403Y-79270557D01*
X173410197Y-79289803D01*
X173429443Y-79305597D01*
X173451399Y-79317333D01*
X173475224Y-79324560D01*
X173500000Y-79327000D01*
X174873000Y-79327000D01*
X174873000Y-81573000D01*
X172100000Y-81573000D01*
X172075224Y-81575440D01*
X172051399Y-81582667D01*
X172029443Y-81594403D01*
X172010197Y-81610197D01*
X171994403Y-81629443D01*
X171982667Y-81651399D01*
X171975440Y-81675224D01*
X171973000Y-81700000D01*
X171973000Y-83800000D01*
X171975440Y-83824776D01*
X171982667Y-83848601D01*
X171994403Y-83870557D01*
X172010197Y-83889803D01*
X172029443Y-83905597D01*
X172051399Y-83917333D01*
X172075224Y-83924560D01*
X172100000Y-83927000D01*
X173373000Y-83927000D01*
X173373000Y-88173000D01*
X173000000Y-88173000D01*
X172975224Y-88175440D01*
X172951399Y-88182667D01*
X172929443Y-88194403D01*
X172910197Y-88210197D01*
X172894403Y-88229443D01*
X172882667Y-88251399D01*
X172875440Y-88275224D01*
X172873000Y-88300000D01*
X172873000Y-92173000D01*
X169077000Y-92173000D01*
X169077000Y-78418442D01*
X169109684Y-78085109D01*
X169201133Y-77782213D01*
X169349676Y-77502845D01*
X169549651Y-77257652D01*
X169793438Y-77055973D01*
X170071764Y-76905483D01*
X170374013Y-76811921D01*
X170706263Y-76777000D01*
X173373000Y-76777000D01*
X173373000Y-79200000D01*
G36*
X134673000Y-79200000D02*
G01*
X134675440Y-79224776D01*
X134682667Y-79248601D01*
X134694403Y-79270557D01*
X134710197Y-79289803D01*
X134729443Y-79305597D01*
X134751399Y-79317333D01*
X134775224Y-79324560D01*
X134800000Y-79327000D01*
X136173000Y-79327000D01*
X136173000Y-81573000D01*
X133400000Y-81573000D01*
X133375224Y-81575440D01*
X133351399Y-81582667D01*
X133329443Y-81594403D01*
X133310197Y-81610197D01*
X133294403Y-81629443D01*
X133282667Y-81651399D01*
X133275440Y-81675224D01*
X133273000Y-81700000D01*
X133273000Y-83800000D01*
X133275440Y-83824776D01*
X133282667Y-83848601D01*
X133294403Y-83870557D01*
X133310197Y-83889803D01*
X133329443Y-83905597D01*
X133351399Y-83917333D01*
X133375224Y-83924560D01*
X133400000Y-83927000D01*
X134673000Y-83927000D01*
X134673000Y-88173000D01*
X134300000Y-88173000D01*
X134275224Y-88175440D01*
X134251399Y-88182667D01*
X134229443Y-88194403D01*
X134210197Y-88210197D01*
X134194403Y-88229443D01*
X134182667Y-88251399D01*
X134175440Y-88275224D01*
X134173000Y-88300000D01*
X134173000Y-92173000D01*
X130377000Y-92173000D01*
X130377000Y-78418442D01*
X130409684Y-78085109D01*
X130501133Y-77782213D01*
X130649676Y-77502845D01*
X130849651Y-77257652D01*
X131093438Y-77055973D01*
X131371764Y-76905483D01*
X131674013Y-76811921D01*
X132006263Y-76777000D01*
X134673000Y-76777000D01*
X134673000Y-79200000D01*
G37*
X134673000Y-79200000D02*
X134675440Y-79224776D01*
X134682667Y-79248601D01*
X134694403Y-79270557D01*
X134710197Y-79289803D01*
X134729443Y-79305597D01*
X134751399Y-79317333D01*
X134775224Y-79324560D01*
X134800000Y-79327000D01*
X136173000Y-79327000D01*
X136173000Y-81573000D01*
X133400000Y-81573000D01*
X133375224Y-81575440D01*
X133351399Y-81582667D01*
X133329443Y-81594403D01*
X133310197Y-81610197D01*
X133294403Y-81629443D01*
X133282667Y-81651399D01*
X133275440Y-81675224D01*
X133273000Y-81700000D01*
X133273000Y-83800000D01*
X133275440Y-83824776D01*
X133282667Y-83848601D01*
X133294403Y-83870557D01*
X133310197Y-83889803D01*
X133329443Y-83905597D01*
X133351399Y-83917333D01*
X133375224Y-83924560D01*
X133400000Y-83927000D01*
X134673000Y-83927000D01*
X134673000Y-88173000D01*
X134300000Y-88173000D01*
X134275224Y-88175440D01*
X134251399Y-88182667D01*
X134229443Y-88194403D01*
X134210197Y-88210197D01*
X134194403Y-88229443D01*
X134182667Y-88251399D01*
X134175440Y-88275224D01*
X134173000Y-88300000D01*
X134173000Y-92173000D01*
X130377000Y-92173000D01*
X130377000Y-78418442D01*
X130409684Y-78085109D01*
X130501133Y-77782213D01*
X130649676Y-77502845D01*
X130849651Y-77257652D01*
X131093438Y-77055973D01*
X131371764Y-76905483D01*
X131674013Y-76811921D01*
X132006263Y-76777000D01*
X134673000Y-76777000D01*
X134673000Y-79200000D01*
G36*
X138214891Y-76809684D02*
G01*
X138517787Y-76901133D01*
X138797155Y-77049676D01*
X139042348Y-77249651D01*
X139244027Y-77493438D01*
X139394517Y-77771764D01*
X139488079Y-78074013D01*
X139523001Y-78406273D01*
X139523001Y-88173000D01*
X135227000Y-88173000D01*
X135227000Y-83600000D01*
X135224560Y-83575224D01*
X135217333Y-83551399D01*
X135205597Y-83529443D01*
X135189803Y-83510197D01*
X135170557Y-83494403D01*
X135148601Y-83482667D01*
X135124776Y-83475440D01*
X135100000Y-83473000D01*
X133727000Y-83473000D01*
X133727000Y-82027000D01*
X136500000Y-82027000D01*
X136524776Y-82024560D01*
X136548601Y-82017333D01*
X136570557Y-82005597D01*
X136589803Y-81989803D01*
X136605597Y-81970557D01*
X136617333Y-81948601D01*
X136624560Y-81924776D01*
X136627000Y-81900000D01*
X136627000Y-79000000D01*
X136624560Y-78975224D01*
X136617333Y-78951399D01*
X136605597Y-78929443D01*
X136589803Y-78910197D01*
X136570557Y-78894403D01*
X136548601Y-78882667D01*
X136524776Y-78875440D01*
X136500000Y-78873000D01*
X135227000Y-78873000D01*
X135227000Y-76777000D01*
X137881558Y-76777000D01*
X138214891Y-76809684D01*
G37*
X138214891Y-76809684D02*
X138517787Y-76901133D01*
X138797155Y-77049676D01*
X139042348Y-77249651D01*
X139244027Y-77493438D01*
X139394517Y-77771764D01*
X139488079Y-78074013D01*
X139523001Y-78406273D01*
X139523001Y-88173000D01*
X135227000Y-88173000D01*
X135227000Y-83600000D01*
X135224560Y-83575224D01*
X135217333Y-83551399D01*
X135205597Y-83529443D01*
X135189803Y-83510197D01*
X135170557Y-83494403D01*
X135148601Y-83482667D01*
X135124776Y-83475440D01*
X135100000Y-83473000D01*
X133727000Y-83473000D01*
X133727000Y-82027000D01*
X136500000Y-82027000D01*
X136524776Y-82024560D01*
X136548601Y-82017333D01*
X136570557Y-82005597D01*
X136589803Y-81989803D01*
X136605597Y-81970557D01*
X136617333Y-81948601D01*
X136624560Y-81924776D01*
X136627000Y-81900000D01*
X136627000Y-79000000D01*
X136624560Y-78975224D01*
X136617333Y-78951399D01*
X136605597Y-78929443D01*
X136589803Y-78910197D01*
X136570557Y-78894403D01*
X136548601Y-78882667D01*
X136524776Y-78875440D01*
X136500000Y-78873000D01*
X135227000Y-78873000D01*
X135227000Y-76777000D01*
X137881558Y-76777000D01*
X138214891Y-76809684D01*
G36*
X125314891Y-76809684D02*
G01*
X125617787Y-76901133D01*
X125897155Y-77049676D01*
X126142348Y-77249651D01*
X126344027Y-77493438D01*
X126494517Y-77771764D01*
X126588079Y-78074013D01*
X126623001Y-78406273D01*
X126623001Y-88173000D01*
X122327000Y-88173000D01*
X122327000Y-83600000D01*
X122324560Y-83575224D01*
X122317333Y-83551399D01*
X122305597Y-83529443D01*
X122289803Y-83510197D01*
X122270557Y-83494403D01*
X122248601Y-83482667D01*
X122224776Y-83475440D01*
X122200000Y-83473000D01*
X120827000Y-83473000D01*
X120827000Y-82027000D01*
X123600000Y-82027000D01*
X123624776Y-82024560D01*
X123648601Y-82017333D01*
X123670557Y-82005597D01*
X123689803Y-81989803D01*
X123705597Y-81970557D01*
X123717333Y-81948601D01*
X123724560Y-81924776D01*
X123727000Y-81900000D01*
X123727000Y-79000000D01*
X123724560Y-78975224D01*
X123717333Y-78951399D01*
X123705597Y-78929443D01*
X123689803Y-78910197D01*
X123670557Y-78894403D01*
X123648601Y-78882667D01*
X123624776Y-78875440D01*
X123600000Y-78873000D01*
X122327000Y-78873000D01*
X122327000Y-76777000D01*
X124981558Y-76777000D01*
X125314891Y-76809684D01*
G37*
X125314891Y-76809684D02*
X125617787Y-76901133D01*
X125897155Y-77049676D01*
X126142348Y-77249651D01*
X126344027Y-77493438D01*
X126494517Y-77771764D01*
X126588079Y-78074013D01*
X126623001Y-78406273D01*
X126623001Y-88173000D01*
X122327000Y-88173000D01*
X122327000Y-83600000D01*
X122324560Y-83575224D01*
X122317333Y-83551399D01*
X122305597Y-83529443D01*
X122289803Y-83510197D01*
X122270557Y-83494403D01*
X122248601Y-83482667D01*
X122224776Y-83475440D01*
X122200000Y-83473000D01*
X120827000Y-83473000D01*
X120827000Y-82027000D01*
X123600000Y-82027000D01*
X123624776Y-82024560D01*
X123648601Y-82017333D01*
X123670557Y-82005597D01*
X123689803Y-81989803D01*
X123705597Y-81970557D01*
X123717333Y-81948601D01*
X123724560Y-81924776D01*
X123727000Y-81900000D01*
X123727000Y-79000000D01*
X123724560Y-78975224D01*
X123717333Y-78951399D01*
X123705597Y-78929443D01*
X123689803Y-78910197D01*
X123670557Y-78894403D01*
X123648601Y-78882667D01*
X123624776Y-78875440D01*
X123600000Y-78873000D01*
X122327000Y-78873000D01*
X122327000Y-76777000D01*
X124981558Y-76777000D01*
X125314891Y-76809684D01*
G36*
X164014891Y-76809684D02*
G01*
X164317787Y-76901133D01*
X164597155Y-77049676D01*
X164842348Y-77249651D01*
X165044027Y-77493438D01*
X165194517Y-77771764D01*
X165288079Y-78074013D01*
X165323001Y-78406273D01*
X165323001Y-88173000D01*
X161027000Y-88173000D01*
X161027000Y-83600000D01*
X161024560Y-83575224D01*
X161017333Y-83551399D01*
X161005597Y-83529443D01*
X160989803Y-83510197D01*
X160970557Y-83494403D01*
X160948601Y-83482667D01*
X160924776Y-83475440D01*
X160900000Y-83473000D01*
X159527000Y-83473000D01*
X159527000Y-82027000D01*
X162300000Y-82027000D01*
X162324776Y-82024560D01*
X162348601Y-82017333D01*
X162370557Y-82005597D01*
X162389803Y-81989803D01*
X162405597Y-81970557D01*
X162417333Y-81948601D01*
X162424560Y-81924776D01*
X162427000Y-81900000D01*
X162427000Y-79000000D01*
X162424560Y-78975224D01*
X162417333Y-78951399D01*
X162405597Y-78929443D01*
X162389803Y-78910197D01*
X162370557Y-78894403D01*
X162348601Y-78882667D01*
X162324776Y-78875440D01*
X162300000Y-78873000D01*
X161027000Y-78873000D01*
X161027000Y-76777000D01*
X163681558Y-76777000D01*
X164014891Y-76809684D01*
G37*
X164014891Y-76809684D02*
X164317787Y-76901133D01*
X164597155Y-77049676D01*
X164842348Y-77249651D01*
X165044027Y-77493438D01*
X165194517Y-77771764D01*
X165288079Y-78074013D01*
X165323001Y-78406273D01*
X165323001Y-88173000D01*
X161027000Y-88173000D01*
X161027000Y-83600000D01*
X161024560Y-83575224D01*
X161017333Y-83551399D01*
X161005597Y-83529443D01*
X160989803Y-83510197D01*
X160970557Y-83494403D01*
X160948601Y-83482667D01*
X160924776Y-83475440D01*
X160900000Y-83473000D01*
X159527000Y-83473000D01*
X159527000Y-82027000D01*
X162300000Y-82027000D01*
X162324776Y-82024560D01*
X162348601Y-82017333D01*
X162370557Y-82005597D01*
X162389803Y-81989803D01*
X162405597Y-81970557D01*
X162417333Y-81948601D01*
X162424560Y-81924776D01*
X162427000Y-81900000D01*
X162427000Y-79000000D01*
X162424560Y-78975224D01*
X162417333Y-78951399D01*
X162405597Y-78929443D01*
X162389803Y-78910197D01*
X162370557Y-78894403D01*
X162348601Y-78882667D01*
X162324776Y-78875440D01*
X162300000Y-78873000D01*
X161027000Y-78873000D01*
X161027000Y-76777000D01*
X163681558Y-76777000D01*
X164014891Y-76809684D01*
G36*
X151114891Y-76809684D02*
G01*
X151417787Y-76901133D01*
X151697155Y-77049676D01*
X151942348Y-77249651D01*
X152144027Y-77493438D01*
X152294517Y-77771764D01*
X152388079Y-78074013D01*
X152423001Y-78406273D01*
X152423001Y-88173000D01*
X148127000Y-88173000D01*
X148127000Y-83600000D01*
X148124560Y-83575224D01*
X148117333Y-83551399D01*
X148105597Y-83529443D01*
X148089803Y-83510197D01*
X148070557Y-83494403D01*
X148048601Y-83482667D01*
X148024776Y-83475440D01*
X148000000Y-83473000D01*
X146627000Y-83473000D01*
X146627000Y-82027000D01*
X149400000Y-82027000D01*
X149424776Y-82024560D01*
X149448601Y-82017333D01*
X149470557Y-82005597D01*
X149489803Y-81989803D01*
X149505597Y-81970557D01*
X149517333Y-81948601D01*
X149524560Y-81924776D01*
X149527000Y-81900000D01*
X149527000Y-79000000D01*
X149524560Y-78975224D01*
X149517333Y-78951399D01*
X149505597Y-78929443D01*
X149489803Y-78910197D01*
X149470557Y-78894403D01*
X149448601Y-78882667D01*
X149424776Y-78875440D01*
X149400000Y-78873000D01*
X148127000Y-78873000D01*
X148127000Y-76777000D01*
X150781558Y-76777000D01*
X151114891Y-76809684D01*
G37*
X151114891Y-76809684D02*
X151417787Y-76901133D01*
X151697155Y-77049676D01*
X151942348Y-77249651D01*
X152144027Y-77493438D01*
X152294517Y-77771764D01*
X152388079Y-78074013D01*
X152423001Y-78406273D01*
X152423001Y-88173000D01*
X148127000Y-88173000D01*
X148127000Y-83600000D01*
X148124560Y-83575224D01*
X148117333Y-83551399D01*
X148105597Y-83529443D01*
X148089803Y-83510197D01*
X148070557Y-83494403D01*
X148048601Y-83482667D01*
X148024776Y-83475440D01*
X148000000Y-83473000D01*
X146627000Y-83473000D01*
X146627000Y-82027000D01*
X149400000Y-82027000D01*
X149424776Y-82024560D01*
X149448601Y-82017333D01*
X149470557Y-82005597D01*
X149489803Y-81989803D01*
X149505597Y-81970557D01*
X149517333Y-81948601D01*
X149524560Y-81924776D01*
X149527000Y-81900000D01*
X149527000Y-79000000D01*
X149524560Y-78975224D01*
X149517333Y-78951399D01*
X149505597Y-78929443D01*
X149489803Y-78910197D01*
X149470557Y-78894403D01*
X149448601Y-78882667D01*
X149424776Y-78875440D01*
X149400000Y-78873000D01*
X148127000Y-78873000D01*
X148127000Y-76777000D01*
X150781558Y-76777000D01*
X151114891Y-76809684D01*
G36*
X112414891Y-76809684D02*
G01*
X112717787Y-76901133D01*
X112997155Y-77049676D01*
X113242348Y-77249651D01*
X113444027Y-77493438D01*
X113594517Y-77771764D01*
X113688079Y-78074013D01*
X113723001Y-78406273D01*
X113723001Y-88173000D01*
X109427000Y-88173000D01*
X109427000Y-83600000D01*
X109424560Y-83575224D01*
X109417333Y-83551399D01*
X109405597Y-83529443D01*
X109389803Y-83510197D01*
X109370557Y-83494403D01*
X109348601Y-83482667D01*
X109324776Y-83475440D01*
X109300000Y-83473000D01*
X107927000Y-83473000D01*
X107927000Y-82027000D01*
X110700000Y-82027000D01*
X110724776Y-82024560D01*
X110748601Y-82017333D01*
X110770557Y-82005597D01*
X110789803Y-81989803D01*
X110805597Y-81970557D01*
X110817333Y-81948601D01*
X110824560Y-81924776D01*
X110827000Y-81900000D01*
X110827000Y-79000000D01*
X110824560Y-78975224D01*
X110817333Y-78951399D01*
X110805597Y-78929443D01*
X110789803Y-78910197D01*
X110770557Y-78894403D01*
X110748601Y-78882667D01*
X110724776Y-78875440D01*
X110700000Y-78873000D01*
X109427000Y-78873000D01*
X109427000Y-76777000D01*
X112081558Y-76777000D01*
X112414891Y-76809684D01*
G37*
X112414891Y-76809684D02*
X112717787Y-76901133D01*
X112997155Y-77049676D01*
X113242348Y-77249651D01*
X113444027Y-77493438D01*
X113594517Y-77771764D01*
X113688079Y-78074013D01*
X113723001Y-78406273D01*
X113723001Y-88173000D01*
X109427000Y-88173000D01*
X109427000Y-83600000D01*
X109424560Y-83575224D01*
X109417333Y-83551399D01*
X109405597Y-83529443D01*
X109389803Y-83510197D01*
X109370557Y-83494403D01*
X109348601Y-83482667D01*
X109324776Y-83475440D01*
X109300000Y-83473000D01*
X107927000Y-83473000D01*
X107927000Y-82027000D01*
X110700000Y-82027000D01*
X110724776Y-82024560D01*
X110748601Y-82017333D01*
X110770557Y-82005597D01*
X110789803Y-81989803D01*
X110805597Y-81970557D01*
X110817333Y-81948601D01*
X110824560Y-81924776D01*
X110827000Y-81900000D01*
X110827000Y-79000000D01*
X110824560Y-78975224D01*
X110817333Y-78951399D01*
X110805597Y-78929443D01*
X110789803Y-78910197D01*
X110770557Y-78894403D01*
X110748601Y-78882667D01*
X110724776Y-78875440D01*
X110700000Y-78873000D01*
X109427000Y-78873000D01*
X109427000Y-76777000D01*
X112081558Y-76777000D01*
X112414891Y-76809684D01*
G36*
X176914891Y-76809684D02*
G01*
X177217787Y-76901133D01*
X177497155Y-77049676D01*
X177742348Y-77249651D01*
X177944027Y-77493438D01*
X178094517Y-77771764D01*
X178188079Y-78074013D01*
X178223001Y-78406273D01*
X178223001Y-88173000D01*
X173927000Y-88173000D01*
X173927000Y-83600000D01*
X173924560Y-83575224D01*
X173917333Y-83551399D01*
X173905597Y-83529443D01*
X173889803Y-83510197D01*
X173870557Y-83494403D01*
X173848601Y-83482667D01*
X173824776Y-83475440D01*
X173800000Y-83473000D01*
X172427000Y-83473000D01*
X172427000Y-82027000D01*
X175200000Y-82027000D01*
X175224776Y-82024560D01*
X175248601Y-82017333D01*
X175270557Y-82005597D01*
X175289803Y-81989803D01*
X175305597Y-81970557D01*
X175317333Y-81948601D01*
X175324560Y-81924776D01*
X175327000Y-81900000D01*
X175327000Y-79000000D01*
X175324560Y-78975224D01*
X175317333Y-78951399D01*
X175305597Y-78929443D01*
X175289803Y-78910197D01*
X175270557Y-78894403D01*
X175248601Y-78882667D01*
X175224776Y-78875440D01*
X175200000Y-78873000D01*
X173927000Y-78873000D01*
X173927000Y-76777000D01*
X176581558Y-76777000D01*
X176914891Y-76809684D01*
G37*
X176914891Y-76809684D02*
X177217787Y-76901133D01*
X177497155Y-77049676D01*
X177742348Y-77249651D01*
X177944027Y-77493438D01*
X178094517Y-77771764D01*
X178188079Y-78074013D01*
X178223001Y-78406273D01*
X178223001Y-88173000D01*
X173927000Y-88173000D01*
X173927000Y-83600000D01*
X173924560Y-83575224D01*
X173917333Y-83551399D01*
X173905597Y-83529443D01*
X173889803Y-83510197D01*
X173870557Y-83494403D01*
X173848601Y-83482667D01*
X173824776Y-83475440D01*
X173800000Y-83473000D01*
X172427000Y-83473000D01*
X172427000Y-82027000D01*
X175200000Y-82027000D01*
X175224776Y-82024560D01*
X175248601Y-82017333D01*
X175270557Y-82005597D01*
X175289803Y-81989803D01*
X175305597Y-81970557D01*
X175317333Y-81948601D01*
X175324560Y-81924776D01*
X175327000Y-81900000D01*
X175327000Y-79000000D01*
X175324560Y-78975224D01*
X175317333Y-78951399D01*
X175305597Y-78929443D01*
X175289803Y-78910197D01*
X175270557Y-78894403D01*
X175248601Y-78882667D01*
X175224776Y-78875440D01*
X175200000Y-78873000D01*
X173927000Y-78873000D01*
X173927000Y-76777000D01*
X176581558Y-76777000D01*
X176914891Y-76809684D01*
G36*
X165323000Y-127023000D02*
G01*
X162427000Y-127023000D01*
X162427000Y-119700000D01*
X162424560Y-119675224D01*
X162417333Y-119651399D01*
X162405597Y-119629443D01*
X162389803Y-119610197D01*
X162370557Y-119594403D01*
X162348601Y-119582667D01*
X162324776Y-119575440D01*
X162300000Y-119573000D01*
X160427000Y-119573000D01*
X160427000Y-115627000D01*
X165323001Y-115627000D01*
X165323000Y-127023000D01*
G37*
X165323000Y-127023000D02*
X162427000Y-127023000D01*
X162427000Y-119700000D01*
X162424560Y-119675224D01*
X162417333Y-119651399D01*
X162405597Y-119629443D01*
X162389803Y-119610197D01*
X162370557Y-119594403D01*
X162348601Y-119582667D01*
X162324776Y-119575440D01*
X162300000Y-119573000D01*
X160427000Y-119573000D01*
X160427000Y-115627000D01*
X165323001Y-115627000D01*
X165323000Y-127023000D01*
G36*
X178223000Y-127023000D02*
G01*
X175327000Y-127023000D01*
X175327000Y-119700000D01*
X175324560Y-119675224D01*
X175317333Y-119651399D01*
X175305597Y-119629443D01*
X175289803Y-119610197D01*
X175270557Y-119594403D01*
X175248601Y-119582667D01*
X175224776Y-119575440D01*
X175200000Y-119573000D01*
X173327000Y-119573000D01*
X173327000Y-115627000D01*
X178223001Y-115627000D01*
X178223000Y-127023000D01*
G37*
X178223000Y-127023000D02*
X175327000Y-127023000D01*
X175327000Y-119700000D01*
X175324560Y-119675224D01*
X175317333Y-119651399D01*
X175305597Y-119629443D01*
X175289803Y-119610197D01*
X175270557Y-119594403D01*
X175248601Y-119582667D01*
X175224776Y-119575440D01*
X175200000Y-119573000D01*
X173327000Y-119573000D01*
X173327000Y-115627000D01*
X178223001Y-115627000D01*
X178223000Y-127023000D01*
G36*
X126623000Y-127023000D02*
G01*
X123727000Y-127023000D01*
X123727000Y-119700000D01*
X123724560Y-119675224D01*
X123717333Y-119651399D01*
X123705597Y-119629443D01*
X123689803Y-119610197D01*
X123670557Y-119594403D01*
X123648601Y-119582667D01*
X123624776Y-119575440D01*
X123600000Y-119573000D01*
X121727000Y-119573000D01*
X121727000Y-115627000D01*
X126623001Y-115627000D01*
X126623000Y-127023000D01*
G37*
X126623000Y-127023000D02*
X123727000Y-127023000D01*
X123727000Y-119700000D01*
X123724560Y-119675224D01*
X123717333Y-119651399D01*
X123705597Y-119629443D01*
X123689803Y-119610197D01*
X123670557Y-119594403D01*
X123648601Y-119582667D01*
X123624776Y-119575440D01*
X123600000Y-119573000D01*
X121727000Y-119573000D01*
X121727000Y-115627000D01*
X126623001Y-115627000D01*
X126623000Y-127023000D01*
G36*
X139523000Y-127023000D02*
G01*
X136627000Y-127023000D01*
X136627000Y-119700000D01*
X136624560Y-119675224D01*
X136617333Y-119651399D01*
X136605597Y-119629443D01*
X136589803Y-119610197D01*
X136570557Y-119594403D01*
X136548601Y-119582667D01*
X136524776Y-119575440D01*
X136500000Y-119573000D01*
X134627000Y-119573000D01*
X134627000Y-115627000D01*
X139523001Y-115627000D01*
X139523000Y-127023000D01*
G37*
X139523000Y-127023000D02*
X136627000Y-127023000D01*
X136627000Y-119700000D01*
X136624560Y-119675224D01*
X136617333Y-119651399D01*
X136605597Y-119629443D01*
X136589803Y-119610197D01*
X136570557Y-119594403D01*
X136548601Y-119582667D01*
X136524776Y-119575440D01*
X136500000Y-119573000D01*
X134627000Y-119573000D01*
X134627000Y-115627000D01*
X139523001Y-115627000D01*
X139523000Y-127023000D01*
G36*
X147573000Y-106200000D02*
G01*
X147575440Y-106224776D01*
X147582667Y-106248601D01*
X147594403Y-106270557D01*
X147610197Y-106289803D01*
X147629443Y-106305597D01*
X147651399Y-106317333D01*
X147675224Y-106324560D01*
X147700000Y-106327000D01*
X149073000Y-106327000D01*
X149073000Y-108573000D01*
X146300000Y-108573000D01*
X146275224Y-108575440D01*
X146251399Y-108582667D01*
X146229443Y-108594403D01*
X146210197Y-108610197D01*
X146194403Y-108629443D01*
X146182667Y-108651399D01*
X146175440Y-108675224D01*
X146173000Y-108700000D01*
X146173000Y-110800000D01*
X146175440Y-110824776D01*
X146182667Y-110848601D01*
X146194403Y-110870557D01*
X146210197Y-110889803D01*
X146229443Y-110905597D01*
X146251399Y-110917333D01*
X146275224Y-110924560D01*
X146300000Y-110927000D01*
X147573000Y-110927000D01*
X147573000Y-115173000D01*
X147200000Y-115173000D01*
X147175224Y-115175440D01*
X147151399Y-115182667D01*
X147129443Y-115194403D01*
X147110197Y-115210197D01*
X147094403Y-115229443D01*
X147082667Y-115251399D01*
X147075440Y-115275224D01*
X147073000Y-115300000D01*
X147073000Y-119173000D01*
X143277000Y-119173000D01*
X143277000Y-105418442D01*
X143309684Y-105085109D01*
X143401133Y-104782213D01*
X143549676Y-104502845D01*
X143749651Y-104257652D01*
X143993438Y-104055973D01*
X144271764Y-103905483D01*
X144574013Y-103811921D01*
X144906263Y-103777000D01*
X147573000Y-103777000D01*
X147573000Y-106200000D01*
G37*
X147573000Y-106200000D02*
X147575440Y-106224776D01*
X147582667Y-106248601D01*
X147594403Y-106270557D01*
X147610197Y-106289803D01*
X147629443Y-106305597D01*
X147651399Y-106317333D01*
X147675224Y-106324560D01*
X147700000Y-106327000D01*
X149073000Y-106327000D01*
X149073000Y-108573000D01*
X146300000Y-108573000D01*
X146275224Y-108575440D01*
X146251399Y-108582667D01*
X146229443Y-108594403D01*
X146210197Y-108610197D01*
X146194403Y-108629443D01*
X146182667Y-108651399D01*
X146175440Y-108675224D01*
X146173000Y-108700000D01*
X146173000Y-110800000D01*
X146175440Y-110824776D01*
X146182667Y-110848601D01*
X146194403Y-110870557D01*
X146210197Y-110889803D01*
X146229443Y-110905597D01*
X146251399Y-110917333D01*
X146275224Y-110924560D01*
X146300000Y-110927000D01*
X147573000Y-110927000D01*
X147573000Y-115173000D01*
X147200000Y-115173000D01*
X147175224Y-115175440D01*
X147151399Y-115182667D01*
X147129443Y-115194403D01*
X147110197Y-115210197D01*
X147094403Y-115229443D01*
X147082667Y-115251399D01*
X147075440Y-115275224D01*
X147073000Y-115300000D01*
X147073000Y-119173000D01*
X143277000Y-119173000D01*
X143277000Y-105418442D01*
X143309684Y-105085109D01*
X143401133Y-104782213D01*
X143549676Y-104502845D01*
X143749651Y-104257652D01*
X143993438Y-104055973D01*
X144271764Y-103905483D01*
X144574013Y-103811921D01*
X144906263Y-103777000D01*
X147573000Y-103777000D01*
X147573000Y-106200000D01*
G36*
X94573000Y-127023000D02*
G01*
X91677000Y-127023000D01*
X91677000Y-119832278D01*
X94573000Y-119832278D01*
X94573000Y-127023000D01*
G37*
X94573000Y-127023000D02*
X91677000Y-127023000D01*
X91677000Y-119832278D01*
X94573000Y-119832278D01*
X94573000Y-127023000D01*
G36*
X171973000Y-127023000D02*
G01*
X169077000Y-127023000D01*
X169077000Y-119832278D01*
X171973000Y-119832278D01*
X171973000Y-127023000D01*
G37*
X171973000Y-127023000D02*
X169077000Y-127023000D01*
X169077000Y-119832278D01*
X171973000Y-119832278D01*
X171973000Y-127023000D01*
G36*
X133273000Y-127023000D02*
G01*
X130377000Y-127023000D01*
X130377000Y-119832278D01*
X133273000Y-119832278D01*
X133273000Y-127023000D01*
G37*
X133273000Y-127023000D02*
X130377000Y-127023000D01*
X130377000Y-119832278D01*
X133273000Y-119832278D01*
X133273000Y-127023000D01*
G36*
X152423000Y-127023000D02*
G01*
X149527000Y-127023000D01*
X149527000Y-119700000D01*
X149524560Y-119675224D01*
X149517333Y-119651399D01*
X149505597Y-119629443D01*
X149489803Y-119610197D01*
X149470557Y-119594403D01*
X149448601Y-119582667D01*
X149424776Y-119575440D01*
X149400000Y-119573000D01*
X147527000Y-119573000D01*
X147527000Y-115627000D01*
X152423001Y-115627000D01*
X152423000Y-127023000D01*
G37*
X152423000Y-127023000D02*
X149527000Y-127023000D01*
X149527000Y-119700000D01*
X149524560Y-119675224D01*
X149517333Y-119651399D01*
X149505597Y-119629443D01*
X149489803Y-119610197D01*
X149470557Y-119594403D01*
X149448601Y-119582667D01*
X149424776Y-119575440D01*
X149400000Y-119573000D01*
X147527000Y-119573000D01*
X147527000Y-115627000D01*
X152423001Y-115627000D01*
X152423000Y-127023000D01*
G36*
X100823000Y-127023000D02*
G01*
X97927000Y-127023000D01*
X97927000Y-119700000D01*
X97924560Y-119675224D01*
X97917333Y-119651399D01*
X97905597Y-119629443D01*
X97889803Y-119610197D01*
X97870557Y-119594403D01*
X97848601Y-119582667D01*
X97824776Y-119575440D01*
X97800000Y-119573000D01*
X95927000Y-119573000D01*
X95927000Y-115627000D01*
X100823001Y-115627000D01*
X100823000Y-127023000D01*
G37*
X100823000Y-127023000D02*
X97927000Y-127023000D01*
X97927000Y-119700000D01*
X97924560Y-119675224D01*
X97917333Y-119651399D01*
X97905597Y-119629443D01*
X97889803Y-119610197D01*
X97870557Y-119594403D01*
X97848601Y-119582667D01*
X97824776Y-119575440D01*
X97800000Y-119573000D01*
X95927000Y-119573000D01*
X95927000Y-115627000D01*
X100823001Y-115627000D01*
X100823000Y-127023000D01*
G36*
X120373000Y-127023000D02*
G01*
X117477000Y-127023000D01*
X117477000Y-119832278D01*
X120373000Y-119832278D01*
X120373000Y-127023000D01*
G37*
X120373000Y-127023000D02*
X117477000Y-127023000D01*
X117477000Y-119832278D01*
X120373000Y-119832278D01*
X120373000Y-127023000D01*
G36*
X146173000Y-127023000D02*
G01*
X143277000Y-127023000D01*
X143277000Y-119832278D01*
X146173000Y-119832278D01*
X146173000Y-127023000D01*
G37*
X146173000Y-127023000D02*
X143277000Y-127023000D01*
X143277000Y-119832278D01*
X146173000Y-119832278D01*
X146173000Y-127023000D01*
G36*
X108873000Y-106200000D02*
G01*
X108875440Y-106224776D01*
X108882667Y-106248601D01*
X108894403Y-106270557D01*
X108910197Y-106289803D01*
X108929443Y-106305597D01*
X108951399Y-106317333D01*
X108975224Y-106324560D01*
X109000000Y-106327000D01*
X110373000Y-106327000D01*
X110373000Y-108573000D01*
X107600000Y-108573000D01*
X107575224Y-108575440D01*
X107551399Y-108582667D01*
X107529443Y-108594403D01*
X107510197Y-108610197D01*
X107494403Y-108629443D01*
X107482667Y-108651399D01*
X107475440Y-108675224D01*
X107473000Y-108700000D01*
X107473000Y-110800000D01*
X107475440Y-110824776D01*
X107482667Y-110848601D01*
X107494403Y-110870557D01*
X107510197Y-110889803D01*
X107529443Y-110905597D01*
X107551399Y-110917333D01*
X107575224Y-110924560D01*
X107600000Y-110927000D01*
X108873000Y-110927000D01*
X108873000Y-115173000D01*
X108500000Y-115173000D01*
X108475224Y-115175440D01*
X108451399Y-115182667D01*
X108429443Y-115194403D01*
X108410197Y-115210197D01*
X108394403Y-115229443D01*
X108382667Y-115251399D01*
X108375440Y-115275224D01*
X108373000Y-115300000D01*
X108373000Y-119173000D01*
X104577000Y-119173000D01*
X104577000Y-105418442D01*
X104609684Y-105085109D01*
X104701133Y-104782213D01*
X104849676Y-104502845D01*
X105049651Y-104257652D01*
X105293438Y-104055973D01*
X105571764Y-103905483D01*
X105874013Y-103811921D01*
X106206263Y-103777000D01*
X108873000Y-103777000D01*
X108873000Y-106200000D01*
G37*
X108873000Y-106200000D02*
X108875440Y-106224776D01*
X108882667Y-106248601D01*
X108894403Y-106270557D01*
X108910197Y-106289803D01*
X108929443Y-106305597D01*
X108951399Y-106317333D01*
X108975224Y-106324560D01*
X109000000Y-106327000D01*
X110373000Y-106327000D01*
X110373000Y-108573000D01*
X107600000Y-108573000D01*
X107575224Y-108575440D01*
X107551399Y-108582667D01*
X107529443Y-108594403D01*
X107510197Y-108610197D01*
X107494403Y-108629443D01*
X107482667Y-108651399D01*
X107475440Y-108675224D01*
X107473000Y-108700000D01*
X107473000Y-110800000D01*
X107475440Y-110824776D01*
X107482667Y-110848601D01*
X107494403Y-110870557D01*
X107510197Y-110889803D01*
X107529443Y-110905597D01*
X107551399Y-110917333D01*
X107575224Y-110924560D01*
X107600000Y-110927000D01*
X108873000Y-110927000D01*
X108873000Y-115173000D01*
X108500000Y-115173000D01*
X108475224Y-115175440D01*
X108451399Y-115182667D01*
X108429443Y-115194403D01*
X108410197Y-115210197D01*
X108394403Y-115229443D01*
X108382667Y-115251399D01*
X108375440Y-115275224D01*
X108373000Y-115300000D01*
X108373000Y-119173000D01*
X104577000Y-119173000D01*
X104577000Y-105418442D01*
X104609684Y-105085109D01*
X104701133Y-104782213D01*
X104849676Y-104502845D01*
X105049651Y-104257652D01*
X105293438Y-104055973D01*
X105571764Y-103905483D01*
X105874013Y-103811921D01*
X106206263Y-103777000D01*
X108873000Y-103777000D01*
X108873000Y-106200000D01*
G36*
X173373000Y-106200000D02*
G01*
X173375440Y-106224776D01*
X173382667Y-106248601D01*
X173394403Y-106270557D01*
X173410197Y-106289803D01*
X173429443Y-106305597D01*
X173451399Y-106317333D01*
X173475224Y-106324560D01*
X173500000Y-106327000D01*
X174873000Y-106327000D01*
X174873000Y-108573000D01*
X172100000Y-108573000D01*
X172075224Y-108575440D01*
X172051399Y-108582667D01*
X172029443Y-108594403D01*
X172010197Y-108610197D01*
X171994403Y-108629443D01*
X171982667Y-108651399D01*
X171975440Y-108675224D01*
X171973000Y-108700000D01*
X171973000Y-110800000D01*
X171975440Y-110824776D01*
X171982667Y-110848601D01*
X171994403Y-110870557D01*
X172010197Y-110889803D01*
X172029443Y-110905597D01*
X172051399Y-110917333D01*
X172075224Y-110924560D01*
X172100000Y-110927000D01*
X173373000Y-110927000D01*
X173373000Y-115173000D01*
X173000000Y-115173000D01*
X172975224Y-115175440D01*
X172951399Y-115182667D01*
X172929443Y-115194403D01*
X172910197Y-115210197D01*
X172894403Y-115229443D01*
X172882667Y-115251399D01*
X172875440Y-115275224D01*
X172873000Y-115300000D01*
X172873000Y-119173000D01*
X169077000Y-119173000D01*
X169077000Y-105418442D01*
X169109684Y-105085109D01*
X169201133Y-104782213D01*
X169349676Y-104502845D01*
X169549651Y-104257652D01*
X169793438Y-104055973D01*
X170071764Y-103905483D01*
X170374013Y-103811921D01*
X170706263Y-103777000D01*
X173373000Y-103777000D01*
X173373000Y-106200000D01*
G37*
X173373000Y-106200000D02*
X173375440Y-106224776D01*
X173382667Y-106248601D01*
X173394403Y-106270557D01*
X173410197Y-106289803D01*
X173429443Y-106305597D01*
X173451399Y-106317333D01*
X173475224Y-106324560D01*
X173500000Y-106327000D01*
X174873000Y-106327000D01*
X174873000Y-108573000D01*
X172100000Y-108573000D01*
X172075224Y-108575440D01*
X172051399Y-108582667D01*
X172029443Y-108594403D01*
X172010197Y-108610197D01*
X171994403Y-108629443D01*
X171982667Y-108651399D01*
X171975440Y-108675224D01*
X171973000Y-108700000D01*
X171973000Y-110800000D01*
X171975440Y-110824776D01*
X171982667Y-110848601D01*
X171994403Y-110870557D01*
X172010197Y-110889803D01*
X172029443Y-110905597D01*
X172051399Y-110917333D01*
X172075224Y-110924560D01*
X172100000Y-110927000D01*
X173373000Y-110927000D01*
X173373000Y-115173000D01*
X173000000Y-115173000D01*
X172975224Y-115175440D01*
X172951399Y-115182667D01*
X172929443Y-115194403D01*
X172910197Y-115210197D01*
X172894403Y-115229443D01*
X172882667Y-115251399D01*
X172875440Y-115275224D01*
X172873000Y-115300000D01*
X172873000Y-119173000D01*
X169077000Y-119173000D01*
X169077000Y-105418442D01*
X169109684Y-105085109D01*
X169201133Y-104782213D01*
X169349676Y-104502845D01*
X169549651Y-104257652D01*
X169793438Y-104055973D01*
X170071764Y-103905483D01*
X170374013Y-103811921D01*
X170706263Y-103777000D01*
X173373000Y-103777000D01*
X173373000Y-106200000D01*
G36*
X159073000Y-127023000D02*
G01*
X156177000Y-127023000D01*
X156177000Y-119832278D01*
X159073000Y-119832278D01*
X159073000Y-127023000D01*
G37*
X159073000Y-127023000D02*
X156177000Y-127023000D01*
X156177000Y-119832278D01*
X159073000Y-119832278D01*
X159073000Y-127023000D01*
G36*
X95973000Y-106200000D02*
G01*
X95975440Y-106224776D01*
X95982667Y-106248601D01*
X95994403Y-106270557D01*
X96010197Y-106289803D01*
X96029443Y-106305597D01*
X96051399Y-106317333D01*
X96075224Y-106324560D01*
X96100000Y-106327000D01*
X97473000Y-106327000D01*
X97473000Y-108573000D01*
X94700000Y-108573000D01*
X94675224Y-108575440D01*
X94651399Y-108582667D01*
X94629443Y-108594403D01*
X94610197Y-108610197D01*
X94594403Y-108629443D01*
X94582667Y-108651399D01*
X94575440Y-108675224D01*
X94573000Y-108700000D01*
X94573000Y-110800000D01*
X94575440Y-110824776D01*
X94582667Y-110848601D01*
X94594403Y-110870557D01*
X94610197Y-110889803D01*
X94629443Y-110905597D01*
X94651399Y-110917333D01*
X94675224Y-110924560D01*
X94700000Y-110927000D01*
X95973000Y-110927000D01*
X95973000Y-115173000D01*
X95600000Y-115173000D01*
X95575224Y-115175440D01*
X95551399Y-115182667D01*
X95529443Y-115194403D01*
X95510197Y-115210197D01*
X95494403Y-115229443D01*
X95482667Y-115251399D01*
X95475440Y-115275224D01*
X95473000Y-115300000D01*
X95473000Y-119173000D01*
X91677000Y-119173000D01*
X91677000Y-105418442D01*
X91709684Y-105085109D01*
X91801133Y-104782213D01*
X91949676Y-104502845D01*
X92149651Y-104257652D01*
X92393438Y-104055973D01*
X92671764Y-103905483D01*
X92974013Y-103811921D01*
X93306263Y-103777000D01*
X95973000Y-103777000D01*
X95973000Y-106200000D01*
G37*
X95973000Y-106200000D02*
X95975440Y-106224776D01*
X95982667Y-106248601D01*
X95994403Y-106270557D01*
X96010197Y-106289803D01*
X96029443Y-106305597D01*
X96051399Y-106317333D01*
X96075224Y-106324560D01*
X96100000Y-106327000D01*
X97473000Y-106327000D01*
X97473000Y-108573000D01*
X94700000Y-108573000D01*
X94675224Y-108575440D01*
X94651399Y-108582667D01*
X94629443Y-108594403D01*
X94610197Y-108610197D01*
X94594403Y-108629443D01*
X94582667Y-108651399D01*
X94575440Y-108675224D01*
X94573000Y-108700000D01*
X94573000Y-110800000D01*
X94575440Y-110824776D01*
X94582667Y-110848601D01*
X94594403Y-110870557D01*
X94610197Y-110889803D01*
X94629443Y-110905597D01*
X94651399Y-110917333D01*
X94675224Y-110924560D01*
X94700000Y-110927000D01*
X95973000Y-110927000D01*
X95973000Y-115173000D01*
X95600000Y-115173000D01*
X95575224Y-115175440D01*
X95551399Y-115182667D01*
X95529443Y-115194403D01*
X95510197Y-115210197D01*
X95494403Y-115229443D01*
X95482667Y-115251399D01*
X95475440Y-115275224D01*
X95473000Y-115300000D01*
X95473000Y-119173000D01*
X91677000Y-119173000D01*
X91677000Y-105418442D01*
X91709684Y-105085109D01*
X91801133Y-104782213D01*
X91949676Y-104502845D01*
X92149651Y-104257652D01*
X92393438Y-104055973D01*
X92671764Y-103905483D01*
X92974013Y-103811921D01*
X93306263Y-103777000D01*
X95973000Y-103777000D01*
X95973000Y-106200000D01*
G36*
X99514891Y-103809684D02*
G01*
X99817787Y-103901133D01*
X100097155Y-104049676D01*
X100342348Y-104249651D01*
X100544027Y-104493438D01*
X100694517Y-104771764D01*
X100788079Y-105074013D01*
X100823001Y-105406273D01*
X100823001Y-115173000D01*
X96527000Y-115173000D01*
X96527000Y-110600000D01*
X96524560Y-110575224D01*
X96517333Y-110551399D01*
X96505597Y-110529443D01*
X96489803Y-110510197D01*
X96470557Y-110494403D01*
X96448601Y-110482667D01*
X96424776Y-110475440D01*
X96400000Y-110473000D01*
X95027000Y-110473000D01*
X95027000Y-109027000D01*
X97800000Y-109027000D01*
X97824776Y-109024560D01*
X97848601Y-109017333D01*
X97870557Y-109005597D01*
X97889803Y-108989803D01*
X97905597Y-108970557D01*
X97917333Y-108948601D01*
X97924560Y-108924776D01*
X97927000Y-108900000D01*
X97927000Y-106000000D01*
X97924560Y-105975224D01*
X97917333Y-105951399D01*
X97905597Y-105929443D01*
X97889803Y-105910197D01*
X97870557Y-105894403D01*
X97848601Y-105882667D01*
X97824776Y-105875440D01*
X97800000Y-105873000D01*
X96527000Y-105873000D01*
X96527000Y-103777000D01*
X99181558Y-103777000D01*
X99514891Y-103809684D01*
G37*
X99514891Y-103809684D02*
X99817787Y-103901133D01*
X100097155Y-104049676D01*
X100342348Y-104249651D01*
X100544027Y-104493438D01*
X100694517Y-104771764D01*
X100788079Y-105074013D01*
X100823001Y-105406273D01*
X100823001Y-115173000D01*
X96527000Y-115173000D01*
X96527000Y-110600000D01*
X96524560Y-110575224D01*
X96517333Y-110551399D01*
X96505597Y-110529443D01*
X96489803Y-110510197D01*
X96470557Y-110494403D01*
X96448601Y-110482667D01*
X96424776Y-110475440D01*
X96400000Y-110473000D01*
X95027000Y-110473000D01*
X95027000Y-109027000D01*
X97800000Y-109027000D01*
X97824776Y-109024560D01*
X97848601Y-109017333D01*
X97870557Y-109005597D01*
X97889803Y-108989803D01*
X97905597Y-108970557D01*
X97917333Y-108948601D01*
X97924560Y-108924776D01*
X97927000Y-108900000D01*
X97927000Y-106000000D01*
X97924560Y-105975224D01*
X97917333Y-105951399D01*
X97905597Y-105929443D01*
X97889803Y-105910197D01*
X97870557Y-105894403D01*
X97848601Y-105882667D01*
X97824776Y-105875440D01*
X97800000Y-105873000D01*
X96527000Y-105873000D01*
X96527000Y-103777000D01*
X99181558Y-103777000D01*
X99514891Y-103809684D01*
G36*
X107473000Y-127023000D02*
G01*
X104577000Y-127023000D01*
X104577000Y-119832278D01*
X107473000Y-119832278D01*
X107473000Y-127023000D01*
G37*
X107473000Y-127023000D02*
X104577000Y-127023000D01*
X104577000Y-119832278D01*
X107473000Y-119832278D01*
X107473000Y-127023000D01*
G36*
X113723000Y-127023000D02*
G01*
X110827000Y-127023000D01*
X110827000Y-119700000D01*
X110824560Y-119675224D01*
X110817333Y-119651399D01*
X110805597Y-119629443D01*
X110789803Y-119610197D01*
X110770557Y-119594403D01*
X110748601Y-119582667D01*
X110724776Y-119575440D01*
X110700000Y-119573000D01*
X108827000Y-119573000D01*
X108827000Y-115627000D01*
X113723001Y-115627000D01*
X113723000Y-127023000D01*
G37*
X113723000Y-127023000D02*
X110827000Y-127023000D01*
X110827000Y-119700000D01*
X110824560Y-119675224D01*
X110817333Y-119651399D01*
X110805597Y-119629443D01*
X110789803Y-119610197D01*
X110770557Y-119594403D01*
X110748601Y-119582667D01*
X110724776Y-119575440D01*
X110700000Y-119573000D01*
X108827000Y-119573000D01*
X108827000Y-115627000D01*
X113723001Y-115627000D01*
X113723000Y-127023000D01*
G36*
X160473000Y-106200000D02*
G01*
X160475440Y-106224776D01*
X160482667Y-106248601D01*
X160494403Y-106270557D01*
X160510197Y-106289803D01*
X160529443Y-106305597D01*
X160551399Y-106317333D01*
X160575224Y-106324560D01*
X160600000Y-106327000D01*
X161973000Y-106327000D01*
X161973000Y-108573000D01*
X159200000Y-108573000D01*
X159175224Y-108575440D01*
X159151399Y-108582667D01*
X159129443Y-108594403D01*
X159110197Y-108610197D01*
X159094403Y-108629443D01*
X159082667Y-108651399D01*
X159075440Y-108675224D01*
X159073000Y-108700000D01*
X159073000Y-110800000D01*
X159075440Y-110824776D01*
X159082667Y-110848601D01*
X159094403Y-110870557D01*
X159110197Y-110889803D01*
X159129443Y-110905597D01*
X159151399Y-110917333D01*
X159175224Y-110924560D01*
X159200000Y-110927000D01*
X160473000Y-110927000D01*
X160473000Y-115173000D01*
X160100000Y-115173000D01*
X160075224Y-115175440D01*
X160051399Y-115182667D01*
X160029443Y-115194403D01*
X160010197Y-115210197D01*
X159994403Y-115229443D01*
X159982667Y-115251399D01*
X159975440Y-115275224D01*
X159973000Y-115300000D01*
X159973000Y-119173000D01*
X156177000Y-119173000D01*
X156177000Y-105418442D01*
X156209684Y-105085109D01*
X156301133Y-104782213D01*
X156449676Y-104502845D01*
X156649651Y-104257652D01*
X156893438Y-104055973D01*
X157171764Y-103905483D01*
X157474013Y-103811921D01*
X157806263Y-103777000D01*
X160473000Y-103777000D01*
X160473000Y-106200000D01*
G37*
X160473000Y-106200000D02*
X160475440Y-106224776D01*
X160482667Y-106248601D01*
X160494403Y-106270557D01*
X160510197Y-106289803D01*
X160529443Y-106305597D01*
X160551399Y-106317333D01*
X160575224Y-106324560D01*
X160600000Y-106327000D01*
X161973000Y-106327000D01*
X161973000Y-108573000D01*
X159200000Y-108573000D01*
X159175224Y-108575440D01*
X159151399Y-108582667D01*
X159129443Y-108594403D01*
X159110197Y-108610197D01*
X159094403Y-108629443D01*
X159082667Y-108651399D01*
X159075440Y-108675224D01*
X159073000Y-108700000D01*
X159073000Y-110800000D01*
X159075440Y-110824776D01*
X159082667Y-110848601D01*
X159094403Y-110870557D01*
X159110197Y-110889803D01*
X159129443Y-110905597D01*
X159151399Y-110917333D01*
X159175224Y-110924560D01*
X159200000Y-110927000D01*
X160473000Y-110927000D01*
X160473000Y-115173000D01*
X160100000Y-115173000D01*
X160075224Y-115175440D01*
X160051399Y-115182667D01*
X160029443Y-115194403D01*
X160010197Y-115210197D01*
X159994403Y-115229443D01*
X159982667Y-115251399D01*
X159975440Y-115275224D01*
X159973000Y-115300000D01*
X159973000Y-119173000D01*
X156177000Y-119173000D01*
X156177000Y-105418442D01*
X156209684Y-105085109D01*
X156301133Y-104782213D01*
X156449676Y-104502845D01*
X156649651Y-104257652D01*
X156893438Y-104055973D01*
X157171764Y-103905483D01*
X157474013Y-103811921D01*
X157806263Y-103777000D01*
X160473000Y-103777000D01*
X160473000Y-106200000D01*
G36*
X121773000Y-106200000D02*
G01*
X121775440Y-106224776D01*
X121782667Y-106248601D01*
X121794403Y-106270557D01*
X121810197Y-106289803D01*
X121829443Y-106305597D01*
X121851399Y-106317333D01*
X121875224Y-106324560D01*
X121900000Y-106327000D01*
X123273000Y-106327000D01*
X123273000Y-108573000D01*
X120500000Y-108573000D01*
X120475224Y-108575440D01*
X120451399Y-108582667D01*
X120429443Y-108594403D01*
X120410197Y-108610197D01*
X120394403Y-108629443D01*
X120382667Y-108651399D01*
X120375440Y-108675224D01*
X120373000Y-108700000D01*
X120373000Y-110800000D01*
X120375440Y-110824776D01*
X120382667Y-110848601D01*
X120394403Y-110870557D01*
X120410197Y-110889803D01*
X120429443Y-110905597D01*
X120451399Y-110917333D01*
X120475224Y-110924560D01*
X120500000Y-110927000D01*
X121773000Y-110927000D01*
X121773000Y-115173000D01*
X121400000Y-115173000D01*
X121375224Y-115175440D01*
X121351399Y-115182667D01*
X121329443Y-115194403D01*
X121310197Y-115210197D01*
X121294403Y-115229443D01*
X121282667Y-115251399D01*
X121275440Y-115275224D01*
X121273000Y-115300000D01*
X121273000Y-119173000D01*
X117477000Y-119173000D01*
X117477000Y-105418442D01*
X117509684Y-105085109D01*
X117601133Y-104782213D01*
X117749676Y-104502845D01*
X117949651Y-104257652D01*
X118193438Y-104055973D01*
X118471764Y-103905483D01*
X118774013Y-103811921D01*
X119106263Y-103777000D01*
X121773000Y-103777000D01*
X121773000Y-106200000D01*
G37*
X121773000Y-106200000D02*
X121775440Y-106224776D01*
X121782667Y-106248601D01*
X121794403Y-106270557D01*
X121810197Y-106289803D01*
X121829443Y-106305597D01*
X121851399Y-106317333D01*
X121875224Y-106324560D01*
X121900000Y-106327000D01*
X123273000Y-106327000D01*
X123273000Y-108573000D01*
X120500000Y-108573000D01*
X120475224Y-108575440D01*
X120451399Y-108582667D01*
X120429443Y-108594403D01*
X120410197Y-108610197D01*
X120394403Y-108629443D01*
X120382667Y-108651399D01*
X120375440Y-108675224D01*
X120373000Y-108700000D01*
X120373000Y-110800000D01*
X120375440Y-110824776D01*
X120382667Y-110848601D01*
X120394403Y-110870557D01*
X120410197Y-110889803D01*
X120429443Y-110905597D01*
X120451399Y-110917333D01*
X120475224Y-110924560D01*
X120500000Y-110927000D01*
X121773000Y-110927000D01*
X121773000Y-115173000D01*
X121400000Y-115173000D01*
X121375224Y-115175440D01*
X121351399Y-115182667D01*
X121329443Y-115194403D01*
X121310197Y-115210197D01*
X121294403Y-115229443D01*
X121282667Y-115251399D01*
X121275440Y-115275224D01*
X121273000Y-115300000D01*
X121273000Y-119173000D01*
X117477000Y-119173000D01*
X117477000Y-105418442D01*
X117509684Y-105085109D01*
X117601133Y-104782213D01*
X117749676Y-104502845D01*
X117949651Y-104257652D01*
X118193438Y-104055973D01*
X118471764Y-103905483D01*
X118774013Y-103811921D01*
X119106263Y-103777000D01*
X121773000Y-103777000D01*
X121773000Y-106200000D01*
G36*
X134673000Y-106200000D02*
G01*
X134675440Y-106224776D01*
X134682667Y-106248601D01*
X134694403Y-106270557D01*
X134710197Y-106289803D01*
X134729443Y-106305597D01*
X134751399Y-106317333D01*
X134775224Y-106324560D01*
X134800000Y-106327000D01*
X136173000Y-106327000D01*
X136173000Y-108573000D01*
X133400000Y-108573000D01*
X133375224Y-108575440D01*
X133351399Y-108582667D01*
X133329443Y-108594403D01*
X133310197Y-108610197D01*
X133294403Y-108629443D01*
X133282667Y-108651399D01*
X133275440Y-108675224D01*
X133273000Y-108700000D01*
X133273000Y-110800000D01*
X133275440Y-110824776D01*
X133282667Y-110848601D01*
X133294403Y-110870557D01*
X133310197Y-110889803D01*
X133329443Y-110905597D01*
X133351399Y-110917333D01*
X133375224Y-110924560D01*
X133400000Y-110927000D01*
X134673000Y-110927000D01*
X134673000Y-115173000D01*
X134300000Y-115173000D01*
X134275224Y-115175440D01*
X134251399Y-115182667D01*
X134229443Y-115194403D01*
X134210197Y-115210197D01*
X134194403Y-115229443D01*
X134182667Y-115251399D01*
X134175440Y-115275224D01*
X134173000Y-115300000D01*
X134173000Y-119173000D01*
X130377000Y-119173000D01*
X130377000Y-105418442D01*
X130409684Y-105085109D01*
X130501133Y-104782213D01*
X130649676Y-104502845D01*
X130849651Y-104257652D01*
X131093438Y-104055973D01*
X131371764Y-103905483D01*
X131674013Y-103811921D01*
X132006263Y-103777000D01*
X134673000Y-103777000D01*
X134673000Y-106200000D01*
G37*
X134673000Y-106200000D02*
X134675440Y-106224776D01*
X134682667Y-106248601D01*
X134694403Y-106270557D01*
X134710197Y-106289803D01*
X134729443Y-106305597D01*
X134751399Y-106317333D01*
X134775224Y-106324560D01*
X134800000Y-106327000D01*
X136173000Y-106327000D01*
X136173000Y-108573000D01*
X133400000Y-108573000D01*
X133375224Y-108575440D01*
X133351399Y-108582667D01*
X133329443Y-108594403D01*
X133310197Y-108610197D01*
X133294403Y-108629443D01*
X133282667Y-108651399D01*
X133275440Y-108675224D01*
X133273000Y-108700000D01*
X133273000Y-110800000D01*
X133275440Y-110824776D01*
X133282667Y-110848601D01*
X133294403Y-110870557D01*
X133310197Y-110889803D01*
X133329443Y-110905597D01*
X133351399Y-110917333D01*
X133375224Y-110924560D01*
X133400000Y-110927000D01*
X134673000Y-110927000D01*
X134673000Y-115173000D01*
X134300000Y-115173000D01*
X134275224Y-115175440D01*
X134251399Y-115182667D01*
X134229443Y-115194403D01*
X134210197Y-115210197D01*
X134194403Y-115229443D01*
X134182667Y-115251399D01*
X134175440Y-115275224D01*
X134173000Y-115300000D01*
X134173000Y-119173000D01*
X130377000Y-119173000D01*
X130377000Y-105418442D01*
X130409684Y-105085109D01*
X130501133Y-104782213D01*
X130649676Y-104502845D01*
X130849651Y-104257652D01*
X131093438Y-104055973D01*
X131371764Y-103905483D01*
X131674013Y-103811921D01*
X132006263Y-103777000D01*
X134673000Y-103777000D01*
X134673000Y-106200000D01*
G36*
X138214891Y-103809684D02*
G01*
X138517787Y-103901133D01*
X138797155Y-104049676D01*
X139042348Y-104249651D01*
X139244027Y-104493438D01*
X139394517Y-104771764D01*
X139488079Y-105074013D01*
X139523001Y-105406273D01*
X139523001Y-115173000D01*
X135227000Y-115173000D01*
X135227000Y-110600000D01*
X135224560Y-110575224D01*
X135217333Y-110551399D01*
X135205597Y-110529443D01*
X135189803Y-110510197D01*
X135170557Y-110494403D01*
X135148601Y-110482667D01*
X135124776Y-110475440D01*
X135100000Y-110473000D01*
X133727000Y-110473000D01*
X133727000Y-109027000D01*
X136500000Y-109027000D01*
X136524776Y-109024560D01*
X136548601Y-109017333D01*
X136570557Y-109005597D01*
X136589803Y-108989803D01*
X136605597Y-108970557D01*
X136617333Y-108948601D01*
X136624560Y-108924776D01*
X136627000Y-108900000D01*
X136627000Y-106000000D01*
X136624560Y-105975224D01*
X136617333Y-105951399D01*
X136605597Y-105929443D01*
X136589803Y-105910197D01*
X136570557Y-105894403D01*
X136548601Y-105882667D01*
X136524776Y-105875440D01*
X136500000Y-105873000D01*
X135227000Y-105873000D01*
X135227000Y-103777000D01*
X137881558Y-103777000D01*
X138214891Y-103809684D01*
G37*
X138214891Y-103809684D02*
X138517787Y-103901133D01*
X138797155Y-104049676D01*
X139042348Y-104249651D01*
X139244027Y-104493438D01*
X139394517Y-104771764D01*
X139488079Y-105074013D01*
X139523001Y-105406273D01*
X139523001Y-115173000D01*
X135227000Y-115173000D01*
X135227000Y-110600000D01*
X135224560Y-110575224D01*
X135217333Y-110551399D01*
X135205597Y-110529443D01*
X135189803Y-110510197D01*
X135170557Y-110494403D01*
X135148601Y-110482667D01*
X135124776Y-110475440D01*
X135100000Y-110473000D01*
X133727000Y-110473000D01*
X133727000Y-109027000D01*
X136500000Y-109027000D01*
X136524776Y-109024560D01*
X136548601Y-109017333D01*
X136570557Y-109005597D01*
X136589803Y-108989803D01*
X136605597Y-108970557D01*
X136617333Y-108948601D01*
X136624560Y-108924776D01*
X136627000Y-108900000D01*
X136627000Y-106000000D01*
X136624560Y-105975224D01*
X136617333Y-105951399D01*
X136605597Y-105929443D01*
X136589803Y-105910197D01*
X136570557Y-105894403D01*
X136548601Y-105882667D01*
X136524776Y-105875440D01*
X136500000Y-105873000D01*
X135227000Y-105873000D01*
X135227000Y-103777000D01*
X137881558Y-103777000D01*
X138214891Y-103809684D01*
G36*
X125314891Y-103809684D02*
G01*
X125617787Y-103901133D01*
X125897155Y-104049676D01*
X126142348Y-104249651D01*
X126344027Y-104493438D01*
X126494517Y-104771764D01*
X126588079Y-105074013D01*
X126623001Y-105406273D01*
X126623001Y-115173000D01*
X122327000Y-115173000D01*
X122327000Y-110600000D01*
X122324560Y-110575224D01*
X122317333Y-110551399D01*
X122305597Y-110529443D01*
X122289803Y-110510197D01*
X122270557Y-110494403D01*
X122248601Y-110482667D01*
X122224776Y-110475440D01*
X122200000Y-110473000D01*
X120827000Y-110473000D01*
X120827000Y-109027000D01*
X123600000Y-109027000D01*
X123624776Y-109024560D01*
X123648601Y-109017333D01*
X123670557Y-109005597D01*
X123689803Y-108989803D01*
X123705597Y-108970557D01*
X123717333Y-108948601D01*
X123724560Y-108924776D01*
X123727000Y-108900000D01*
X123727000Y-106000000D01*
X123724560Y-105975224D01*
X123717333Y-105951399D01*
X123705597Y-105929443D01*
X123689803Y-105910197D01*
X123670557Y-105894403D01*
X123648601Y-105882667D01*
X123624776Y-105875440D01*
X123600000Y-105873000D01*
X122327000Y-105873000D01*
X122327000Y-103777000D01*
X124981558Y-103777000D01*
X125314891Y-103809684D01*
G37*
X125314891Y-103809684D02*
X125617787Y-103901133D01*
X125897155Y-104049676D01*
X126142348Y-104249651D01*
X126344027Y-104493438D01*
X126494517Y-104771764D01*
X126588079Y-105074013D01*
X126623001Y-105406273D01*
X126623001Y-115173000D01*
X122327000Y-115173000D01*
X122327000Y-110600000D01*
X122324560Y-110575224D01*
X122317333Y-110551399D01*
X122305597Y-110529443D01*
X122289803Y-110510197D01*
X122270557Y-110494403D01*
X122248601Y-110482667D01*
X122224776Y-110475440D01*
X122200000Y-110473000D01*
X120827000Y-110473000D01*
X120827000Y-109027000D01*
X123600000Y-109027000D01*
X123624776Y-109024560D01*
X123648601Y-109017333D01*
X123670557Y-109005597D01*
X123689803Y-108989803D01*
X123705597Y-108970557D01*
X123717333Y-108948601D01*
X123724560Y-108924776D01*
X123727000Y-108900000D01*
X123727000Y-106000000D01*
X123724560Y-105975224D01*
X123717333Y-105951399D01*
X123705597Y-105929443D01*
X123689803Y-105910197D01*
X123670557Y-105894403D01*
X123648601Y-105882667D01*
X123624776Y-105875440D01*
X123600000Y-105873000D01*
X122327000Y-105873000D01*
X122327000Y-103777000D01*
X124981558Y-103777000D01*
X125314891Y-103809684D01*
G36*
X164014891Y-103809684D02*
G01*
X164317787Y-103901133D01*
X164597155Y-104049676D01*
X164842348Y-104249651D01*
X165044027Y-104493438D01*
X165194517Y-104771764D01*
X165288079Y-105074013D01*
X165323001Y-105406273D01*
X165323001Y-115173000D01*
X161027000Y-115173000D01*
X161027000Y-110600000D01*
X161024560Y-110575224D01*
X161017333Y-110551399D01*
X161005597Y-110529443D01*
X160989803Y-110510197D01*
X160970557Y-110494403D01*
X160948601Y-110482667D01*
X160924776Y-110475440D01*
X160900000Y-110473000D01*
X159527000Y-110473000D01*
X159527000Y-109027000D01*
X162300000Y-109027000D01*
X162324776Y-109024560D01*
X162348601Y-109017333D01*
X162370557Y-109005597D01*
X162389803Y-108989803D01*
X162405597Y-108970557D01*
X162417333Y-108948601D01*
X162424560Y-108924776D01*
X162427000Y-108900000D01*
X162427000Y-106000000D01*
X162424560Y-105975224D01*
X162417333Y-105951399D01*
X162405597Y-105929443D01*
X162389803Y-105910197D01*
X162370557Y-105894403D01*
X162348601Y-105882667D01*
X162324776Y-105875440D01*
X162300000Y-105873000D01*
X161027000Y-105873000D01*
X161027000Y-103777000D01*
X163681558Y-103777000D01*
X164014891Y-103809684D01*
G37*
X164014891Y-103809684D02*
X164317787Y-103901133D01*
X164597155Y-104049676D01*
X164842348Y-104249651D01*
X165044027Y-104493438D01*
X165194517Y-104771764D01*
X165288079Y-105074013D01*
X165323001Y-105406273D01*
X165323001Y-115173000D01*
X161027000Y-115173000D01*
X161027000Y-110600000D01*
X161024560Y-110575224D01*
X161017333Y-110551399D01*
X161005597Y-110529443D01*
X160989803Y-110510197D01*
X160970557Y-110494403D01*
X160948601Y-110482667D01*
X160924776Y-110475440D01*
X160900000Y-110473000D01*
X159527000Y-110473000D01*
X159527000Y-109027000D01*
X162300000Y-109027000D01*
X162324776Y-109024560D01*
X162348601Y-109017333D01*
X162370557Y-109005597D01*
X162389803Y-108989803D01*
X162405597Y-108970557D01*
X162417333Y-108948601D01*
X162424560Y-108924776D01*
X162427000Y-108900000D01*
X162427000Y-106000000D01*
X162424560Y-105975224D01*
X162417333Y-105951399D01*
X162405597Y-105929443D01*
X162389803Y-105910197D01*
X162370557Y-105894403D01*
X162348601Y-105882667D01*
X162324776Y-105875440D01*
X162300000Y-105873000D01*
X161027000Y-105873000D01*
X161027000Y-103777000D01*
X163681558Y-103777000D01*
X164014891Y-103809684D01*
G36*
X151114891Y-103809684D02*
G01*
X151417787Y-103901133D01*
X151697155Y-104049676D01*
X151942348Y-104249651D01*
X152144027Y-104493438D01*
X152294517Y-104771764D01*
X152388079Y-105074013D01*
X152423001Y-105406273D01*
X152423001Y-115173000D01*
X148127000Y-115173000D01*
X148127000Y-110600000D01*
X148124560Y-110575224D01*
X148117333Y-110551399D01*
X148105597Y-110529443D01*
X148089803Y-110510197D01*
X148070557Y-110494403D01*
X148048601Y-110482667D01*
X148024776Y-110475440D01*
X148000000Y-110473000D01*
X146627000Y-110473000D01*
X146627000Y-109027000D01*
X149400000Y-109027000D01*
X149424776Y-109024560D01*
X149448601Y-109017333D01*
X149470557Y-109005597D01*
X149489803Y-108989803D01*
X149505597Y-108970557D01*
X149517333Y-108948601D01*
X149524560Y-108924776D01*
X149527000Y-108900000D01*
X149527000Y-106000000D01*
X149524560Y-105975224D01*
X149517333Y-105951399D01*
X149505597Y-105929443D01*
X149489803Y-105910197D01*
X149470557Y-105894403D01*
X149448601Y-105882667D01*
X149424776Y-105875440D01*
X149400000Y-105873000D01*
X148127000Y-105873000D01*
X148127000Y-103777000D01*
X150781558Y-103777000D01*
X151114891Y-103809684D01*
G37*
X151114891Y-103809684D02*
X151417787Y-103901133D01*
X151697155Y-104049676D01*
X151942348Y-104249651D01*
X152144027Y-104493438D01*
X152294517Y-104771764D01*
X152388079Y-105074013D01*
X152423001Y-105406273D01*
X152423001Y-115173000D01*
X148127000Y-115173000D01*
X148127000Y-110600000D01*
X148124560Y-110575224D01*
X148117333Y-110551399D01*
X148105597Y-110529443D01*
X148089803Y-110510197D01*
X148070557Y-110494403D01*
X148048601Y-110482667D01*
X148024776Y-110475440D01*
X148000000Y-110473000D01*
X146627000Y-110473000D01*
X146627000Y-109027000D01*
X149400000Y-109027000D01*
X149424776Y-109024560D01*
X149448601Y-109017333D01*
X149470557Y-109005597D01*
X149489803Y-108989803D01*
X149505597Y-108970557D01*
X149517333Y-108948601D01*
X149524560Y-108924776D01*
X149527000Y-108900000D01*
X149527000Y-106000000D01*
X149524560Y-105975224D01*
X149517333Y-105951399D01*
X149505597Y-105929443D01*
X149489803Y-105910197D01*
X149470557Y-105894403D01*
X149448601Y-105882667D01*
X149424776Y-105875440D01*
X149400000Y-105873000D01*
X148127000Y-105873000D01*
X148127000Y-103777000D01*
X150781558Y-103777000D01*
X151114891Y-103809684D01*
G36*
X112414891Y-103809684D02*
G01*
X112717787Y-103901133D01*
X112997155Y-104049676D01*
X113242348Y-104249651D01*
X113444027Y-104493438D01*
X113594517Y-104771764D01*
X113688079Y-105074013D01*
X113723001Y-105406273D01*
X113723001Y-115173000D01*
X109427000Y-115173000D01*
X109427000Y-110600000D01*
X109424560Y-110575224D01*
X109417333Y-110551399D01*
X109405597Y-110529443D01*
X109389803Y-110510197D01*
X109370557Y-110494403D01*
X109348601Y-110482667D01*
X109324776Y-110475440D01*
X109300000Y-110473000D01*
X107927000Y-110473000D01*
X107927000Y-109027000D01*
X110700000Y-109027000D01*
X110724776Y-109024560D01*
X110748601Y-109017333D01*
X110770557Y-109005597D01*
X110789803Y-108989803D01*
X110805597Y-108970557D01*
X110817333Y-108948601D01*
X110824560Y-108924776D01*
X110827000Y-108900000D01*
X110827000Y-106000000D01*
X110824560Y-105975224D01*
X110817333Y-105951399D01*
X110805597Y-105929443D01*
X110789803Y-105910197D01*
X110770557Y-105894403D01*
X110748601Y-105882667D01*
X110724776Y-105875440D01*
X110700000Y-105873000D01*
X109427000Y-105873000D01*
X109427000Y-103777000D01*
X112081558Y-103777000D01*
X112414891Y-103809684D01*
G37*
X112414891Y-103809684D02*
X112717787Y-103901133D01*
X112997155Y-104049676D01*
X113242348Y-104249651D01*
X113444027Y-104493438D01*
X113594517Y-104771764D01*
X113688079Y-105074013D01*
X113723001Y-105406273D01*
X113723001Y-115173000D01*
X109427000Y-115173000D01*
X109427000Y-110600000D01*
X109424560Y-110575224D01*
X109417333Y-110551399D01*
X109405597Y-110529443D01*
X109389803Y-110510197D01*
X109370557Y-110494403D01*
X109348601Y-110482667D01*
X109324776Y-110475440D01*
X109300000Y-110473000D01*
X107927000Y-110473000D01*
X107927000Y-109027000D01*
X110700000Y-109027000D01*
X110724776Y-109024560D01*
X110748601Y-109017333D01*
X110770557Y-109005597D01*
X110789803Y-108989803D01*
X110805597Y-108970557D01*
X110817333Y-108948601D01*
X110824560Y-108924776D01*
X110827000Y-108900000D01*
X110827000Y-106000000D01*
X110824560Y-105975224D01*
X110817333Y-105951399D01*
X110805597Y-105929443D01*
X110789803Y-105910197D01*
X110770557Y-105894403D01*
X110748601Y-105882667D01*
X110724776Y-105875440D01*
X110700000Y-105873000D01*
X109427000Y-105873000D01*
X109427000Y-103777000D01*
X112081558Y-103777000D01*
X112414891Y-103809684D01*
G36*
X176914891Y-103809684D02*
G01*
X177217787Y-103901133D01*
X177497155Y-104049676D01*
X177742348Y-104249651D01*
X177944027Y-104493438D01*
X178094517Y-104771764D01*
X178188079Y-105074013D01*
X178223001Y-105406273D01*
X178223001Y-115173000D01*
X173927000Y-115173000D01*
X173927000Y-110600000D01*
X173924560Y-110575224D01*
X173917333Y-110551399D01*
X173905597Y-110529443D01*
X173889803Y-110510197D01*
X173870557Y-110494403D01*
X173848601Y-110482667D01*
X173824776Y-110475440D01*
X173800000Y-110473000D01*
X172427000Y-110473000D01*
X172427000Y-109027000D01*
X175200000Y-109027000D01*
X175224776Y-109024560D01*
X175248601Y-109017333D01*
X175270557Y-109005597D01*
X175289803Y-108989803D01*
X175305597Y-108970557D01*
X175317333Y-108948601D01*
X175324560Y-108924776D01*
X175327000Y-108900000D01*
X175327000Y-106000000D01*
X175324560Y-105975224D01*
X175317333Y-105951399D01*
X175305597Y-105929443D01*
X175289803Y-105910197D01*
X175270557Y-105894403D01*
X175248601Y-105882667D01*
X175224776Y-105875440D01*
X175200000Y-105873000D01*
X173927000Y-105873000D01*
X173927000Y-103777000D01*
X176581558Y-103777000D01*
X176914891Y-103809684D01*
G37*
X176914891Y-103809684D02*
X177217787Y-103901133D01*
X177497155Y-104049676D01*
X177742348Y-104249651D01*
X177944027Y-104493438D01*
X178094517Y-104771764D01*
X178188079Y-105074013D01*
X178223001Y-105406273D01*
X178223001Y-115173000D01*
X173927000Y-115173000D01*
X173927000Y-110600000D01*
X173924560Y-110575224D01*
X173917333Y-110551399D01*
X173905597Y-110529443D01*
X173889803Y-110510197D01*
X173870557Y-110494403D01*
X173848601Y-110482667D01*
X173824776Y-110475440D01*
X173800000Y-110473000D01*
X172427000Y-110473000D01*
X172427000Y-109027000D01*
X175200000Y-109027000D01*
X175224776Y-109024560D01*
X175248601Y-109017333D01*
X175270557Y-109005597D01*
X175289803Y-108989803D01*
X175305597Y-108970557D01*
X175317333Y-108948601D01*
X175324560Y-108924776D01*
X175327000Y-108900000D01*
X175327000Y-106000000D01*
X175324560Y-105975224D01*
X175317333Y-105951399D01*
X175305597Y-105929443D01*
X175289803Y-105910197D01*
X175270557Y-105894403D01*
X175248601Y-105882667D01*
X175224776Y-105875440D01*
X175200000Y-105873000D01*
X173927000Y-105873000D01*
X173927000Y-103777000D01*
X176581558Y-103777000D01*
X176914891Y-103809684D01*
M02*
